<?xml version="1.0" standalone="no"?>
<!DOCTYPE svg PUBLIC "-//W3C//DTD SVG 1.1//EN" "http://www.w3.org/Graphics/SVG/1.1/DTD/svg11.dtd" >
<svg xmlns="http://www.w3.org/2000/svg" xmlns:xlink="http://www.w3.org/1999/xlink" version="1.1">
<metadata>
Created by FontForge 20170731 at Wed Jun  5 17:49:09 2013
 By Aleksey,,,
(c) 2013 Microsoft Corporation. All rights reserved.
</metadata>
<defs>
<font id="TrebuchetMS" horiz-adv-x="1074" >
  <font-face 
    font-family="Trebuchet MS"
    font-weight="400"
    font-stretch="normal"
    units-per-em="2048"
    panose-1="2 11 6 3 2 2 2 2 2 4"
    ascent="1638"
    descent="-410"
    x-height="1071"
    cap-height="1464"
    bbox="-446 -537 2216 2017"
    underline-thickness="127"
    underline-position="-450"
    unicode-range="U+0020-FB06"
  />
<missing-glyph horiz-adv-x="1024" 
d="M128 350v768h768v-768h-768zM256 478h512v512h-512v-512z" />
    <glyph glyph-name=".notdef" horiz-adv-x="1024" 
d="M128 350v768h768v-768h-768zM256 478h512v512h-512v-512z" />
    <glyph glyph-name="glyph1" horiz-adv-x="0" 
 />
    <glyph glyph-name="glyph2" horiz-adv-x="752" 
 />
    <glyph glyph-name="space" unicode=" " horiz-adv-x="617" 
 />
    <glyph glyph-name="exclam" unicode="!" horiz-adv-x="752" 
d="M413 382h-71q-77 503 -77 699v410h226v-409q0 -191 -78 -700zM384 281q62 0 106 -44t44 -106t-44 -106.5t-106 -44.5t-106 44.5t-44 106.5t44 106t106 44z" />
    <glyph glyph-name="quotedbl" unicode="&#x22;" horiz-adv-x="665" 
d="M229 1086h-133l-24 381h184zM559 1086h-133l-24 381h184z" />
    <glyph glyph-name="numbersign" unicode="#" 
d="M879 947l-99 -393h161v-128h-194l-124 -446h-127l124 446h-297l-124 -446h-130l123 446h-155v128h188l99 393h-172v128h205l102 412h131l-103 -412h297l103 412h127l-103 -412h175v-128h-207zM455 947l-99 -393h297l99 393h-297z" />
    <glyph glyph-name="dollar" unicode="$" 
d="M458 -25q-69 4 -174 35t-144 57l72 184q52 -38 137.5 -67t152.5 -29q117 0 188 64t71 163q0 62 -20.5 110t-56 77.5t-161.5 88.5l-118 55q-150 70 -209.5 166t-59.5 231q0 139 87.5 242t234.5 130v160h139v-153q215 -9 291 -78l-59 -174q-40 29 -122 56t-152 27
q-102 0 -160.5 -58t-58.5 -149q0 -56 21 -102t60 -78t152 -86l92 -43q156 -73 228 -178.5t72 -270.5q0 -136 -96.5 -238.5t-267.5 -131.5v-231h-139v221z" />
    <glyph glyph-name="percent" unicode="%" horiz-adv-x="1229" 
d="M218 -20h-127l883 1511h126zM61 1162q0 147 81 238t206 91q123 0 196.5 -90t73.5 -258q0 -156 -78 -247.5t-201 -91.5q-278 0 -278 358zM187 1152q0 -117 39.5 -181.5t103.5 -64.5q162 0 162 245q0 238 -147 238q-73 0 -115.5 -64t-42.5 -173zM601 338q0 147 81 238
t206 91q123 0 196.5 -90t73.5 -258q0 -156 -78 -247.5t-201 -91.5q-278 0 -278 358zM727 328q0 -117 39.5 -181.5t103.5 -64.5q162 0 162 245q0 238 -147 238q-73 0 -115.5 -64t-42.5 -173z" />
    <glyph glyph-name="ampersand" unicode="&#x26;" horiz-adv-x="1446" 
d="M929 51q-145 -71 -350 -71q-209 0 -323 123.5t-114 349.5q0 116 34.5 201t126.5 176q-141 140 -141 291q0 153 115.5 261.5t309.5 108.5q206 0 318 -91l-83 -154q-114 95 -204 95q-266 0 -266 -240q0 -130 116 -220h372v183l190 73v-259h249v-160h-249v-330
q0 -138 37 -188t128 -50q54 0 127 37l27 -177q-105 -30 -240 -30q-93 0 -180 71zM840 314v404h-403q-95 -122 -95 -256q0 -312 305 -312q136 0 204 49q-11 46 -11 115z" />
    <glyph glyph-name="quotesingle" unicode="'" horiz-adv-x="327" 
d="M229 1086h-133l-24 381h184z" />
    <glyph glyph-name="parenleft" unicode="(" horiz-adv-x="752" 
d="M618 1475v-83q-198 -286 -198 -835q0 -652 198 -880v-105q-202 141 -313.5 404.5t-111.5 582.5q0 272 127 549.5t298 366.5z" />
    <glyph glyph-name="parenright" unicode=")" horiz-adv-x="752" 
d="M193 -428v105q198 228 198 880q0 549 -198 835v83q171 -89 298 -366.5t127 -549.5q0 -319 -111.5 -582.5t-313.5 -404.5z" />
    <glyph glyph-name="asterisk" unicode="*" horiz-adv-x="752" 
d="M597 1127l-173 -3l158 -105l47 -62l-122 -104l-54 70l-82 159l-91 -162l-43 -64l-131 101l50 69l158 83l-176 27l-90 32l72 150l96 -37l125 -95l-63 205v79h176v-76l-60 -211l158 107l74 27l57 -161z" />
    <glyph glyph-name="plus" unicode="+" 
d="M611 706h349v-141h-349v-345h-141v345h-348v141h348v343h141v-343z" />
    <glyph glyph-name="comma" unicode="," horiz-adv-x="752" 
d="M224 -363l-51 72q172 141 172 240q0 44 -30 88q-86 41 -86 118q0 53 41 87.5t103 34.5q55 0 98.5 -48t43.5 -112q0 -133 -55.5 -239.5t-235.5 -240.5z" />
    <glyph glyph-name="hyphen" unicode="-" horiz-adv-x="752" 
d="M159 506v175h428v-175h-428z" />
    <glyph glyph-name="hyphen" unicode="&#x2010;" horiz-adv-x="752" 
d="M159 506v175h428v-175h-428z" />
    <glyph glyph-name="period" unicode="." horiz-adv-x="752" 
d="M354 281q62 0 106 -44t44 -106t-44 -106.5t-106 -44.5t-106 44.5t-44 106.5t44 106t106 44z" />
    <glyph glyph-name="slash" unicode="/" 
d="M350 0h-161l531 1471h159z" />
    <glyph glyph-name="zero" unicode="0" 
d="M64 777q0 316 128 515t360 199q230 0 345.5 -166t115.5 -580q0 -356 -121 -560.5t-354 -204.5t-353.5 165t-120.5 632zM264 759q0 -609 260 -609q149 0 219 135t70 473q0 233 -27 342t-87 165t-152 56q-283 0 -283 -562z" />
    <glyph glyph-name="one" unicode="1" 
d="M498 0v1123l-298 -186v187q113 57 240.5 157t197.5 190h60v-1471h-200z" />
    <glyph glyph-name="two" unicode="2" 
d="M69 0v40l459 703q144 221 144 375q0 203 -229 203q-81 0 -152 -42.5t-103 -107.5l-129 106q34 98 133.5 156t240.5 58q211 0 330 -97.5t119 -275.5q0 -165 -158 -416l-329 -522h574v-180h-900z" />
    <glyph glyph-name="three" unicode="3" 
d="M109 104l96 154q98 -108 248 -108q278 0 278 272q0 124 -81 201.5t-215 77.5h-16v162h9q254 0 254 224q0 234 -239 234q-130 0 -207 -87l-89 136q93 121 311 121q192 0 313 -102.5t121 -262.5q0 -122 -67.5 -216t-158.5 -126q126 -41 200.5 -139.5t74.5 -238.5
q0 -204 -129 -315t-362 -111q-98 0 -192 36.5t-149 87.5z" />
    <glyph glyph-name="four" unicode="4" 
d="M882 399v-399h-190v399h-667v114l787 958h70v-918h148v-154h-148zM692 1072l-430 -519h430v519z" />
    <glyph glyph-name="five" unicode="5" 
d="M232 715l-68 47v709h729v-170h-539v-356q74 55 188 55q204 0 311.5 -122t107.5 -347q0 -551 -491 -551q-205 0 -340 114l77 167q136 -111 262 -111q282 0 282 352q0 328 -278 328q-134 0 -241 -115z" />
    <glyph glyph-name="six" unicode="6" 
d="M672 1491l97 -107q-88 -35 -254.5 -236.5t-184.5 -310.5q83 80 231 80q194 0 311 -124t117 -341q0 -215 -120.5 -346t-302.5 -131q-482 0 -482 639q0 266 188.5 544.5t399.5 332.5zM294 458q0 -313 257 -313q108 0 170.5 81.5t62.5 215.5q0 139 -66 222t-170 83
q-254 0 -254 -289z" />
    <glyph glyph-name="seven" unicode="7" 
d="M428 0h-222q74 235 249 621.5t320 659.5h-691v190h950v-78l-129 -254q-65 -129 -136 -283t-139 -314t-119 -297t-83 -245z" />
    <glyph glyph-name="eight" unicode="8" 
d="M353 815q-93 50 -152 139t-59 184q0 163 110.5 258t285.5 95q189 0 293 -95t104 -259q0 -96 -63 -195.5t-146 -146.5q264 -148 264 -389q0 -203 -122 -314.5t-335 -111.5q-444 0 -444 426q0 123 76 242t188 167zM598 877q136 128 136 265q0 82 -54.5 130.5t-141.5 48.5
q-196 0 -196 -181q0 -134 256 -263zM509 728q-220 -119 -220 -322q0 -109 68 -182.5t176 -73.5q112 0 184.5 72t72.5 184q0 81 -50 152.5t-231 169.5z" />
    <glyph glyph-name="nine" unicode="9" 
d="M391 -25l-97 107q87 35 254.5 236t184.5 310q-82 -79 -231 -79q-194 0 -311 124t-117 341q0 215 120.5 346t302.5 131q482 0 482 -639q0 -266 -188.5 -544.5t-399.5 -332.5zM769 1008q0 313 -257 313q-108 0 -170.5 -81.5t-62.5 -215.5q0 -139 66 -222t170 -83
q254 0 254 289z" />
    <glyph glyph-name="colon" unicode=":" horiz-adv-x="752" 
d="M354 1091q62 0 106 -44t44 -106t-44 -106.5t-106 -44.5t-106 44.5t-44 106.5t44 106t106 44zM354 281q62 0 106 -44t44 -106t-44 -106.5t-106 -44.5t-106 44.5t-44 106.5t44 106t106 44z" />
    <glyph glyph-name="semicolon" unicode=";" horiz-adv-x="752" 
d="M354 1091q62 0 106 -44t44 -106t-44 -106.5t-106 -44.5t-106 44.5t-44 106.5t44 106t106 44zM224 -363l-51 72q172 141 172 240q0 44 -30 88q-86 41 -86 118q0 53 41 87.5t103 34.5q55 0 98.5 -48t43.5 -112q0 -133 -55.5 -239.5t-235.5 -240.5z" />
    <glyph glyph-name="less" unicode="&#x3c;" 
d="M889 218l-739 358v123l739 354v-161l-571 -255l571 -258v-161z" />
    <glyph glyph-name="equal" unicode="=" 
d="M960 876v-141h-838v141h838zM960 536v-141h-838v141h838z" />
    <glyph glyph-name="greater" unicode="&#x3e;" 
d="M889 576l-739 -358v161l571 258l-571 255v161l739 -354v-123z" />
    <glyph glyph-name="question" unicode="?" horiz-adv-x="752" 
d="M366 429h-132q-34 95 -34 137q0 72 26.5 147t120 179.5t125.5 160.5t32 109q0 176 -213 176q-102 0 -178 -73l-73 143q101 83 301 83q150 0 249.5 -85t99.5 -227q0 -72 -25.5 -138.5t-78.5 -122.5l-146 -156q-88 -108 -88 -242q0 -21 14 -91zM324 281q62 0 106 -44
t44 -106t-44 -106.5t-106 -44.5t-106 44.5t-44 106.5t44 106t106 44z" />
    <glyph glyph-name="at" unicode="@" horiz-adv-x="1578" 
d="M1176 116q46 -17 135 -58q-192 -192 -506 -192q-320 0 -512.5 197t-192.5 518q0 326 195 535t510 209q303 0 488 -181t185 -483q0 -170 -89.5 -288.5t-236.5 -118.5q-159 0 -230 70q-85 -78 -201 -78q-107 0 -173 58.5t-66 157.5q0 126 108 192t292 66q-15 147 -118 147
q-105 0 -166 -56l-48 99q82 61 200 61q278 0 278 -319v-239q72 -53 122 -53q186 0 186 304q0 231 -150 385t-381 154q-253 0 -408 -175t-155 -447q0 -267 153.5 -430t409.5 -163q231 0 371 128zM882 393v234h-51q-195 0 -195 -160q0 -54 38 -89t95 -35q63 0 113 50z" />
    <glyph glyph-name="A" unicode="A" horiz-adv-x="1208" 
d="M982 0l-101 309h-545l-108 -309h-224l595 1485h53l552 -1485h-222zM616 1101l-227 -645h435z" />
    <glyph glyph-name="B" unicode="B" horiz-adv-x="1159" 
d="M568 0h-418v1465q267 13 385 13q217 0 336 -93.5t119 -267.5q0 -102 -76 -186t-168 -105q174 -42 253.5 -139t79.5 -264q0 -193 -141.5 -308t-369.5 -115zM350 1305v-421q63 -6 156 -6q284 0 284 231q0 203 -261 203q-100 0 -179 -7zM350 729v-559q103 -10 158 -10
q188 0 274.5 70.5t86.5 224.5q0 143 -82.5 211t-275.5 68z" />
    <glyph glyph-name="C" unicode="C" horiz-adv-x="1225" 
d="M1085 1411l-67 -171q-96 70 -302 70q-193 0 -309.5 -166t-116.5 -428q0 -250 119.5 -405.5t308.5 -155.5q206 0 317 146l110 -153q-174 -173 -448 -173q-287 0 -452 207t-165 546q0 328 176 545t455 217q239 0 374 -79z" />
    <glyph glyph-name="D" unicode="D" horiz-adv-x="1256" 
d="M445 0h-295v1465q282 10 361 10q307 0 486 -186.5t179 -496.5q0 -792 -731 -792zM350 1285v-1095q67 -10 166 -10q210 0 330 157.5t120 437.5q0 520 -467 520q-28 0 -149 -10z" />
    <glyph glyph-name="E" unicode="E" horiz-adv-x="1097" 
d="M350 1285v-407h484v-170h-484v-528h664v-180h-864v1465h875v-180h-675z" />
    <glyph glyph-name="F" unicode="F" horiz-adv-x="1075" 
d="M350 1285v-407h515v-170h-515v-708h-200v1465h905v-180h-705z" />
    <glyph glyph-name="G" unicode="G" horiz-adv-x="1385" 
d="M1165 1363l-83 -165q-151 112 -296 112q-230 0 -363 -162t-133 -429q0 -254 130.5 -409t355.5 -155q160 0 259 96v343h-203v170h403v-638q-80 -68 -223 -109.5t-278 -41.5q-303 0 -478.5 205.5t-175.5 546.5q0 340 192.5 551.5t519.5 211.5q229 0 373 -127z" />
    <glyph glyph-name="H" unicode="H" horiz-adv-x="1340" 
d="M990 0v708h-640v-708h-200v1465h200v-587h640v587h200v-1465h-200z" />
    <glyph glyph-name="I" unicode="I" horiz-adv-x="570" 
d="M185 0v1465h200v-1465h-200z" />
    <glyph glyph-name="J" unicode="J" horiz-adv-x="976" 
d="M49 293h175q24 -133 159 -133q134 0 188.5 57.5t54.5 321.5v926h200v-918q0 -300 -97 -433.5t-345 -133.5q-143 0 -234.5 85t-100.5 228z" />
    <glyph glyph-name="K" unicode="K" horiz-adv-x="1179" 
d="M958 0l-413 674l-195 -277v-397h-200v1465h200v-797l544 797h223l-438 -635l500 -830h-221z" />
    <glyph glyph-name="L" unicode="L" horiz-adv-x="1037" 
d="M150 0v1465h200v-1285h662v-180h-862z" />
    <glyph glyph-name="M" unicode="M" horiz-adv-x="1453" 
d="M1253 0l-174 941l-320 -961h-50l-329 961l-170 -941h-190l274 1465h91l349 -1069l322 1069h90l297 -1465h-190z" />
    <glyph glyph-name="N" unicode="N" horiz-adv-x="1307" 
d="M1097 -20l-757 1071v-1051h-190v1465h80l737 -1013v1013h190v-1485h-60z" />
    <glyph glyph-name="O" unicode="O" horiz-adv-x="1380" 
d="M80 745q0 318 159.5 532t430.5 214q305 0 467.5 -197t162.5 -549q0 -361 -163 -565.5t-467 -204.5q-277 0 -433.5 216t-156.5 554zM290 745q0 -252 99.5 -421t280.5 -169q205 0 312.5 155t107.5 435q0 566 -420 566q-186 0 -283 -152t-97 -414z" />
    <glyph glyph-name="P" unicode="P" horiz-adv-x="1142" 
d="M350 564v-564h-200v1465q227 10 274 10q638 0 638 -427q0 -494 -564 -494q-34 0 -148 10zM350 1285v-541q127 -10 134 -10q372 0 372 293q0 268 -397 268q-40 0 -109 -10z" />
    <glyph glyph-name="Q" unicode="Q" horiz-adv-x="1384" 
d="M1520 -108l-30 -195q-524 0 -687 291q-31 -13 -133 -13q-277 0 -433.5 216t-156.5 554q0 317 159 531.5t431 214.5q305 0 467.5 -197t162.5 -549q0 -505 -302 -693q109 -160 366 -160h156zM670 1311q-186 0 -283 -152t-97 -414q0 -252 99.5 -421t280.5 -169
q206 0 313 156.5t107 433.5q0 566 -420 566z" />
    <glyph glyph-name="R" unicode="R" horiz-adv-x="1192" 
d="M963 0l-391 629q-67 0 -212 10v-639h-200v1465q11 0 155.5 7.5t210.5 7.5q528 0 528 -420q0 -138 -85 -248.5t-202 -137.5l425 -674h-229zM360 1285v-476q72 -10 140 -10q180 0 262 58t82 207q0 123 -88 177t-278 54q-30 0 -118 -10z" />
    <glyph glyph-name="S" unicode="S" horiz-adv-x="985" 
d="M84 67l73 184q56 -41 139.5 -68.5t149.5 -27.5q117 0 188 64t71 163q0 74 -39.5 137.5t-198.5 138.5l-118 55q-150 70 -209.5 166t-59.5 231q0 164 116 272t298 108q243 0 338 -79l-59 -174q-40 29 -122 56t-152 27q-102 0 -160.5 -58t-58.5 -149q0 -56 21 -102t58.5 -77
t153.5 -87l120 -57q150 -71 210.5 -169.5t60.5 -250.5q0 -165 -132.5 -280t-354.5 -115q-195 0 -333 92z" />
    <glyph glyph-name="T" unicode="T" horiz-adv-x="1189" 
d="M684 1285v-1285h-200v1285h-466v180h1153v-180h-487z" />
    <glyph glyph-name="U" unicode="U" horiz-adv-x="1328" 
d="M150 1465h200v-1003q0 -134 85 -220.5t225 -86.5q148 0 233 84t85 228v998h200v-1019q0 -222 -138.5 -346.5t-377.5 -124.5q-246 0 -379 122t-133 350v1018z" />
    <glyph glyph-name="V" unicode="V" horiz-adv-x="1203" 
d="M660 -20h-101l-546 1485h222l377 -1079l363 1079h215z" />
    <glyph glyph-name="W" unicode="W" horiz-adv-x="1745" 
d="M1276 -20h-63l-349 1010l-326 -1010h-63l-462 1485h208l294 -1023l322 1023h70l318 -1021l299 1021h208z" />
    <glyph glyph-name="X" unicode="X" horiz-adv-x="1140" 
d="M915 0l-364 588l-336 -588h-202l432 760l-397 706l197 -1l313 -554l345 554h201l-455 -709l478 -756h-212z" />
    <glyph glyph-name="Y" unicode="Y" horiz-adv-x="1168" 
d="M685 656v-656h-200v656l-472 809h206l365 -640l365 640h206z" />
    <glyph glyph-name="Z" unicode="Z" horiz-adv-x="1127" 
d="M100 0v50l630 1235h-620v180h895v-50l-632 -1235h654v-180h-927z" />
    <glyph glyph-name="bracketleft" unicode="[" horiz-adv-x="752" 
d="M202 -420v1930h463v-170h-263v-1590h263v-170h-463z" />
    <glyph glyph-name="backslash" unicode="\" horiz-adv-x="728" 
d="M512 0l-515 1471h142l516 -1471h-143z" />
    <glyph glyph-name="bracketright" unicode="]" horiz-adv-x="752" 
d="M550 -420h-463v170h263v1590h-263v170h463v-1930z" />
    <glyph glyph-name="asciicircum" unicode="^" 
d="M763 907l-244 448l-248 -452h-122l318 568h107l316 -564h-127z" />
    <glyph glyph-name="underscore" unicode="_" 
d="M-8 -254v129h1085v-129h-1085z" />
    <glyph glyph-name="grave" unicode="`" 
d="M559 1285l-226 333h197l169 -333h-140z" />
    <glyph glyph-name="a" unicode="a" horiz-adv-x="1076" 
d="M740 123q-114 -143 -349 -143q-126 0 -218.5 91.5t-92.5 227.5q0 163 142.5 275.5t363.5 112.5q60 0 136 -26q0 260 -232 260q-178 0 -274 -96l-80 159q54 44 149.5 75.5t182.5 31.5q233 0 338.5 -106t105.5 -337v-384q0 -141 84 -188v-95q-116 0 -173.5 33t-82.5 109z
M722 526q-90 20 -126 20q-144 0 -235 -74t-91 -175q0 -167 197 -167q144 0 255 137v259z" />
    <glyph glyph-name="b" unicode="b" horiz-adv-x="1141" 
d="M297 77l-67 -97h-95v1530h190v-518q27 37 101.5 68t146.5 31q220 0 356.5 -152t136.5 -384q0 -268 -137 -421.5t-371 -153.5q-76 0 -149.5 28.5t-111.5 68.5zM325 847v-618q0 -16 71 -52.5t108 -36.5q194 0 278 93t84 312q0 182 -98 284t-264 102q-35 0 -97.5 -30
t-81.5 -54z" />
    <glyph glyph-name="c" unicode="c" horiz-adv-x="1014" 
d="M943 984l-94 -134q-29 29 -102.5 55t-144.5 26q-155 0 -246 -108.5t-91 -297.5q0 -188 93 -286.5t258 -98.5q128 0 258 99l75 -160q-153 -99 -379 -99q-219 0 -362 147t-143 398q0 256 148.5 411t406.5 155q83 0 180 -35t143 -72z" />
    <glyph glyph-name="d" unicode="d" horiz-adv-x="1141" 
d="M814 1v79q-99 -99 -288 -99q-201 0 -326 144t-125 384q0 241 144 411.5t343 170.5q166 0 252 -78v497h190v-1509h-190zM814 823q-72 108 -197 108q-153 0 -247.5 -114t-94.5 -290q0 -387 352 -387q45 0 108 28.5t79 60.5v594z" />
    <glyph glyph-name="e" unicode="e" horiz-adv-x="1117" 
d="M1037 517h-772q0 -188 103 -289q91 -88 234 -88q163 0 272 95l80 -137q-44 -44 -135 -76q-114 -42 -254 -42q-202 0 -343 137q-157 151 -157 406q0 265 161 425q144 143 341 143q229 0 359 -129q126 -124 126 -329q0 -63 -15 -116zM576 931q-127 0 -213 -82
q-82 -78 -93 -194h593q0 115 -72 192q-79 84 -215 84z" />
    <glyph glyph-name="f" unicode="f" horiz-adv-x="757" 
d="M714 1340q-58 20 -108 20q-87 0 -143.5 -66t-56.5 -167q0 -27 5 -56h218v-160h-218v-911h-190v911h-156v160h156q0 205 101 322t267 117q83 0 178 -30z" />
    <glyph glyph-name="g" unicode="g" horiz-adv-x="1028" 
d="M96 -293l103 152q166 -111 306 -111q129 0 203.5 44.5t74.5 110.5q0 130 -188 130q-32 0 -116 -16t-131 -16q-228 0 -228 172q0 53 53.5 96t132.5 62q-226 106 -226 368q0 168 117 280t289 112q158 0 247 -65l95 114l124 -117l-114 -86q73 -95 73 -248q0 -162 -101 -272
t-265 -126l-157 -16q-28 -3 -75 -21.5t-47 -48.5q0 -41 98 -41q43 0 134 15.5t135 15.5q158 0 246.5 -75.5t88.5 -209.5q0 -148 -132.5 -239t-335.5 -91q-104 0 -219 37t-185 90zM499 938q-99 0 -161.5 -70t-62.5 -170q0 -112 60.5 -185.5t163.5 -73.5q101 0 158 71.5
t57 187.5q0 100 -61.5 170t-153.5 70z" />
    <glyph glyph-name="h" unicode="h" horiz-adv-x="1119" 
d="M795 0v673q0 120 -59 189t-166 69q-69 0 -138.5 -40.5t-106.5 -94.5v-796h-190v1510h190v-557q38 59 122.5 98.5t174.5 39.5q170 0 266.5 -112t96.5 -306v-673h-190z" />
    <glyph glyph-name="i" unicode="i" horiz-adv-x="584" 
d="M331 1476q49 0 83.5 -34.5t34.5 -82.5q0 -49 -34.5 -83.5t-83.5 -34.5q-48 0 -82.5 34.5t-34.5 83.5t34 83t83 34zM227 0v911h-147v160h337v-1071h-190z" />
    <glyph glyph-name="j" unicode="j" horiz-adv-x="751" 
d="M428 1476q49 0 83.5 -34.5t34.5 -82.5q0 -49 -34.5 -83.5t-83.5 -34.5t-83 34.5t-34 83.5t34 83t83 34zM18 -420v170q196 0 268.5 59.5t72.5 195.5v906h-213v160h403v-1062q0 -221 -130 -325t-401 -104z" />
    <glyph glyph-name="k" unicode="k" horiz-adv-x="1033" 
d="M827 0l-336 536l-166 -171v-365h-190v1510h190v-937l410 498h222l-343 -407l419 -664h-206z" />
    <glyph glyph-name="l" unicode="l" horiz-adv-x="604" 
d="M150 303v1207h190v-1175q0 -86 49.5 -135.5t129.5 -49.5v-170q-369 0 -369 323z" />
    <glyph glyph-name="m" unicode="m" horiz-adv-x="1700" 
d="M1375 0v678q0 253 -219 253q-69 0 -129 -42.5t-82 -96.5v-792h-190v761q0 79 -59.5 124.5t-157.5 45.5q-57 0 -121.5 -44t-91.5 -97v-790h-190v1071h124l63 -124q110 144 275 144q230 0 322 -143q32 61 119 102t179 41q166 0 257 -98.5t91 -276.5v-716h-190z" />
    <glyph glyph-name="n" unicode="n" horiz-adv-x="1119" 
d="M794 0v623q0 171 -51.5 239.5t-172.5 68.5q-65 0 -136 -39t-109 -96v-796h-190v1071h130l60 -138q94 158 307 158q352 0 352 -428v-663h-190z" />
    <glyph glyph-name="o" unicode="o" horiz-adv-x="1099" 
d="M65 538q0 248 133.5 400.5t351.5 152.5q230 0 357 -146.5t127 -406.5q0 -259 -130 -408.5t-354 -149.5q-229 0 -357 151t-128 407zM265 538q0 -403 285 -403q133 0 208.5 108t75.5 295q0 398 -284 398q-130 0 -207.5 -106t-77.5 -292z" />
    <glyph glyph-name="p" unicode="p" horiz-adv-x="1141" 
d="M325 59v-479h-190v1491h190v-88q108 108 261 108q228 0 355 -142t127 -416q0 -244 -128 -398.5t-370 -154.5q-68 0 -145.5 24t-99.5 55zM325 840v-624q18 -27 76 -51.5t113 -24.5q354 0 354 400q0 203 -84 297t-269 94q-40 0 -98 -28t-92 -63z" />
    <glyph glyph-name="q" unicode="q" horiz-adv-x="1141" 
d="M821 -420v483q-83 -83 -278 -83q-219 0 -343.5 146.5t-124.5 406.5q0 257 142.5 407.5t366.5 150.5q140 0 261 -101l51 81h115v-1491h-190zM821 849q-82 82 -205 82q-161 0 -251 -109t-90 -289q0 -186 90 -289.5t243 -103.5q137 0 213 70v639z" />
    <glyph glyph-name="r" unicode="r" horiz-adv-x="796" 
d="M717 888q-62 43 -125 43q-101 0 -176.5 -93t-75.5 -224v-614h-190v1071h190v-171q104 191 309 191q51 0 147 -18z" />
    <glyph glyph-name="s" unicode="s" horiz-adv-x="829" 
d="M65 64l67 180q159 -104 256 -104q176 0 176 148q0 106 -170 182q-131 60 -176.5 91t-79 70.5t-50 84t-16.5 95.5q0 132 96 206t251 74q117 0 295 -74l-54 -176q-113 90 -227 90q-68 0 -114.5 -32t-46.5 -81q0 -103 117 -156l136 -62q125 -57 182 -130t57 -183
q0 -144 -101 -225.5t-280 -81.5q-169 0 -318 84z" />
    <glyph glyph-name="t" unicode="t" horiz-adv-x="812" 
d="M203 921h-124v150h124v224l190 73v-297h294v-150h-294v-532q0 -135 45.5 -192t146.5 -57q73 0 151 37l28 -167q-118 -30 -259 -30q-127 0 -214.5 94.5t-87.5 238.5v608z" />
    <glyph glyph-name="u" unicode="u" horiz-adv-x="1119" 
d="M315 1071v-683q0 -248 215 -248q94 0 172 54t103 125v752h190v-1071h-190v148q-32 -63 -128.5 -115.5t-188.5 -52.5q-176 0 -269.5 101t-93.5 287v703h190z" />
    <glyph glyph-name="v" unicode="v" horiz-adv-x="1003" 
d="M521 -20h-50l-459 1094h208l283 -750l289 750h199z" />
    <glyph glyph-name="w" unicode="w" horiz-adv-x="1524" 
d="M1125 -20h-50l-314 729l-313 -729h-50l-383 1094h203l229 -703l285 703h50l294 -703l246 703h187z" />
    <glyph glyph-name="x" unicode="x" horiz-adv-x="1026" 
d="M787 0l-292 390l-261 -390h-222l389 548l-357 523h214l240 -368l269 368h210l-389 -523l426 -548h-227z" />
    <glyph glyph-name="y" unicode="y" horiz-adv-x="1010" 
d="M544 -182q-37 -102 -155.5 -170t-264.5 -68v170q119 0 204 55.5t85 135.5q0 88 -31 173.5t-80 211.5l-290 745h194l315 -828l283 828h194z" />
    <glyph glyph-name="z" unicode="z" horiz-adv-x="972" 
d="M338 170h594v-170h-892v50l609 851h-599v170h876v-54z" />
    <glyph glyph-name="braceleft" unicode="{" horiz-adv-x="752" 
d="M568 -420q-171 0 -283 82t-112 216q0 70 37 214t37 219q0 198 -209 212v84q99 8 154 69.5t55 159.5q0 68 -37 193.5t-37 186.5q0 128 111.5 207t274.5 79h148v-133h-175q-164 0 -164 -184q0 -65 31.5 -167t31.5 -163q0 -158 -225 -288q105 -43 165 -112t60 -138
q0 -65 -31.5 -180t-31.5 -189q0 -228 263 -228h76v-140h-139z" />
    <glyph glyph-name="bar" unicode="|" 
d="M462 -276v1681h146v-1681h-146z" />
    <glyph glyph-name="braceright" unicode="}" horiz-adv-x="752" 
d="M38 -420v140h76q263 0 263 228q0 74 -31.5 189t-31.5 180q0 69 60 138t165 112q-225 130 -225 288q0 61 31.5 163t31.5 167q0 184 -164 184h-175v133h148q163 0 274.5 -79t111.5 -207q0 -61 -37 -186.5t-37 -193.5q0 -98 55 -159.5t154 -69.5v-84q-209 -14 -209 -212
q0 -74 37 -216.5t37 -216.5q0 -134 -112 -216t-283 -82h-139z" />
    <glyph glyph-name="asciitilde" unicode="~" 
d="M904 716q-53 -207 -192 -207q-79 0 -203 38.5t-152 38.5q-71 0 -108 -77h-91q14 84 64.5 145.5t119.5 61.5q87 0 202.5 -38.5t163.5 -38.5q81 0 108 77h88z" />
    <glyph glyph-name="uni00A0" unicode="&#xa0;" horiz-adv-x="617" 
 />
    <glyph glyph-name="exclamdown" unicode="&#xa1;" horiz-adv-x="752" 
d="M384 790q-62 0 -106 44t-44 106t44 106.5t106 44.5t106 -44.5t44 -106.5t-44 -106t-106 -44zM491 -11v-409h-226v410q0 196 77 699h71q78 -512 78 -700z" />
    <glyph glyph-name="cent" unicode="&#xa2;" 
d="M694 1217h102l-71 -248q109 -26 170 -75l-78 -113q-38 38 -130 56l-169 -590q53 -20 116 -20q102 0 206 79l60 -136q-122 -79 -303 -79q-62 0 -119 15l-74 -258h-115l88 300q-184 110 -184 379q0 202 115 325.5t316 127.5zM425 309l158 532q-101 -16 -165.5 -103
t-64.5 -211q0 -140 72 -218z" />
    <glyph glyph-name="sterling" unicode="&#xa3;" 
d="M140 856h82v148q0 233 112 360t295 127q205 0 293 -121l-94 -133q-64 86 -222 86q-184 0 -184 -311v-156h199v-149h-199v-527h223q152 0 234 113l142 -111q-102 -182 -445 -182h-444v139q90 30 90 129v439h-82v149z" />
    <glyph glyph-name="currency" unicode="&#xa4;" 
d="M932 246l-143 144q-121 -84 -253 -84q-131 0 -253 84l-143 -144l-84 88l143 140q-82 127 -82 252q0 124 82 251l-143 140l84 88l143 -143q122 83 253 83q132 0 253 -83l143 143l85 -88l-143 -140q82 -127 82 -251q0 -125 -82 -252l143 -140zM236 726q0 -125 87 -212.5
t212 -87.5q124 0 211.5 88t87.5 212q0 125 -87 212t-212 87t-212 -87t-87 -212z" />
    <glyph glyph-name="yen" unicode="&#xa5;" horiz-adv-x="1168" 
d="M932 475h-254v-475h-200v475h-243v131h243v50l-439 809h206l332 -640l368 640h197l-464 -809v-50h254v-131z" />
    <glyph glyph-name="brokenbar" unicode="&#xa6;" 
d="M472 694v723h146v-723h-146zM472 -276v723h146v-723h-146z" />
    <glyph glyph-name="section" unicode="&#xa7;" horiz-adv-x="929" 
d="M204 937q-119 68 -119 243q0 137 118 223.5t274 86.5q64 0 152.5 -29.5t136.5 -69.5l-62 -184q-108 103 -222 103q-187 0 -187 -127q0 -44 30.5 -83t187 -78t226 -109.5t69.5 -187.5q0 -98 -81 -182q123 -82 123 -221q0 -167 -108 -256t-292 -89q-222 0 -349 92l68 186
q109 -100 270 -100q201 0 201 147q0 135 -229 182q-136 28 -220 103t-84 153q0 136 97 197zM355 881q-64 -42 -64 -93q0 -31 29.5 -68.5t84.5 -57.5t191 -50q18 36 18 95q0 45 -24 77.5t-67.5 52t-69.5 22.5t-98 22z" />
    <glyph glyph-name="dieresis" unicode="&#xa8;" 
d="M302 1513q47 0 79.5 -32.5t32.5 -79.5t-32.5 -80t-79.5 -33t-80 33t-33 80t33 79.5t80 32.5zM774 1513q47 0 80 -32.5t33 -79.5t-33 -80t-80 -33t-79.5 33t-32.5 80t32.5 79.5t79.5 32.5z" />
    <glyph glyph-name="copyright" unicode="&#xa9;" horiz-adv-x="1460" 
d="M105 661q0 279 198 476.5t477 197.5t476.5 -197.5t197.5 -476.5t-197.5 -477t-476.5 -198t-477 198t-198 477zM1344 661q0 234 -165 399t-399 165t-399.5 -165t-165.5 -399t165.5 -399.5t399.5 -165.5t399 165.5t165 399.5zM1038 335q-100 -99 -254 -99
q-162 0 -256 116.5t-94 310.5q0 187 100 309.5t258 122.5q137 0 212 -44l-38 -97q-54 39 -172 39q-110 0 -175.5 -94t-65.5 -242q0 -142 68 -230t175 -88q117 0 179 82z" />
    <glyph glyph-name="ordfeminine" unicode="&#xaa;" horiz-adv-x="752" 
d="M513 902q-75 -78 -216 -78q-89 0 -149.5 50.5t-60.5 127.5q0 115 93.5 182t242.5 67h39l35 -1q-3 127 -138 127q-109 0 -175 -62l-58 108q91 68 219 68q288 0 288 -267v-225q0 -79 53 -107v-67q-139 0 -173 77zM498 1157h-72q-92 0 -148.5 -40t-56.5 -100q0 -38 35.5 -61
t87.5 -23q92 0 154 69v155z" />
    <glyph glyph-name="guillemotleft" unicode="&#xab;" 
d="M129 535v64l355 244v-125l-212 -157l212 -138v-125zM528 535v64l355 244v-125l-212 -157l212 -138v-125z" />
    <glyph glyph-name="logicalnot" unicode="&#xac;" 
d="M960 886v-486h-141v345h-697v141h838z" />
    <glyph glyph-name="uni00AD" unicode="&#xad;" horiz-adv-x="752" 
d="M159 506v175h428v-175h-428z" />
    <glyph glyph-name="registered" unicode="&#xae;" horiz-adv-x="1460" 
d="M105 661q0 279 198 476.5t477 197.5t476.5 -197.5t197.5 -476.5t-197.5 -477t-476.5 -198t-477 198t-198 477zM1344 661q0 234 -165 399t-399 165t-399.5 -165t-165.5 -399t165.5 -399.5t399.5 -165.5t399 165.5t165 399.5zM990 254l-211 357h-120v-357h-119v831h213
q300 0 300 -230q0 -160 -161 -226l227 -375h-129zM659 983v-276q15 -2 78 -2q116 0 156 29.5t40 112.5q0 137 -180 137h-47z" />
    <glyph glyph-name="macron" unicode="&#xaf;" 
d="M-8 1546v129h1085v-129h-1085z" />
    <glyph glyph-name="degree" unicode="&#xb0;" 
d="M508 1072q-88 0 -150 61.5t-62 148.5t62 148t150 61t149.5 -61t61.5 -148t-62 -148.5t-149 -61.5zM508 1421q-57 0 -98 -41t-41 -98t41 -98t98 -41t98 41t41 98t-41 98t-98 41z" />
    <glyph glyph-name="plusminus" unicode="&#xb1;" 
d="M611 706h349v-141h-349v-345h-141v345h-348v141h348v343h141v-343zM960 121v-141h-838v141h838z" />
    <glyph glyph-name="uni00B2" unicode="&#xb2;" horiz-adv-x="924" 
d="M184 595v24l266 414q86 134 86 223q0 122 -128 122q-107 0 -169 -124l-77 63q26 74 93 123.5t147 49.5q264 0 264 -224q0 -120 -93 -266l-183 -287h334v-118h-540z" />
    <glyph glyph-name="uni00B3" unicode="&#xb3;" horiz-adv-x="929" 
d="M185 657l59 102q49 -54 148 -54q163 0 163 142q0 73 -46 118t-128 45h-10v102h6q148 0 148 139q0 119 -139 119q-85 0 -124 -44l-54 91q56 73 187 73q116 0 188 -62.5t72 -157.5q0 -73 -39.5 -128.5t-95.5 -76.5q165 -54 165 -227q0 -253 -295 -253q-129 0 -205 72z" />
    <glyph glyph-name="acute" unicode="&#xb4;" 
d="M744 1618l-226 -333h-140l169 333h197z" />
    <glyph glyph-name="mu" unicode="&#xb5;" horiz-adv-x="1119" 
d="M325 18v-438h-190v1491h190v-623q0 -302 235 -302q84 0 148 43.5t87 105.5v776h190v-1071h-190v148q-34 -75 -112 -121.5t-175 -46.5q-108 0 -183 38z" />
    <glyph glyph-name="paragraph" unicode="&#xb6;" 
d="M778 -250v1616h-158v-1616h-154v893q-348 0 -348 434q0 176 81 294t226 118h507v-1739h-154z" />
    <glyph glyph-name="periodcentered" unicode="&#xb7;" horiz-adv-x="752" 
d="M355 801q62 0 106 -44t44 -106t-44 -106.5t-106 -44.5t-106 44.5t-44 106.5t44 106t106 44z" />
    <glyph glyph-name="cedilla" unicode="&#xb8;" 
d="M355 -455l-24 99q78 0 130 27t52 75q0 74 -90 74v119q99 0 154 -56t55 -137q0 -94 -73 -147.5t-204 -53.5z" />
    <glyph glyph-name="uni00B9" unicode="&#xb9;" horiz-adv-x="924" 
d="M439 595v674l-188 -112v113q197 99 282 208h36v-883h-130z" />
    <glyph glyph-name="ordmasculine" unicode="&#xba;" horiz-adv-x="752" 
d="M66 1159q0 148 86 240t227 92q149 0 230.5 -89t81.5 -243q0 -153 -82.5 -244t-229.5 -91t-230 90.5t-83 244.5zM207 1159q0 -221 172 -221q171 0 171 221q0 218 -171 218q-172 0 -172 -218z" />
    <glyph glyph-name="guillemotright" unicode="&#xbb;" 
d="M524 535l-355 -237v125l212 138l-212 157v125l355 -244v-64zM923 535l-355 -237v125l212 138l-212 157v125l355 -244v-64z" />
    <glyph glyph-name="onequarter" unicode="&#xbc;" horiz-adv-x="1668" 
d="M349 -35h-128l974 1526h126zM259 595v664l-178 -102v113q197 99 282 208h36v-883h-140zM1400 210v-210h-130v210h-404v68l492 605h42v-571h89v-102h-89zM1270 623l-252 -311h252v311z" />
    <glyph glyph-name="onehalf" unicode="&#xbd;" horiz-adv-x="1668" 
d="M336 -35h-128l974 1526h126zM289 595v674l-188 -112v113q197 99 282 208h36v-883h-130zM1024 0v24l266 414q86 134 86 223q0 122 -128 122q-107 0 -169 -124l-77 63q26 74 93 123.5t147 49.5q264 0 264 -224q0 -120 -93 -266l-183 -287h334v-118h-540z" />
    <glyph glyph-name="threequarters" unicode="&#xbe;" horiz-adv-x="1668" 
d="M429 -35h-128l974 1526h126zM125 657l59 102q49 -54 148 -54q163 0 163 142q0 73 -46 118t-128 45h-10v102h6q148 0 148 139q0 119 -139 119q-85 0 -124 -44l-54 91q56 73 187 73q116 0 188 -62.5t72 -157.5q0 -73 -39.5 -128.5t-95.5 -76.5q165 -54 165 -227
q0 -253 -295 -253q-129 0 -205 72zM1430 210v-210h-130v210h-404v68l492 605h42v-571h89v-102h-89zM1300 623l-252 -311h252v311z" />
    <glyph glyph-name="questiondown" unicode="&#xbf;" horiz-adv-x="752" 
d="M406 790q-62 0 -106 44t-44 106t44 106.5t106 44.5t106 -44.5t44 -106.5t-44 -106t-106 -44zM364 642h132q34 -95 34 -137q0 -72 -26.5 -147t-120 -179.5t-125.5 -160.5t-32 -109q0 -176 213 -176q102 0 178 73l73 -143q-101 -83 -301 -83q-150 0 -249.5 85t-99.5 227
q0 72 25.5 138.5t78.5 122.5l146 156q88 108 88 242q0 21 -14 91z" />
    <glyph glyph-name="Agrave" unicode="&#xc0;" horiz-adv-x="1208" 
d="M982 0l-101 309h-545l-108 -309h-224l595 1485h53l552 -1485h-222zM616 1101l-227 -645h435zM578 1585l-226 333h197l169 -333h-140z" />
    <glyph glyph-name="Aacute" unicode="&#xc1;" horiz-adv-x="1208" 
d="M982 0l-101 309h-545l-108 -309h-224l595 1485h53l552 -1485h-222zM616 1101l-227 -645h435zM859 1918l-226 -333h-140l169 333h197z" />
    <glyph glyph-name="Acircumflex" unicode="&#xc2;" horiz-adv-x="1208" 
d="M982 0l-101 309h-545l-108 -309h-224l595 1485h53l552 -1485h-222zM616 1101l-227 -645h435zM778 1585l-163 189l-178 -189h-172l298 338h107l305 -338h-197z" />
    <glyph glyph-name="Atilde" unicode="&#xc3;" horiz-adv-x="1208" 
d="M982 0l-101 309h-545l-108 -309h-224l595 1485h53l552 -1485h-222zM616 1101l-227 -645h435zM932 1792q-53 -207 -192 -207q-63 0 -138.5 38.5t-106.5 38.5q-71 0 -108 -77h-91q14 84 64.5 145.5t119.5 61.5q82 0 151.5 -38.5t104.5 -38.5q81 0 108 77h88z" />
    <glyph glyph-name="Adieresis" unicode="&#xc4;" horiz-adv-x="1208" 
d="M982 0l-101 309h-545l-108 -309h-224l595 1485h53l552 -1485h-222zM616 1101l-227 -645h435zM386 1813q47 0 79.5 -32.5t32.5 -79.5t-32.5 -80t-79.5 -33t-80 33t-33 80t33 79.5t80 32.5zM858 1813q47 0 80 -32.5t33 -79.5t-33 -80t-80 -33t-79.5 33t-32.5 80t32.5 79.5
t79.5 32.5z" />
    <glyph glyph-name="Aring" unicode="&#xc5;" horiz-adv-x="1208" 
d="M683 1402l521 -1402h-222l-101 309h-549l-104 -309h-224l562 1404q-66 20 -108.5 75.5t-42.5 125.5q0 87 62 148t150 61t149.5 -61t61.5 -148q0 -72 -43.5 -128.5t-111.5 -74.5zM627 1505q42 0 71.5 29.5t29.5 70.5t-29.5 70t-71.5 29t-72 -29t-30 -70t30 -70.5t72 -29.5
zM616 1101l-227 -645h435z" />
    <glyph glyph-name="AE" unicode="&#xc6;" horiz-adv-x="1775" 
d="M828 307h-448l-139 -307h-224l705 1465h981v-180h-675v-407h484v-170h-484v-528h664v-180h-864v307zM828 1285l-384 -829h384v829z" />
    <glyph glyph-name="Ccedilla" unicode="&#xc7;" horiz-adv-x="1225" 
d="M1085 1411l-67 -171q-96 70 -302 70q-193 0 -309.5 -166t-116.5 -428q0 -250 119.5 -405.5t308.5 -155.5q206 0 317 146l110 -153q-174 -173 -448 -173q-287 0 -452 207t-165 546q0 328 176 545t455 217q239 0 374 -79zM467 -455l-24 99q78 0 130 27t52 75q0 74 -90 74
v119q99 0 154 -56t55 -137q0 -94 -73 -147.5t-204 -53.5z" />
    <glyph glyph-name="Egrave" unicode="&#xc8;" horiz-adv-x="1097" 
d="M350 1285v-407h484v-170h-484v-528h664v-180h-864v1465h875v-180h-675zM592 1585l-226 333h197l169 -333h-140z" />
    <glyph glyph-name="Eacute" unicode="&#xc9;" horiz-adv-x="1097" 
d="M350 1285v-407h484v-170h-484v-528h664v-180h-864v1465h875v-180h-675zM802 1918l-226 -333h-140l169 333h197z" />
    <glyph glyph-name="Ecircumflex" unicode="&#xca;" horiz-adv-x="1097" 
d="M350 1285v-407h484v-170h-484v-528h664v-180h-864v1465h875v-180h-675zM718 1585l-163 189l-178 -189h-172l298 338h107l305 -338h-197z" />
    <glyph glyph-name="Edieresis" unicode="&#xcb;" horiz-adv-x="1097" 
d="M350 1285v-407h484v-170h-484v-528h664v-180h-864v1465h875v-180h-675zM343 1813q47 0 79.5 -32.5t32.5 -79.5t-32.5 -80t-79.5 -33t-80 33t-33 80t33 79.5t80 32.5zM815 1813q47 0 80 -32.5t33 -79.5t-33 -80t-80 -33t-79.5 33t-32.5 80t32.5 79.5t79.5 32.5z" />
    <glyph glyph-name="Igrave" unicode="&#xcc;" horiz-adv-x="570" 
d="M185 0v1465h200v-1465h-200zM329 1585l-226 333h197l169 -333h-140z" />
    <glyph glyph-name="Iacute" unicode="&#xcd;" horiz-adv-x="570" 
d="M185 0v1465h200v-1465h-200zM577 1918l-226 -333h-140l169 333h197z" />
    <glyph glyph-name="Icircumflex" unicode="&#xce;" horiz-adv-x="570" 
d="M185 0v1465h200v-1465h-200zM433 1585l-163 189l-178 -189h-172l298 338h107l305 -338h-197z" />
    <glyph glyph-name="Idieresis" unicode="&#xcf;" horiz-adv-x="570" 
d="M185 0v1465h200v-1465h-200zM82 1813q47 0 79.5 -32.5t32.5 -79.5t-32.5 -80t-79.5 -33t-80 33t-33 80t33 79.5t80 32.5zM554 1813q47 0 80 -32.5t33 -79.5t-33 -80t-80 -33t-79.5 33t-32.5 80t32.5 79.5t79.5 32.5z" />
    <glyph glyph-name="Eth" unicode="&#xd0;" horiz-adv-x="1256" 
d="M15 691v160h135v614q282 10 361 10q307 0 486 -186.5t179 -496.5q0 -792 -731 -792h-295v691h-135zM350 851h149v-160h-149v-501q67 -10 166 -10q210 0 330 157.5t120 437.5q0 520 -467 520q-28 0 -149 -10v-434z" />
    <glyph glyph-name="Ntilde" unicode="&#xd1;" horiz-adv-x="1307" 
d="M1097 -20l-757 1071v-1051h-190v1465h80l737 -1013v1013h190v-1485h-60zM930 1792q-53 -207 -192 -207q-63 0 -138.5 38.5t-106.5 38.5q-71 0 -108 -77h-91q14 84 64.5 145.5t119.5 61.5q82 0 151.5 -38.5t104.5 -38.5q81 0 108 77h88z" />
    <glyph glyph-name="Ograve" unicode="&#xd2;" horiz-adv-x="1380" 
d="M80 745q0 318 159.5 532t430.5 214q305 0 467.5 -197t162.5 -549q0 -361 -163 -565.5t-467 -204.5q-277 0 -433.5 216t-156.5 554zM290 745q0 -252 99.5 -421t280.5 -169q205 0 312.5 155t107.5 435q0 566 -420 566q-186 0 -283 -152t-97 -414zM718 1585l-226 333h197
l169 -333h-140z" />
    <glyph glyph-name="Oacute" unicode="&#xd3;" horiz-adv-x="1380" 
d="M80 745q0 318 159.5 532t430.5 214q305 0 467.5 -197t162.5 -549q0 -361 -163 -565.5t-467 -204.5q-277 0 -433.5 216t-156.5 554zM290 745q0 -252 99.5 -421t280.5 -169q205 0 312.5 155t107.5 435q0 566 -420 566q-186 0 -283 -152t-97 -414zM889 1918l-226 -333h-140
l169 333h197z" />
    <glyph glyph-name="Ocircumflex" unicode="&#xd4;" horiz-adv-x="1380" 
d="M80 745q0 318 159.5 532t430.5 214q305 0 467.5 -197t162.5 -549q0 -361 -163 -565.5t-467 -204.5q-277 0 -433.5 216t-156.5 554zM290 745q0 -252 99.5 -421t280.5 -169q205 0 312.5 155t107.5 435q0 566 -420 566q-186 0 -283 -152t-97 -414zM828 1585l-163 189
l-178 -189h-172l298 338h107l305 -338h-197z" />
    <glyph glyph-name="Otilde" unicode="&#xd5;" horiz-adv-x="1380" 
d="M80 745q0 318 159.5 532t430.5 214q305 0 467.5 -197t162.5 -549q0 -361 -163 -565.5t-467 -204.5q-277 0 -433.5 216t-156.5 554zM290 745q0 -252 99.5 -421t280.5 -169q205 0 312.5 155t107.5 435q0 566 -420 566q-186 0 -283 -152t-97 -414zM1000 1792
q-53 -207 -192 -207q-63 0 -138.5 38.5t-106.5 38.5q-71 0 -108 -77h-91q14 84 64.5 145.5t119.5 61.5q82 0 151.5 -38.5t104.5 -38.5q81 0 108 77h88z" />
    <glyph glyph-name="Odieresis" unicode="&#xd6;" horiz-adv-x="1380" 
d="M80 745q0 318 159.5 532t430.5 214q305 0 467.5 -197t162.5 -549q0 -361 -163 -565.5t-467 -204.5q-277 0 -433.5 216t-156.5 554zM290 745q0 -252 99.5 -421t280.5 -169q205 0 312.5 155t107.5 435q0 566 -420 566q-186 0 -283 -152t-97 -414zM450 1813q47 0 79.5 -32.5
t32.5 -79.5t-32.5 -80t-79.5 -33t-80 33t-33 80t33 79.5t80 32.5zM922 1813q47 0 80 -32.5t33 -79.5t-33 -80t-80 -33t-79.5 33t-32.5 80t32.5 79.5t79.5 32.5z" />
    <glyph glyph-name="multiply" unicode="&#xd7;" 
d="M544 728l317 317l100 -99l-317 -317l314 -315l-100 -100l-314 315l-317 -317l-100 99l317 317l-321 321l100 100z" />
    <glyph glyph-name="Oslash" unicode="&#xd8;" horiz-adv-x="1345" 
d="M350 66l-67 -91h-216l160 211q-160 214 -160 559q0 318 159.5 532t430.5 214q214 0 361 -100l67 100h202l-144 -220q144 -194 144 -526q0 -361 -163 -565.5t-467 -204.5q-176 0 -307 91zM913 1229q-99 82 -256 82q-186 0 -283 -152t-97 -414q0 -217 77 -378zM1019 1083
l-562 -856q84 -72 200 -72q206 0 313 156t107 434q0 205 -58 338z" />
    <glyph glyph-name="Ugrave" unicode="&#xd9;" horiz-adv-x="1328" 
d="M150 1465h200v-1003q0 -134 85 -220.5t225 -86.5q148 0 233 84t85 228v998h200v-1019q0 -222 -138.5 -346.5t-377.5 -124.5q-246 0 -379 122t-133 350v1018zM659 1585l-226 333h197l169 -333h-140z" />
    <glyph glyph-name="Uacute" unicode="&#xda;" horiz-adv-x="1328" 
d="M150 1465h200v-1003q0 -134 85 -220.5t225 -86.5q148 0 233 84t85 228v998h200v-1019q0 -222 -138.5 -346.5t-377.5 -124.5q-246 0 -379 122t-133 350v1018zM854 1918l-226 -333h-140l169 333h197z" />
    <glyph glyph-name="Ucircumflex" unicode="&#xdb;" horiz-adv-x="1328" 
d="M150 1465h200v-1003q0 -134 85 -220.5t225 -86.5q148 0 233 84t85 228v998h200v-1019q0 -222 -138.5 -346.5t-377.5 -124.5q-246 0 -379 122t-133 350v1018zM792 1585l-163 189l-178 -189h-172l298 338h107l305 -338h-197z" />
    <glyph glyph-name="Udieresis" unicode="&#xdc;" horiz-adv-x="1328" 
d="M150 1465h200v-1003q0 -134 85 -220.5t225 -86.5q148 0 233 84t85 228v998h200v-1019q0 -222 -138.5 -346.5t-377.5 -124.5q-246 0 -379 122t-133 350v1018zM402 1813q47 0 79.5 -32.5t32.5 -79.5t-32.5 -80t-79.5 -33t-80 33t-33 80t33 79.5t80 32.5zM874 1813
q47 0 80 -32.5t33 -79.5t-33 -80t-80 -33t-79.5 33t-32.5 80t32.5 79.5t79.5 32.5z" />
    <glyph glyph-name="Yacute" unicode="&#xdd;" horiz-adv-x="1168" 
d="M685 656v-656h-200v656l-472 809h206l365 -640l365 640h206zM819 1918l-226 -333h-140l169 333h197z" />
    <glyph glyph-name="Thorn" unicode="&#xde;" horiz-adv-x="1138" 
d="M499 314h-148v-314h-201v1465h201v-190h74q638 0 638 -447q0 -245 -148.5 -379.5t-415.5 -134.5zM460 1095h-109v-601h134q372 0 372 313q0 150 -92 219t-305 69z" />
    <glyph glyph-name="germandbls" unicode="&#xdf;" horiz-adv-x="1119" 
d="M522 3l36 151l56 -9q18 -3 59.5 5.5t72.5 30.5t51.5 57.5t31 84t10.5 110.5q0 83 -29.5 145t-57.5 85.5t-152 125.5q-84 68 -84 146q0 22 50.5 65t76.5 81.5t26 96.5q0 162 -169 162q-96 0 -135.5 -75t-39.5 -249v-1016h-190v1115q0 184 92 289.5t247 105.5
q176 0 273 -75t97 -203t-95 -237q-33 -38 -33 -50q0 -21 13 -32t79 -45q231 -120 231 -422q0 -219 -97 -342.5t-279 -123.5q-76 0 -141 23z" />
    <glyph glyph-name="agrave" unicode="&#xe0;" horiz-adv-x="1076" 
d="M740 123q-114 -143 -349 -143q-126 0 -218.5 91.5t-92.5 227.5q0 163 142.5 275.5t363.5 112.5q60 0 136 -26q0 260 -232 260q-178 0 -274 -96l-80 159q54 44 149.5 75.5t182.5 31.5q233 0 338.5 -106t105.5 -337v-384q0 -141 84 -188v-95q-116 0 -173.5 33t-82.5 109z
M722 526q-90 20 -126 20q-144 0 -235 -74t-91 -175q0 -167 197 -167q144 0 255 137v259zM505 1285l-226 333h197l169 -333h-140z" />
    <glyph glyph-name="aacute" unicode="&#xe1;" horiz-adv-x="1076" 
d="M740 123q-114 -143 -349 -143q-126 0 -218.5 91.5t-92.5 227.5q0 163 142.5 275.5t363.5 112.5q60 0 136 -26q0 260 -232 260q-178 0 -274 -96l-80 159q54 44 149.5 75.5t182.5 31.5q233 0 338.5 -106t105.5 -337v-384q0 -141 84 -188v-95q-116 0 -173.5 33t-82.5 109z
M722 526q-90 20 -126 20q-144 0 -235 -74t-91 -175q0 -167 197 -167q144 0 255 137v259zM765 1618l-226 -333h-140l169 333h197z" />
    <glyph glyph-name="acircumflex" unicode="&#xe2;" horiz-adv-x="1076" 
d="M740 123q-114 -143 -349 -143q-126 0 -218.5 91.5t-92.5 227.5q0 163 142.5 275.5t363.5 112.5q60 0 136 -26q0 260 -232 260q-178 0 -274 -96l-80 159q54 44 149.5 75.5t182.5 31.5q233 0 338.5 -106t105.5 -337v-384q0 -141 84 -188v-95q-116 0 -173.5 33t-82.5 109z
M722 526q-90 20 -126 20q-144 0 -235 -74t-91 -175q0 -167 197 -167q144 0 255 137v259zM680 1285l-163 189l-178 -189h-172l298 338h107l305 -338h-197z" />
    <glyph glyph-name="atilde" unicode="&#xe3;" horiz-adv-x="1076" 
d="M740 123q-114 -143 -349 -143q-126 0 -218.5 91.5t-92.5 227.5q0 163 142.5 275.5t363.5 112.5q60 0 136 -26q0 260 -232 260q-178 0 -274 -96l-80 159q54 44 149.5 75.5t182.5 31.5q233 0 338.5 -106t105.5 -337v-384q0 -141 84 -188v-95q-116 0 -173.5 33t-82.5 109z
M722 526q-90 20 -126 20q-144 0 -235 -74t-91 -175q0 -167 197 -167q144 0 255 137v259zM833 1492q-53 -207 -192 -207q-63 0 -138.5 38.5t-106.5 38.5q-71 0 -108 -77h-91q14 84 64.5 145.5t119.5 61.5q82 0 151.5 -38.5t104.5 -38.5q81 0 108 77h88z" />
    <glyph glyph-name="adieresis" unicode="&#xe4;" horiz-adv-x="1076" 
d="M740 123q-114 -143 -349 -143q-126 0 -218.5 91.5t-92.5 227.5q0 163 142.5 275.5t363.5 112.5q60 0 136 -26q0 260 -232 260q-178 0 -274 -96l-80 159q54 44 149.5 75.5t182.5 31.5q233 0 338.5 -106t105.5 -337v-384q0 -141 84 -188v-95q-116 0 -173.5 33t-82.5 109z
M722 526q-90 20 -126 20q-144 0 -235 -74t-91 -175q0 -167 197 -167q144 0 255 137v259zM276 1513q47 0 79.5 -32.5t32.5 -79.5t-32.5 -80t-79.5 -33t-80 33t-33 80t33 79.5t80 32.5zM748 1513q47 0 80 -32.5t33 -79.5t-33 -80t-80 -33t-79.5 33t-32.5 80t32.5 79.5
t79.5 32.5z" />
    <glyph glyph-name="aring" unicode="&#xe5;" horiz-adv-x="1076" 
d="M740 123q-114 -143 -349 -143q-126 0 -218.5 91.5t-92.5 227.5q0 163 142.5 275.5t363.5 112.5q60 0 136 -26q0 260 -232 260q-178 0 -274 -96l-80 159q54 44 149.5 75.5t182.5 31.5q233 0 338.5 -106t105.5 -337v-384q0 -141 84 -188v-95q-116 0 -173.5 33t-82.5 109z
M722 526q-90 20 -126 20q-144 0 -235 -74t-91 -175q0 -167 197 -167q144 0 255 137v259zM514 1704q88 0 149.5 -61t61.5 -148t-62 -148.5t-149 -61.5q-88 0 -150 61.5t-62 148.5t62 148t150 61zM514 1395q42 0 71.5 29.5t29.5 70.5t-29.5 70t-71.5 29t-72 -29t-30 -70
t30 -70.5t72 -29.5z" />
    <glyph glyph-name="ae" unicode="&#xe6;" horiz-adv-x="1788" 
d="M1696 517h-762q0 -170 89 -273.5t238 -103.5q175 0 274 109l80 -152q-78 -69 -169 -93t-222 -24q-170 0 -298 95q5 -50 11 -95h-161q-11 47 -35 143q-114 -143 -339 -143q-133 0 -227.5 87.5t-94.5 213.5q0 182 141.5 292t370.5 110q56 0 132 -22q0 260 -233 260
q-178 0 -274 -96l-80 159q54 44 149.5 75.5t182.5 31.5q293 0 389 -173q148 173 368 173q222 0 353.5 -133t131.5 -345q0 -46 -15 -96zM934 655h598q0 123 -84.5 199.5t-222.5 76.5q-123 0 -207 -90t-84 -186zM724 526q-60 20 -127 20q-142 0 -234.5 -79.5t-92.5 -169.5
q0 -167 198 -167q145 0 256 137v259z" />
    <glyph glyph-name="ccedilla" unicode="&#xe7;" horiz-adv-x="1014" 
d="M943 984l-94 -134q-29 29 -102.5 55t-144.5 26q-155 0 -246 -108.5t-91 -297.5q0 -188 93 -286.5t258 -98.5q128 0 258 99l75 -160q-153 -99 -379 -99q-219 0 -362 147t-143 398q0 256 148.5 411t406.5 155q83 0 180 -35t143 -72zM407 -455l-24 99q78 0 130 27t52 75
q0 74 -90 74v119q99 0 154 -56t55 -137q0 -94 -73 -147.5t-204 -53.5z" />
    <glyph glyph-name="egrave" unicode="&#xe8;" horiz-adv-x="1117" 
d="M1037 517h-772q0 -188 103 -289q91 -88 234 -88q163 0 272 95l80 -137q-44 -44 -135 -76q-114 -42 -254 -42q-202 0 -343 137q-157 151 -157 406q0 265 161 425q144 143 341 143q229 0 359 -129q126 -124 126 -329q0 -63 -15 -116zM576 931q-127 0 -213 -82
q-82 -78 -93 -194h593q0 115 -72 192q-79 84 -215 84zM587 1285l-226 333h197l169 -333h-140z" />
    <glyph glyph-name="eacute" unicode="&#xe9;" horiz-adv-x="1117" 
d="M1037 517h-772q0 -188 103 -289q91 -88 234 -88q163 0 272 95l80 -137q-44 -44 -135 -76q-114 -42 -254 -42q-202 0 -343 137q-157 151 -157 406q0 265 161 425q144 143 341 143q229 0 359 -129q126 -124 126 -329q0 -63 -15 -116zM576 931q-127 0 -213 -82
q-82 -78 -93 -194h593q0 115 -72 192q-79 84 -215 84zM824 1618l-226 -333h-140l169 333h197z" />
    <glyph glyph-name="ecircumflex" unicode="&#xea;" horiz-adv-x="1117" 
d="M1037 517h-772q0 -188 103 -289q91 -88 234 -88q163 0 272 95l80 -137q-44 -44 -135 -76q-114 -42 -254 -42q-202 0 -343 137q-157 151 -157 406q0 265 161 425q144 143 341 143q229 0 359 -129q126 -124 126 -329q0 -63 -15 -116zM576 931q-127 0 -213 -82
q-82 -78 -93 -194h593q0 115 -72 192q-79 84 -215 84zM729 1285l-163 189l-178 -189h-172l298 338h107l305 -338h-197z" />
    <glyph glyph-name="edieresis" unicode="&#xeb;" horiz-adv-x="1117" 
d="M1037 517h-772q0 -188 103 -289q91 -88 234 -88q163 0 272 95l80 -137q-44 -44 -135 -76q-114 -42 -254 -42q-202 0 -343 137q-157 151 -157 406q0 265 161 425q144 143 341 143q229 0 359 -129q126 -124 126 -329q0 -63 -15 -116zM576 931q-127 0 -213 -82
q-82 -78 -93 -194h593q0 115 -72 192q-79 84 -215 84zM327 1513q47 0 79.5 -32.5t32.5 -79.5t-32.5 -80t-79.5 -33t-80 33t-33 80t33 79.5t80 32.5zM799 1513q47 0 80 -32.5t33 -79.5t-33 -80t-80 -33t-79.5 33t-32.5 80t32.5 79.5t79.5 32.5z" />
    <glyph glyph-name="igrave" unicode="&#xec;" horiz-adv-x="584" 
d="M227 0v911h-147v160h340v-1071h-193zM288 1285l-226 333h197l169 -333h-140z" />
    <glyph glyph-name="iacute" unicode="&#xed;" horiz-adv-x="584" 
d="M227 0v911h-147v160h340v-1071h-193zM540 1618l-226 -333h-140l169 333h197z" />
    <glyph glyph-name="icircumflex" unicode="&#xee;" horiz-adv-x="584" 
d="M227 0v911h-147v160h340v-1071h-193zM443 1285l-163 189l-178 -189h-172l298 338h107l305 -338h-197z" />
    <glyph glyph-name="idieresis" unicode="&#xef;" horiz-adv-x="584" 
d="M227 0v911h-147v160h340v-1071h-193zM53 1513q47 0 79.5 -32.5t32.5 -79.5t-32.5 -80t-79.5 -33t-80 33t-33 80t33 79.5t80 32.5zM525 1513q47 0 80 -32.5t33 -79.5t-33 -80t-80 -33t-79.5 33t-32.5 80t32.5 79.5t79.5 32.5z" />
    <glyph glyph-name="eth" unicode="&#xf0;" horiz-adv-x="1125" 
d="M357 1252l159 84q-91 110 -176 174h251q29 -30 80 -92l173 92l46 -85l-159 -86q184 -283 241.5 -456.5t57.5 -344.5q0 -254 -128 -406t-356 -152q-229 0 -357 152t-128 406q0 243 131.5 398t353.5 155q77 0 146 -18q-64 112 -115 183l-174 -94zM251 538q0 -388 295 -388
q141 0 217.5 106t76.5 282q0 383 -294 383q-141 0 -218 -105t-77 -278z" />
    <glyph glyph-name="ntilde" unicode="&#xf1;" horiz-adv-x="1119" 
d="M794 0v623q0 171 -51.5 239.5t-172.5 68.5q-65 0 -136 -39t-109 -96v-796h-190v1071h130l60 -138q94 158 307 158q352 0 352 -428v-663h-190zM850 1492q-53 -207 -192 -207q-63 0 -138.5 38.5t-106.5 38.5q-71 0 -108 -77h-91q14 84 64.5 145.5t119.5 61.5
q82 0 151.5 -38.5t104.5 -38.5q81 0 108 77h88z" />
    <glyph glyph-name="ograve" unicode="&#xf2;" horiz-adv-x="1099" 
d="M65 538q0 248 133.5 400.5t351.5 152.5q230 0 357 -146.5t127 -406.5q0 -259 -130 -408.5t-354 -149.5q-229 0 -357 151t-128 407zM265 538q0 -403 285 -403q133 0 208.5 108t75.5 295q0 398 -284 398q-130 0 -207.5 -106t-77.5 -292zM565 1285l-226 333h197l169 -333
h-140z" />
    <glyph glyph-name="oacute" unicode="&#xf3;" horiz-adv-x="1099" 
d="M65 538q0 248 133.5 400.5t351.5 152.5q230 0 357 -146.5t127 -406.5q0 -259 -130 -408.5t-354 -149.5q-229 0 -357 151t-128 407zM265 538q0 -403 285 -403q133 0 208.5 108t75.5 295q0 398 -284 398q-130 0 -207.5 -106t-77.5 -292zM774 1618l-226 -333h-140l169 333
h197z" />
    <glyph glyph-name="ocircumflex" unicode="&#xf4;" horiz-adv-x="1099" 
d="M65 538q0 248 133.5 400.5t351.5 152.5q230 0 357 -146.5t127 -406.5q0 -259 -130 -408.5t-354 -149.5q-229 0 -357 151t-128 407zM265 538q0 -403 285 -403q133 0 208.5 108t75.5 295q0 398 -284 398q-130 0 -207.5 -106t-77.5 -292zM709 1285l-163 189l-178 -189h-172
l298 338h107l305 -338h-197z" />
    <glyph glyph-name="otilde" unicode="&#xf5;" horiz-adv-x="1099" 
d="M65 538q0 248 133.5 400.5t351.5 152.5q230 0 357 -146.5t127 -406.5q0 -259 -130 -408.5t-354 -149.5q-229 0 -357 151t-128 407zM265 538q0 -403 285 -403q133 0 208.5 108t75.5 295q0 398 -284 398q-130 0 -207.5 -106t-77.5 -292zM880 1492q-53 -207 -192 -207
q-63 0 -138.5 38.5t-106.5 38.5q-71 0 -108 -77h-91q14 84 64.5 145.5t119.5 61.5q82 0 151.5 -38.5t104.5 -38.5q81 0 108 77h88z" />
    <glyph glyph-name="odieresis" unicode="&#xf6;" horiz-adv-x="1099" 
d="M65 538q0 248 133.5 400.5t351.5 152.5q230 0 357 -146.5t127 -406.5q0 -259 -130 -408.5t-354 -149.5q-229 0 -357 151t-128 407zM265 538q0 -403 285 -403q133 0 208.5 108t75.5 295q0 398 -284 398q-130 0 -207.5 -106t-77.5 -292zM328 1513q47 0 79.5 -32.5
t32.5 -79.5t-32.5 -80t-79.5 -33t-80 33t-33 80t33 79.5t80 32.5zM800 1513q47 0 80 -32.5t33 -79.5t-33 -80t-80 -33t-79.5 33t-32.5 80t32.5 79.5t79.5 32.5z" />
    <glyph glyph-name="divide" unicode="&#xf7;" 
d="M694 1000q0 -62 -44 -106.5t-106 -44.5t-106 44.5t-44 106.5t44 106t106 44t106 -44t44 -106zM960 705v-141h-838v141h838zM694 250q0 -62 -44 -106.5t-106 -44.5t-106 44.5t-44 106.5t44 106t106 44t106 -44t44 -106z" />
    <glyph glyph-name="oslash" unicode="&#xf8;" horiz-adv-x="1117" 
d="M270 58l-58 -78h-151l119 162q-119 149 -119 396q0 248 133.5 400.5t351.5 152.5q165 0 278 -76l56 76h150l-117 -159q117 -146 117 -394q0 -259 -130 -408.5t-354 -149.5q-162 0 -276 78zM295 297l424 575q-75 54 -173 54q-134 0 -214.5 -103t-80.5 -285q0 -148 44 -241
zM373 199q69 -64 173 -64q134 0 214 108.5t80 294.5q0 146 -43 237z" />
    <glyph glyph-name="ugrave" unicode="&#xf9;" horiz-adv-x="1119" 
d="M315 1071v-683q0 -248 215 -248q94 0 172 54t103 125v752h190v-1071h-190v148q-32 -63 -128.5 -115.5t-188.5 -52.5q-176 0 -269.5 101t-93.5 287v703h190zM547 1285l-226 333h197l169 -333h-140z" />
    <glyph glyph-name="uacute" unicode="&#xfa;" horiz-adv-x="1119" 
d="M315 1071v-683q0 -248 215 -248q94 0 172 54t103 125v752h190v-1071h-190v148q-32 -63 -128.5 -115.5t-188.5 -52.5q-176 0 -269.5 101t-93.5 287v703h190zM740 1618l-226 -333h-140l169 333h197z" />
    <glyph glyph-name="ucircumflex" unicode="&#xfb;" horiz-adv-x="1119" 
d="M315 1071v-683q0 -248 215 -248q94 0 172 54t103 125v752h190v-1071h-190v148q-32 -63 -128.5 -115.5t-188.5 -52.5q-176 0 -269.5 101t-93.5 287v703h190zM679 1285l-163 189l-178 -189h-172l298 338h107l305 -338h-197z" />
    <glyph glyph-name="udieresis" unicode="&#xfc;" horiz-adv-x="1119" 
d="M315 1071v-683q0 -248 215 -248q94 0 172 54t103 125v752h190v-1071h-190v148q-32 -63 -128.5 -115.5t-188.5 -52.5q-176 0 -269.5 101t-93.5 287v703h190zM294 1513q47 0 79.5 -32.5t32.5 -79.5t-32.5 -80t-79.5 -33t-80 33t-33 80t33 79.5t80 32.5zM766 1513
q47 0 80 -32.5t33 -79.5t-33 -80t-80 -33t-79.5 33t-32.5 80t32.5 79.5t79.5 32.5z" />
    <glyph glyph-name="yacute" unicode="&#xfd;" horiz-adv-x="1010" 
d="M544 -182q-37 -102 -155.5 -170t-264.5 -68v170q119 0 204 55.5t85 135.5q0 88 -31 173.5t-80 211.5l-290 745h194l315 -828l283 828h194zM755 1618l-226 -333h-140l169 333h197z" />
    <glyph glyph-name="thorn" unicode="&#xfe;" horiz-adv-x="1133" 
d="M325 59v-479h-190v1930h190v-527q108 108 261 108q228 0 355 -142t127 -416q0 -244 -128 -398.5t-370 -154.5q-166 0 -245 79zM325 830v-604q89 -76 189 -76q186 0 270 93.5t84 296.5q0 200 -83 290.5t-270 90.5q-40 0 -98 -28t-92 -63z" />
    <glyph glyph-name="ydieresis" unicode="&#xff;" horiz-adv-x="1010" 
d="M544 -182q-37 -102 -155.5 -170t-264.5 -68v170q119 0 204 55.5t85 135.5q0 88 -31 173.5t-80 211.5l-290 745h194l315 -828l283 828h194zM264 1513q47 0 79.5 -32.5t32.5 -79.5t-32.5 -80t-79.5 -33t-80 33t-33 80t33 79.5t80 32.5zM736 1513q47 0 80 -32.5t33 -79.5
t-33 -80t-80 -33t-79.5 33t-32.5 80t32.5 79.5t79.5 32.5z" />
    <glyph glyph-name="Amacron" unicode="&#x100;" horiz-adv-x="1208" 
d="M982 0l-101 309h-545l-108 -309h-224l595 1485h53l552 -1485h-222zM616 1101l-227 -645h435zM995 1726v-141h-738v141h738z" />
    <glyph glyph-name="amacron" unicode="&#x101;" horiz-adv-x="1076" 
d="M740 123q-114 -143 -349 -143q-126 0 -218.5 91.5t-92.5 227.5q0 163 142.5 275.5t363.5 112.5q60 0 136 -26q0 260 -232 260q-178 0 -274 -96l-80 159q54 44 149.5 75.5t182.5 31.5q233 0 338.5 -106t105.5 -337v-384q0 -141 84 -188v-95q-116 0 -173.5 33t-82.5 109z
M722 526q-90 20 -126 20q-144 0 -235 -74t-91 -175q0 -167 197 -167q144 0 255 137v259zM863 1426v-141h-738v141h738z" />
    <glyph glyph-name="Abreve" unicode="&#x102;" horiz-adv-x="1208" 
d="M982 0l-101 309h-545l-108 -309h-224l595 1485h53l552 -1485h-222zM616 1101l-227 -645h435zM954 1910q0 -118 -94 -221.5t-250 -103.5q-149 0 -234 94t-85 231h141q-3 -61 51 -116t127 -55q85 0 143 51.5t58 119.5h143z" />
    <glyph glyph-name="abreve" unicode="&#x103;" horiz-adv-x="1076" 
d="M740 123q-114 -143 -349 -143q-126 0 -218.5 91.5t-92.5 227.5q0 163 142.5 275.5t363.5 112.5q60 0 136 -26q0 260 -232 260q-178 0 -274 -96l-80 159q54 44 149.5 75.5t182.5 31.5q233 0 338.5 -106t105.5 -337v-384q0 -141 84 -188v-95q-116 0 -173.5 33t-82.5 109z
M722 526q-90 20 -126 20q-144 0 -235 -74t-91 -175q0 -167 197 -167q144 0 255 137v259zM850 1610q0 -118 -94 -221.5t-250 -103.5q-149 0 -234 94t-85 231h141q-3 -61 51 -116t127 -55q85 0 143 51.5t58 119.5h143z" />
    <glyph glyph-name="Aogonek" unicode="&#x104;" horiz-adv-x="1208" 
d="M1331 -338q-96 -35 -178 -35q-117 0 -194.5 69t-77.5 179q0 113 82 184l-82 250h-545l-108 -309h-224l595 1485h53l552 -1485h-65q-24 0 -58.5 -31t-34.5 -102q0 -40 33.5 -67t77.5 -27q54 0 107 31zM824 456l-208 645l-227 -645h435z" />
    <glyph glyph-name="aogonek" unicode="&#x105;" horiz-adv-x="1076" 
d="M1103 -196l67 -142q-96 -35 -178 -35q-117 0 -194.5 69t-77.5 179q0 94 61 172q-25 29 -41 76q-114 -143 -349 -143q-126 0 -218.5 91.5t-92.5 227.5q0 163 142.5 275.5t363.5 112.5q60 0 136 -26q0 260 -232 260q-178 0 -274 -96l-80 159q54 44 149.5 75.5t182.5 31.5
q233 0 338.5 -106t105.5 -337v-384q0 -141 84 -188v-95q-31 0 -47 1q-64 -37 -64 -115q0 -94 111 -94q54 0 107 31zM722 526q-90 20 -126 20q-144 0 -235 -74t-91 -175q0 -167 197 -167q144 0 255 137v259z" />
    <glyph glyph-name="Cacute" unicode="&#x106;" horiz-adv-x="1225" 
d="M1085 1411l-67 -171q-96 70 -302 70q-193 0 -309.5 -166t-116.5 -428q0 -250 119.5 -405.5t308.5 -155.5q206 0 317 146l110 -153q-174 -173 -448 -173q-287 0 -452 207t-165 546q0 328 176 545t455 217q239 0 374 -79zM954 1918l-226 -333h-140l169 333h197z" />
    <glyph glyph-name="cacute" unicode="&#x107;" horiz-adv-x="1014" 
d="M943 984l-94 -134q-29 29 -102.5 55t-144.5 26q-155 0 -246 -108.5t-91 -297.5q0 -188 93 -286.5t258 -98.5q128 0 258 99l75 -160q-153 -99 -379 -99q-219 0 -362 147t-143 398q0 256 148.5 411t406.5 155q83 0 180 -35t143 -72zM834 1618l-226 -333h-140l169 333h197z
" />
    <glyph glyph-name="Ccircumflex" unicode="&#x108;" horiz-adv-x="1225" 
d="M1085 1411l-67 -171q-96 70 -302 70q-193 0 -309.5 -166t-116.5 -428q0 -250 119.5 -405.5t308.5 -155.5q206 0 317 146l110 -153q-174 -173 -448 -173q-287 0 -452 207t-165 546q0 328 176 545t455 217q239 0 374 -79zM874 1585l-163 189l-178 -189h-172l298 338h107
l305 -338h-197z" />
    <glyph glyph-name="ccircumflex" unicode="&#x109;" horiz-adv-x="1014" 
d="M943 984l-94 -134q-29 29 -102.5 55t-144.5 26q-155 0 -246 -108.5t-91 -297.5q0 -188 93 -286.5t258 -98.5q128 0 258 99l75 -160q-153 -99 -379 -99q-219 0 -362 147t-143 398q0 256 148.5 411t406.5 155q83 0 180 -35t143 -72zM746 1285l-163 189l-178 -189h-172
l298 338h107l305 -338h-197z" />
    <glyph glyph-name="Cdotaccent" unicode="&#x10a;" horiz-adv-x="1225" 
d="M1085 1411l-67 -171q-96 70 -302 70q-193 0 -309.5 -166t-116.5 -428q0 -250 119.5 -405.5t308.5 -155.5q206 0 317 146l110 -153q-174 -173 -448 -173q-287 0 -452 207t-165 546q0 328 176 545t455 217q239 0 374 -79zM695 1820q49 0 83.5 -34.5t34.5 -82.5
q0 -49 -34.5 -83.5t-83.5 -34.5q-48 0 -82.5 34.5t-34.5 83.5t34 83t83 34z" />
    <glyph glyph-name="cdotaccent" unicode="&#x10b;" horiz-adv-x="1014" 
d="M943 984l-94 -134q-29 29 -102.5 55t-144.5 26q-155 0 -246 -108.5t-91 -297.5q0 -188 93 -286.5t258 -98.5q128 0 258 99l75 -160q-153 -99 -379 -99q-219 0 -362 147t-143 398q0 256 148.5 411t406.5 155q83 0 180 -35t143 -72zM575 1520q49 0 83.5 -34.5t34.5 -82.5
q0 -49 -34.5 -83.5t-83.5 -34.5q-48 0 -82.5 34.5t-34.5 83.5t34 83t83 34z" />
    <glyph glyph-name="Ccaron" unicode="&#x10c;" horiz-adv-x="1225" 
d="M1085 1411l-67 -171q-96 70 -302 70q-193 0 -309.5 -166t-116.5 -428q0 -250 119.5 -405.5t308.5 -155.5q206 0 317 146l110 -153q-174 -173 -448 -173q-287 0 -452 207t-165 546q0 328 176 545t455 217q239 0 374 -79zM1049 1919l-305 -334h-107l-298 338h172l178 -192
l163 188h197z" />
    <glyph glyph-name="ccaron" unicode="&#x10d;" horiz-adv-x="1014" 
d="M943 984l-94 -134q-29 29 -102.5 55t-144.5 26q-155 0 -246 -108.5t-91 -297.5q0 -188 93 -286.5t258 -98.5q128 0 258 99l75 -160q-153 -99 -379 -99q-219 0 -362 147t-143 398q0 256 148.5 411t406.5 155q83 0 180 -35t143 -72zM919 1619l-305 -334h-107l-298 338h172
l178 -192l163 188h197z" />
    <glyph glyph-name="Dcaron" unicode="&#x10e;" horiz-adv-x="1256" 
d="M446 0h-295v1465q282 10 361 10q307 0 486 -186.5t179 -496.5q0 -792 -731 -792zM351 1285v-1095q67 -10 166 -10q210 0 330 157.5t120 437.5q0 520 -467 520q-28 0 -149 -10zM940 1919l-305 -334h-107l-298 338h172l178 -192l163 188h197z" />
    <glyph glyph-name="dcaron" unicode="&#x10f;" horiz-adv-x="1416" 
d="M814 1v79q-99 -99 -288 -99q-201 0 -326 144t-125 384q0 241 144 411.5t343 170.5q166 0 252 -78v497h190v-1509h-190zM814 823q-72 108 -197 108q-153 0 -247.5 -114t-94.5 -290q0 -387 352 -387q45 0 108 28.5t79 60.5v594zM1236 1083l-47 63q72 58 81.5 80.5t9.5 44.5
q0 33 -34.5 66.5t-34.5 69.5q0 103 102 103q108 0 108 -124q0 -188 -185 -303z" />
    <glyph glyph-name="Dcroat" unicode="&#x110;" horiz-adv-x="1256" 
d="M15 691v160h135v614q282 10 361 10q307 0 486 -186.5t179 -496.5q0 -792 -731 -792h-295v691h-135zM350 851h149v-160h-149v-501q67 -10 166 -10q210 0 330 157.5t120 437.5q0 520 -467 520q-28 0 -149 -10v-434z" />
    <glyph glyph-name="dcroat" unicode="&#x111;" horiz-adv-x="1141" 
d="M1004 1h-190v79q-99 -99 -288 -99q-201 0 -326 144t-125 384q0 241 144 411.5t343 170.5q166 0 252 -78v178h-249v150h249v169h190v-169h119v-150h-119v-1190zM814 239v574q-72 108 -197 108q-156 0 -249 -110.5t-93 -283.5q0 -377 352 -377q58 0 122.5 35.5t64.5 53.5z
" />
    <glyph glyph-name="Emacron" unicode="&#x112;" horiz-adv-x="1097" 
d="M350 1285v-407h484v-170h-484v-528h664v-180h-864v1465h875v-180h-675zM956 1726v-141h-738v141h738z" />
    <glyph glyph-name="emacron" unicode="&#x113;" horiz-adv-x="1117" 
d="M1037 517h-772q0 -188 103 -289q91 -88 234 -88q163 0 272 95l80 -137q-44 -44 -135 -76q-114 -42 -254 -42q-202 0 -343 137q-157 151 -157 406q0 265 161 425q144 143 341 143q229 0 359 -129q126 -124 126 -329q0 -63 -15 -116zM576 931q-127 0 -213 -82
q-82 -78 -93 -194h593q0 115 -72 192q-79 84 -215 84zM936 1426v-141h-738v141h738z" />
    <glyph glyph-name="Ebreve" unicode="&#x114;" horiz-adv-x="1097" 
d="M350 1285v-407h484v-170h-484v-528h664v-180h-864v1465h875v-180h-675zM919 1910q0 -118 -94 -221.5t-250 -103.5q-149 0 -234 94t-85 231h141q-3 -61 51 -116t127 -55q85 0 143 51.5t58 119.5h143z" />
    <glyph glyph-name="ebreve" unicode="&#x115;" horiz-adv-x="1117" 
d="M1037 517h-772q0 -188 103 -289q91 -88 234 -88q163 0 272 95l80 -137q-44 -44 -135 -76q-114 -42 -254 -42q-202 0 -343 137q-157 151 -157 406q0 265 161 425q144 143 341 143q229 0 359 -129q126 -124 126 -329q0 -63 -15 -116zM576 931q-127 0 -213 -82
q-82 -78 -93 -194h593q0 115 -72 192q-79 84 -215 84zM910 1610q0 -118 -94 -221.5t-250 -103.5q-149 0 -234 94t-85 231h141q-3 -61 51 -116t127 -55q85 0 143 51.5t58 119.5h143z" />
    <glyph glyph-name="Edotaccent" unicode="&#x116;" horiz-adv-x="1097" 
d="M350 1285v-407h484v-170h-484v-528h664v-180h-864v1465h875v-180h-675zM587 1820q49 0 83.5 -34.5t34.5 -82.5q0 -49 -34.5 -83.5t-83.5 -34.5q-48 0 -82.5 34.5t-34.5 83.5t34 83t83 34z" />
    <glyph glyph-name="edotaccent" unicode="&#x117;" horiz-adv-x="1117" 
d="M1037 517h-772q0 -188 103 -289q91 -88 234 -88q163 0 272 95l80 -137q-44 -44 -135 -76q-114 -42 -254 -42q-202 0 -343 137q-157 151 -157 406q0 265 161 425q144 143 341 143q229 0 359 -129q126 -124 126 -329q0 -63 -15 -116zM576 931q-127 0 -213 -82
q-82 -78 -93 -194h593q0 115 -72 192q-79 84 -215 84zM557 1520q49 0 83.5 -34.5t34.5 -82.5q0 -49 -34.5 -83.5t-83.5 -34.5q-48 0 -82.5 34.5t-34.5 83.5t34 83t83 34z" />
    <glyph glyph-name="Eogonek" unicode="&#x118;" horiz-adv-x="1097" 
d="M976 -196l67 -142q-96 -35 -178 -35q-117 0 -194.5 69t-77.5 179q0 66 32 125h-475v1465h875v-180h-674v-407h483v-170h-483v-528h663v-180h-158q-4 0 -41.5 -23t-47 -50t-9.5 -60q0 -94 111 -94q54 0 107 31z" />
    <glyph glyph-name="eogonek" unicode="&#x119;" horiz-adv-x="1117" 
d="M865 -338q-96 -35 -178 -35q-117 0 -194.5 69t-77.5 179q0 46 22 121q-172 43 -272 182.5t-100 344.5q0 254 147.5 411t354.5 157q225 0 355 -125t130 -333q0 -46 -15 -116h-772q0 -179 92 -278t245 -99q163 0 272 95l79 -153q-122 -91 -309 -100q-64 -37 -64 -115
q0 -94 111 -94q54 0 107 31zM863 655q0 120 -78 198t-209 78q-125 0 -210 -79t-96 -197h593z" />
    <glyph glyph-name="Ecaron" unicode="&#x11a;" horiz-adv-x="1097" 
d="M350 1285v-407h484v-170h-484v-528h664v-180h-864v1465h875v-180h-675zM939 1919l-305 -334h-107l-298 338h172l178 -192l163 188h197z" />
    <glyph glyph-name="ecaron" unicode="&#x11b;" horiz-adv-x="1117" 
d="M1037 517h-772q0 -188 103 -289q91 -88 234 -88q163 0 272 95l80 -137q-44 -44 -135 -76q-114 -42 -254 -42q-202 0 -343 137q-157 151 -157 406q0 265 161 425q144 143 341 143q229 0 359 -129q126 -124 126 -329q0 -63 -15 -116zM576 931q-127 0 -213 -82
q-82 -78 -93 -194h593q0 115 -72 192q-79 84 -215 84zM909 1619l-305 -334h-107l-298 338h172l178 -192l163 188h197z" />
    <glyph glyph-name="Gcircumflex" unicode="&#x11c;" horiz-adv-x="1385" 
d="M1165 1363l-83 -165q-151 112 -296 112q-230 0 -363 -162t-133 -429q0 -254 130.5 -409t355.5 -155q160 0 259 96v343h-203v170h403v-638q-80 -68 -223 -109.5t-278 -41.5q-303 0 -478.5 205.5t-175.5 546.5q0 340 192.5 551.5t519.5 211.5q229 0 373 -127zM892 1585
l-163 189l-178 -189h-172l298 338h107l305 -338h-197z" />
    <glyph glyph-name="gcircumflex" unicode="&#x11d;" horiz-adv-x="1028" 
d="M96 -293l103 152q166 -111 306 -111q129 0 203.5 44.5t74.5 110.5q0 130 -188 130q-32 0 -116 -16t-131 -16q-228 0 -228 172q0 53 53.5 96t132.5 62q-226 106 -226 368q0 168 117 280t289 112q158 0 247 -65l95 114l124 -117l-114 -86q73 -95 73 -248q0 -162 -101 -272
t-265 -126l-157 -16q-28 -3 -75 -21.5t-47 -48.5q0 -41 98 -41q43 0 134 15.5t135 15.5q158 0 246.5 -75.5t88.5 -209.5q0 -148 -132.5 -239t-335.5 -91q-104 0 -219 37t-185 90zM499 938q-99 0 -161.5 -70t-62.5 -170q0 -112 60.5 -185.5t163.5 -73.5q101 0 158 71.5
t57 187.5q0 100 -61.5 170t-153.5 70zM662 1285l-163 189l-178 -189h-172l298 338h107l305 -338h-197z" />
    <glyph glyph-name="Gbreve" unicode="&#x11e;" horiz-adv-x="1385" 
d="M1165 1363l-83 -165q-151 112 -296 112q-230 0 -363 -162t-133 -429q0 -254 130.5 -409t355.5 -155q160 0 259 96v343h-203v170h403v-638q-80 -68 -223 -109.5t-278 -41.5q-303 0 -478.5 205.5t-175.5 546.5q0 340 192.5 551.5t519.5 211.5q229 0 373 -127zM1060 1910
q0 -118 -94 -221.5t-250 -103.5q-149 0 -234 94t-85 231h141q-3 -61 51 -116t127 -55q85 0 143 51.5t58 119.5h143z" />
    <glyph glyph-name="gbreve" unicode="&#x11f;" horiz-adv-x="1028" 
d="M96 -293l103 152q166 -111 306 -111q129 0 203.5 44.5t74.5 110.5q0 130 -188 130q-32 0 -116 -16t-131 -16q-228 0 -228 172q0 53 53.5 96t132.5 62q-226 106 -226 368q0 168 117 280t289 112q158 0 247 -65l95 114l124 -117l-114 -86q73 -95 73 -248q0 -162 -101 -272
t-265 -126l-157 -16q-28 -3 -75 -21.5t-47 -48.5q0 -41 98 -41q43 0 134 15.5t135 15.5q158 0 246.5 -75.5t88.5 -209.5q0 -148 -132.5 -239t-335.5 -91q-104 0 -219 37t-185 90zM499 938q-99 0 -161.5 -70t-62.5 -170q0 -112 60.5 -185.5t163.5 -73.5q101 0 158 71.5
t57 187.5q0 100 -61.5 170t-153.5 70zM810 1610q0 -118 -94 -221.5t-250 -103.5q-149 0 -234 94t-85 231h141q-3 -61 51 -116t127 -55q85 0 143 51.5t58 119.5h143z" />
    <glyph glyph-name="Gdotaccent" unicode="&#x120;" horiz-adv-x="1385" 
d="M1165 1363l-83 -165q-151 112 -296 112q-230 0 -363 -162t-133 -429q0 -254 130.5 -409t355.5 -155q160 0 259 96v343h-203v170h403v-638q-80 -68 -223 -109.5t-278 -41.5q-303 0 -478.5 205.5t-175.5 546.5q0 340 192.5 551.5t519.5 211.5q229 0 373 -127zM745 1820
q49 0 83.5 -34.5t34.5 -82.5q0 -49 -34.5 -83.5t-83.5 -34.5q-48 0 -82.5 34.5t-34.5 83.5t34 83t83 34z" />
    <glyph glyph-name="gdotaccent" unicode="&#x121;" horiz-adv-x="1028" 
d="M96 -293l103 152q166 -111 306 -111q129 0 203.5 44.5t74.5 110.5q0 130 -188 130q-32 0 -116 -16t-131 -16q-228 0 -228 172q0 53 53.5 96t132.5 62q-226 106 -226 368q0 168 117 280t289 112q158 0 247 -65l95 114l124 -117l-114 -86q73 -95 73 -248q0 -162 -101 -272
t-265 -126l-157 -16q-28 -3 -75 -21.5t-47 -48.5q0 -41 98 -41q43 0 134 15.5t135 15.5q158 0 246.5 -75.5t88.5 -209.5q0 -148 -132.5 -239t-335.5 -91q-104 0 -219 37t-185 90zM499 938q-99 0 -161.5 -70t-62.5 -170q0 -112 60.5 -185.5t163.5 -73.5q101 0 158 71.5
t57 187.5q0 100 -61.5 170t-153.5 70zM486 1520q49 0 83.5 -34.5t34.5 -82.5q0 -49 -34.5 -83.5t-83.5 -34.5q-48 0 -82.5 34.5t-34.5 83.5t34 83t83 34z" />
    <glyph glyph-name="uni0122" unicode="&#x122;" horiz-adv-x="1385" 
d="M1165 1363l-83 -165q-151 112 -296 112q-230 0 -363 -162t-133 -429q0 -254 130.5 -409t355.5 -155q160 0 259 96v343h-203v170h403v-638q-80 -68 -223 -109.5t-278 -41.5q-303 0 -478.5 205.5t-175.5 546.5q0 340 192.5 551.5t519.5 211.5q229 0 373 -127zM607 -455
l-24 99q78 0 130 27t52 75q0 74 -90 74v119q99 0 154 -56t55 -137q0 -94 -73 -147.5t-204 -53.5z" />
    <glyph glyph-name="uni0123" unicode="&#x123;" horiz-adv-x="1028" 
d="M96 -293l103 152q166 -111 306 -111q129 0 203.5 44.5t74.5 110.5q0 130 -188 130q-32 0 -116 -16t-131 -16q-228 0 -228 172q0 53 53.5 96t132.5 62q-226 106 -226 368q0 168 117 280t289 112q158 0 247 -65l95 114l124 -117l-114 -86q73 -95 73 -248q0 -162 -101 -272
t-265 -126l-157 -16q-28 -3 -75 -21.5t-47 -48.5q0 -41 98 -41q43 0 134 15.5t135 15.5q158 0 246.5 -75.5t88.5 -209.5q0 -148 -132.5 -239t-335.5 -91q-104 0 -219 37t-185 90zM499 938q-99 0 -161.5 -70t-62.5 -170q0 -112 60.5 -185.5t163.5 -73.5q101 0 158 71.5
t57 187.5q0 100 -61.5 170t-153.5 70zM532 1718l54 -57q-62 -61 -70 -82.5t-8 -39.5q0 -41 42 -75t42 -81q0 -98 -106 -98q-108 0 -108 145q0 168 154 288z" />
    <glyph glyph-name="Hcircumflex" unicode="&#x124;" horiz-adv-x="1340" 
d="M990 0v708h-640v-708h-200v1465h200v-587h640v587h200v-1465h-200zM828 1585l-163 189l-178 -189h-172l298 338h107l305 -338h-197z" />
    <glyph glyph-name="hcircumflex" unicode="&#x125;" horiz-adv-x="1119" 
d="M795 0v673q0 120 -59 189t-166 69q-69 0 -138.5 -40.5t-106.5 -94.5v-796h-190v1510h190v-557q38 59 122.5 98.5t174.5 39.5q170 0 266.5 -112t96.5 -306v-673h-190zM718 1585l-163 189l-178 -189h-172l298 338h107l305 -338h-197z" />
    <glyph glyph-name="Hbar" unicode="&#x126;" horiz-adv-x="1395" 
d="M1373 1101h-152v-1101h-199v696h-651v-696h-199v1101h-152v139h152v225h199v-225h651v225h199v-225h152v-139zM1022 866v235h-651v-235h651z" />
    <glyph glyph-name="hbar" unicode="&#x127;" horiz-adv-x="1122" 
d="M993 0h-192v623q0 251 -221 251q-70 0 -138 -40q-63 -37 -108 -99v-735h-193v1190h-145v139h145v181h193v-181h373v-139h-373v-293q49 65 123 100q83 39 174 39q170 0 266 -110t96 -303v-623z" />
    <glyph glyph-name="Itilde" unicode="&#x128;" horiz-adv-x="570" 
d="M185 0v1465h200v-1465h-200zM603 1792q-53 -207 -192 -207q-63 0 -138.5 38.5t-106.5 38.5q-71 0 -108 -77h-91q14 84 64.5 145.5t119.5 61.5q82 0 151.5 -38.5t104.5 -38.5q81 0 108 77h88z" />
    <glyph glyph-name="itilde" unicode="&#x129;" horiz-adv-x="584" 
d="M227 0v911h-147v160h340v-1071h-193zM610 1492q-53 -207 -192 -207q-63 0 -138.5 38.5t-106.5 38.5q-71 0 -108 -77h-91q14 84 64.5 145.5t119.5 61.5q82 0 151.5 -38.5t104.5 -38.5q81 0 108 77h88z" />
    <glyph glyph-name="Imacron" unicode="&#x12a;" horiz-adv-x="570" 
d="M185 0v1465h200v-1465h-200zM654 1726v-141h-738v141h738z" />
    <glyph glyph-name="imacron" unicode="&#x12b;" horiz-adv-x="584" 
d="M227 0v911h-147v160h340v-1071h-193zM661 1426v-141h-738v141h738z" />
    <glyph glyph-name="Ibreve" unicode="&#x12c;" horiz-adv-x="570" 
d="M185 0v1465h200v-1465h-200zM617 1910q0 -118 -94 -221.5t-250 -103.5q-149 0 -234 94t-85 231h141q-3 -61 51 -116t127 -55q85 0 143 51.5t58 119.5h143z" />
    <glyph glyph-name="ibreve" unicode="&#x12d;" horiz-adv-x="584" 
d="M227 0v911h-147v160h340v-1071h-193zM626 1610q0 -118 -94 -221.5t-250 -103.5q-149 0 -234 94t-85 231h141q-3 -61 51 -116t127 -55q85 0 143 51.5t58 119.5h143z" />
    <glyph glyph-name="Iogonek" unicode="&#x12e;" horiz-adv-x="570" 
d="M573 -338q-96 -35 -178 -35q-115 0 -191 66q-81 69 -81 182q0 96 62 173v1417h200v-1465q-55 -27 -73 -50q-24 -28 -24 -83q0 -94 111 -94q54 0 107 31z" />
    <glyph glyph-name="iogonek" unicode="&#x12f;" horiz-adv-x="584" 
d="M449 1360q0 -51 -36 -85t-81 -34q-47 0 -83 34t-36 85q0 47 35 82t84 35q47 0 82 -35t35 -82zM604 -338q-95 -35 -178 -35q-114 0 -191 66q-80 69 -81 182q1 103 73 184v852h-147v160h337v-1071q-55 -27 -74 -50q-23 -28 -24 -83q1 -94 111 -94q55 0 107 31z" />
    <glyph glyph-name="Idotaccent" unicode="&#x130;" horiz-adv-x="570" 
d="M185 0v1465h200v-1465h-200zM283 1820q49 0 83.5 -34.5t34.5 -82.5q0 -49 -34.5 -83.5t-83.5 -34.5q-48 0 -82.5 34.5t-34.5 83.5t34 83t83 34z" />
    <glyph glyph-name="dotlessi" unicode="&#x131;" horiz-adv-x="584" 
d="M227 0v911h-147v160h340v-1071h-193z" />
    <glyph glyph-name="IJ" unicode="&#x132;" horiz-adv-x="1489" 
d="M185 0v1465h200v-1465h-200zM562 293h175q24 -133 159 -133q134 0 188.5 57.5t54.5 321.5v926h200v-918q0 -300 -97 -433.5t-345 -133.5q-143 0 -234.5 85t-100.5 228z" />
    <glyph glyph-name="ij" unicode="&#x133;" horiz-adv-x="1233" 
d="M331 1476q49 0 83.5 -34.5t34.5 -82.5q0 -49 -34.5 -83.5t-83.5 -34.5q-48 0 -82.5 34.5t-34.5 83.5t34 83t83 34zM227 0v911h-147v160h337v-1071h-190zM910 1476q49 0 83.5 -34.5t34.5 -82.5q0 -49 -34.5 -83.5t-83.5 -34.5t-83 34.5t-34 83.5t34 83t83 34zM500 -420
v170q196 0 268.5 59.5t72.5 195.5v906h-213v160h403v-1062q0 -221 -130 -325t-401 -104z" />
    <glyph glyph-name="Jcircumflex" unicode="&#x134;" horiz-adv-x="976" 
d="M49 293h175q24 -133 159 -133q134 0 188.5 57.5t54.5 321.5v926h200v-918q0 -300 -97 -433.5t-345 -133.5q-143 0 -234.5 85t-100.5 228zM789 1585l-163 189l-178 -189h-172l298 338h107l305 -338h-197z" />
    <glyph glyph-name="jcircumflex" unicode="&#x135;" horiz-adv-x="751" 
d="M18 -420v170q196 0 268.5 59.5t72.5 195.5v906h-213v160h403v-1062q0 -221 -130 -325t-401 -104zM534 1285l-163 189l-178 -189h-172l298 338h107l305 -338h-197z" />
    <glyph glyph-name="uni0136" unicode="&#x136;" horiz-adv-x="1179" 
d="M958 0l-413 674l-195 -277v-397h-200v1465h200v-797l544 797h223l-438 -635l500 -830h-221zM459 -455l-24 99q78 0 130 27t52 75q0 74 -90 74v119q99 0 154 -56t55 -137q0 -94 -73 -147.5t-204 -53.5z" />
    <glyph glyph-name="uni0137" unicode="&#x137;" horiz-adv-x="1033" 
d="M827 0l-336 536l-166 -171v-365h-190v1510h190v-937l410 498h222l-343 -407l419 -664h-206zM404 -455l-24 99q78 0 130 27t52 75q0 74 -90 74v119q99 0 154 -56t55 -137q0 -94 -73 -147.5t-204 -53.5z" />
    <glyph glyph-name="kgreenlandic" unicode="&#x138;" horiz-adv-x="1116" 
d="M1075 0h-248l-331 485l-160 -178v-307h-191v1071h191v-530l442 530h242l-399 -450z" />
    <glyph glyph-name="Lacute" unicode="&#x139;" horiz-adv-x="1037" 
d="M150 0v1465h200v-1285h662v-180h-862zM604 1918l-226 -333h-140l169 333h197z" />
    <glyph glyph-name="lacute" unicode="&#x13a;" horiz-adv-x="604" 
d="M150 303v1207h190v-1175q0 -86 49.5 -135.5t129.5 -49.5v-170q-369 0 -369 323zM544 1918l-226 -333h-140l169 333h197z" />
    <glyph glyph-name="uni013B" unicode="&#x13b;" horiz-adv-x="1037" 
d="M150 0v1465h200v-1285h662v-180h-862zM423 -455l-24 99q78 0 130 27t52 75q0 74 -90 74v119q99 0 154 -56t55 -137q0 -94 -73 -147.5t-204 -53.5z" />
    <glyph glyph-name="uni013C" unicode="&#x13c;" horiz-adv-x="604" 
d="M150 303v1207h190v-1175q0 -86 49.5 -135.5t129.5 -49.5v-170q-369 0 -369 323zM242 -455l-24 99q78 0 130 27t52 75q0 74 -90 74v119q99 0 154 -56t55 -137q0 -94 -73 -147.5t-204 -53.5z" />
    <glyph glyph-name="Lcaron" unicode="&#x13d;" horiz-adv-x="1037" 
d="M150 0v1465h200v-1285h662v-180h-862zM586 1064l-47 63q72 58 81.5 80.5t9.5 44.5q0 33 -34.5 66.5t-34.5 69.5q0 103 102 103q108 0 108 -124q0 -188 -185 -303z" />
    <glyph glyph-name="lcaron" unicode="&#x13e;" horiz-adv-x="604" 
d="M150 303v1207h190v-1175q0 -86 49.5 -135.5t129.5 -49.5v-170q-369 0 -369 323zM526 1083l-47 63q72 58 81.5 80.5t9.5 44.5q0 33 -34.5 66.5t-34.5 69.5q0 103 102 103q108 0 108 -124q0 -188 -185 -303z" />
    <glyph glyph-name="Ldot" unicode="&#x13f;" horiz-adv-x="1037" 
d="M150 0v1465h200v-1285h662v-180h-862zM695 850q49 0 83.5 -34.5t34.5 -82.5q0 -49 -34.5 -83.5t-83.5 -34.5q-48 0 -82.5 34.5t-34.5 83.5t34 83t83 34z" />
    <glyph glyph-name="ldot" unicode="&#x140;" horiz-adv-x="675" 
d="M150 303v1207h190v-1175q0 -86 49.5 -135.5t129.5 -49.5v-170q-369 0 -369 323zM635 890q49 0 83.5 -34.5t34.5 -82.5q0 -49 -34.5 -83.5t-83.5 -34.5q-48 0 -82.5 34.5t-34.5 83.5t34 83t83 34z" />
    <glyph glyph-name="Lslash" unicode="&#x141;" horiz-adv-x="1037" 
d="M485 1045v-131l-135 -95v-639h662v-180h-862v679l-152 -106v144l152 102v646h200v-511z" />
    <glyph glyph-name="lslash" unicode="&#x142;" horiz-adv-x="610" 
d="M156 303v382l-107 -74v144l107 72v683h190v-555q24 16 139 90v-131l-139 -97v-482q0 -86 49.5 -135.5t129.5 -49.5v-170q-369 0 -369 323z" />
    <glyph glyph-name="Nacute" unicode="&#x143;" horiz-adv-x="1307" 
d="M1097 -20l-757 1071v-1051h-190v1465h80l737 -1013v1013h190v-1485h-60zM864 1918l-226 -333h-140l169 333h197z" />
    <glyph glyph-name="nacute" unicode="&#x144;" horiz-adv-x="1119" 
d="M794 0v623q0 171 -51.5 239.5t-172.5 68.5q-65 0 -136 -39t-109 -96v-796h-190v1071h130l60 -138q94 158 307 158q352 0 352 -428v-663h-190zM794 1618l-226 -333h-140l169 333h197z" />
    <glyph glyph-name="uni0145" unicode="&#x145;" horiz-adv-x="1307" 
d="M1097 -20l-757 1071v-1051h-190v1465h80l737 -1013v1013h190v-1485h-60zM495 -455l-24 99q78 0 130 27t52 75q0 74 -90 74v119q99 0 154 -56t55 -137q0 -94 -73 -147.5t-204 -53.5z" />
    <glyph glyph-name="uni0146" unicode="&#x146;" horiz-adv-x="1119" 
d="M794 0v623q0 171 -51.5 239.5t-172.5 68.5q-65 0 -136 -39t-109 -96v-796h-190v1071h130l60 -138q94 158 307 158q352 0 352 -428v-663h-190zM402 -455l-24 99q78 0 130 27t52 75q0 74 -90 74v119q99 0 154 -56t55 -137q0 -94 -73 -147.5t-204 -53.5z" />
    <glyph glyph-name="Ncaron" unicode="&#x147;" horiz-adv-x="1307" 
d="M1097 -20l-757 1071v-1051h-190v1465h80l737 -1013v1013h190v-1485h-60zM959 1919l-305 -334h-107l-298 338h172l178 -192l163 188h197z" />
    <glyph glyph-name="ncaron" unicode="&#x148;" horiz-adv-x="1119" 
d="M794 0v623q0 171 -51.5 239.5t-172.5 68.5q-65 0 -136 -39t-109 -96v-796h-190v1071h130l60 -138q94 158 307 158q352 0 352 -428v-663h-190zM929 1619l-305 -334h-107l-298 338h172l178 -192l163 188h197z" />
    <glyph glyph-name="napostrophe" unicode="&#x149;" horiz-adv-x="1300" 
d="M67 1083l-47 63q72 58 81.5 80.5t9.5 44.5q0 33 -34.5 66.5t-34.5 69.5q0 103 102 103q108 0 108 -124q0 -188 -185 -303zM975 0v623q0 171 -51.5 239.5t-172.5 68.5q-65 0 -136 -39t-109 -96v-796h-190v1071h130l60 -138q94 158 307 158q352 0 352 -428v-663h-190z" />
    <glyph glyph-name="Eng" unicode="&#x14a;" horiz-adv-x="1337" 
d="M1194 457q0 -258 -86 -365q-90 -112 -258 -112q-158 0 -251 77l82 146q72 -51 141 -51q63 0 101 26q35 24 51 74q20 61 20 213v393q0 271 -85 362t-250 91q-168 0 -309 -172v-1139h-200v1465h118l82 -134q144 160 379 160q465 0 465 -584v-450z" />
    <glyph glyph-name="eng" unicode="&#x14b;" horiz-adv-x="1119" 
d="M984 0q0 -208 -120 -314t-322 -106v170q128 0 192 61q60 58 60 189v622q0 170 -52 239.5t-174 69.5q-66 0 -136 -39t-107 -95v-797h-190v1071h130l60 -137q92 157 307 157q352 0 352 -428v-663z" />
    <glyph glyph-name="Omacron" unicode="&#x14c;" horiz-adv-x="1380" 
d="M80 745q0 318 159.5 532t430.5 214q305 0 467.5 -197t162.5 -549q0 -361 -163 -565.5t-467 -204.5q-277 0 -433.5 216t-156.5 554zM290 745q0 -252 99.5 -421t280.5 -169q205 0 312.5 155t107.5 435q0 566 -420 566q-186 0 -283 -152t-97 -414zM1039 1726v-141h-738v141
h738z" />
    <glyph glyph-name="omacron" unicode="&#x14d;" horiz-adv-x="1099" 
d="M65 538q0 248 133.5 400.5t351.5 152.5q230 0 357 -146.5t127 -406.5q0 -259 -130 -408.5t-354 -149.5q-229 0 -357 151t-128 407zM265 538q0 -403 285 -403q133 0 208.5 108t75.5 295q0 398 -284 398q-130 0 -207.5 -106t-77.5 -292zM919 1426v-141h-738v141h738z" />
    <glyph glyph-name="Obreve" unicode="&#x14e;" horiz-adv-x="1380" 
d="M80 745q0 318 159.5 532t430.5 214q305 0 467.5 -197t162.5 -549q0 -361 -163 -565.5t-467 -204.5q-277 0 -433.5 216t-156.5 554zM290 745q0 -252 99.5 -421t280.5 -169q205 0 312.5 155t107.5 435q0 566 -420 566q-186 0 -283 -152t-97 -414zM1014 1910
q0 -118 -94 -221.5t-250 -103.5q-149 0 -234 94t-85 231h141q-3 -61 51 -116t127 -55q85 0 143 51.5t58 119.5h143z" />
    <glyph glyph-name="obreve" unicode="&#x14f;" horiz-adv-x="1099" 
d="M65 538q0 248 133.5 400.5t351.5 152.5q230 0 357 -146.5t127 -406.5q0 -259 -130 -408.5t-354 -149.5q-229 0 -357 151t-128 407zM265 538q0 -403 285 -403q133 0 208.5 108t75.5 295q0 398 -284 398q-130 0 -207.5 -106t-77.5 -292zM894 1610q0 -118 -94 -221.5
t-250 -103.5q-149 0 -234 94t-85 231h141q-3 -61 51 -116t127 -55q85 0 143 51.5t58 119.5h143z" />
    <glyph glyph-name="Ohungarumlaut" unicode="&#x150;" horiz-adv-x="1380" 
d="M80 745q0 318 159.5 532t430.5 214q305 0 467.5 -197t162.5 -549q0 -361 -163 -565.5t-467 -204.5q-277 0 -433.5 216t-156.5 554zM290 745q0 -252 99.5 -421t280.5 -169q205 0 312.5 155t107.5 435q0 566 -420 566q-186 0 -283 -152t-97 -414zM750 1868l-199 -283h-140
l142 283h197zM1120 1868l-199 -283h-140l142 283h197z" />
    <glyph glyph-name="ohungarumlaut" unicode="&#x151;" horiz-adv-x="1099" 
d="M65 538q0 248 133.5 400.5t351.5 152.5q230 0 357 -146.5t127 -406.5q0 -259 -130 -408.5t-354 -149.5q-229 0 -357 151t-128 407zM265 538q0 -403 285 -403q133 0 208.5 108t75.5 295q0 398 -284 398q-130 0 -207.5 -106t-77.5 -292zM620 1568l-199 -283h-140l142 283
h197zM990 1568l-199 -283h-140l142 283h197z" />
    <glyph glyph-name="OE" unicode="&#x152;" horiz-adv-x="2034" 
d="M1287 1285v-407h484v-170h-484v-528h664v-180h-864v138q-161 -163 -430 -163q-277 0 -433.5 216t-156.5 554q0 318 159.5 532t430.5 214q270 0 430 -156v130h875v-180h-675zM277 745q0 -252 99.5 -421t280.5 -169q205 0 312.5 155t107.5 435q0 566 -420 566
q-186 0 -283 -152t-97 -414z" />
    <glyph glyph-name="oe" unicode="&#x153;" horiz-adv-x="1893" 
d="M942 892q149 199 389 199q222 0 353.5 -133t131.5 -345q0 -46 -15 -96h-762q0 -171 89 -274t238 -103q168 0 274 101l80 -152q-124 -109 -391 -109q-254 0 -396 193q-129 -193 -387 -193q-229 0 -357 151t-128 407q0 248 133.5 400.5t351.5 152.5q271 0 396 -199z
M1039 655h598q0 123 -84.5 199.5t-222.5 76.5q-104 0 -197.5 -86t-93.5 -190zM261 538q0 -388 285 -388q138 0 211 104.5t73 283.5q0 383 -284 383q-134 0 -209.5 -100t-75.5 -283z" />
    <glyph glyph-name="Racute" unicode="&#x154;" horiz-adv-x="1192" 
d="M963 0l-391 629q-67 0 -212 10v-639h-200v1465q11 0 155.5 7.5t210.5 7.5q528 0 528 -420q0 -138 -85 -248.5t-202 -137.5l425 -674h-229zM360 1285v-476q72 -10 140 -10q180 0 262 58t82 207q0 123 -88 177t-278 54q-30 0 -118 -10zM744 1918l-226 -333h-140l169 333
h197z" />
    <glyph glyph-name="racute" unicode="&#x155;" horiz-adv-x="796" 
d="M717 888q-62 43 -125 43q-101 0 -176.5 -93t-75.5 -224v-614h-190v1071h190v-171q104 191 309 191q51 0 147 -18zM694 1618l-226 -333h-140l169 333h197z" />
    <glyph glyph-name="uni0156" unicode="&#x156;" horiz-adv-x="1192" 
d="M963 0l-391 629q-67 0 -212 10v-639h-200v1465q11 0 155.5 7.5t210.5 7.5q528 0 528 -420q0 -138 -85 -248.5t-202 -137.5l425 -674h-229zM360 1285v-476q72 -10 140 -10q180 0 262 58t82 207q0 123 -88 177t-278 54q-30 0 -118 -10zM455 -455l-24 99q78 0 130 27t52 75
q0 74 -90 74v119q99 0 154 -56t55 -137q0 -94 -73 -147.5t-204 -53.5z" />
    <glyph glyph-name="uni0157" unicode="&#x157;" horiz-adv-x="796" 
d="M717 888q-62 43 -125 43q-101 0 -176.5 -93t-75.5 -224v-614h-190v1071h190v-171q104 191 309 191q51 0 147 -18zM155 -455l-24 99q78 0 130 27t52 75q0 74 -90 74v119q99 0 154 -56t55 -137q0 -94 -73 -147.5t-204 -53.5z" />
    <glyph glyph-name="Rcaron" unicode="&#x158;" horiz-adv-x="1192" 
d="M963 0l-391 629q-67 0 -212 10v-639h-200v1465q11 0 155.5 7.5t210.5 7.5q528 0 528 -420q0 -138 -85 -248.5t-202 -137.5l425 -674h-229zM360 1285v-476q72 -10 140 -10q180 0 262 58t82 207q0 123 -88 177t-278 54q-30 0 -118 -10zM920 1919l-305 -334h-107l-298 338
h172l178 -192l163 188h197z" />
    <glyph glyph-name="rcaron" unicode="&#x159;" horiz-adv-x="796" 
d="M717 888q-62 43 -125 43q-101 0 -176.5 -93t-75.5 -224v-614h-190v1071h190v-171q104 191 309 191q51 0 147 -18zM809 1619l-305 -334h-107l-298 338h172l178 -192l163 188h197z" />
    <glyph glyph-name="Sacute" unicode="&#x15a;" horiz-adv-x="985" 
d="M84 67l73 184q56 -41 139.5 -68.5t149.5 -27.5q117 0 188 64t71 163q0 74 -39.5 137.5t-198.5 138.5l-118 55q-150 70 -209.5 166t-59.5 231q0 164 116 272t298 108q243 0 338 -79l-59 -174q-40 29 -122 56t-152 27q-102 0 -160.5 -58t-58.5 -149q0 -56 21 -102t58.5 -77
t153.5 -87l120 -57q150 -71 210.5 -169.5t60.5 -250.5q0 -165 -132.5 -280t-354.5 -115q-195 0 -333 92zM760 1918l-226 -333h-140l169 333h197z" />
    <glyph glyph-name="sacute" unicode="&#x15b;" horiz-adv-x="829" 
d="M65 64l67 180q159 -104 256 -104q176 0 176 148q0 106 -170 182q-131 60 -176.5 91t-79 70.5t-50 84t-16.5 95.5q0 132 96 206t251 74q117 0 295 -74l-54 -176q-113 90 -227 90q-68 0 -114.5 -32t-46.5 -81q0 -103 117 -156l136 -62q125 -57 182 -130t57 -183
q0 -144 -101 -225.5t-280 -81.5q-169 0 -318 84zM654 1618l-226 -333h-140l169 333h197z" />
    <glyph glyph-name="Scircumflex" unicode="&#x15c;" horiz-adv-x="985" 
d="M84 67l73 184q56 -41 139.5 -68.5t149.5 -27.5q117 0 188 64t71 163q0 74 -39.5 137.5t-198.5 138.5l-118 55q-150 70 -209.5 166t-59.5 231q0 164 116 272t298 108q243 0 338 -79l-59 -174q-40 29 -122 56t-152 27q-102 0 -160.5 -58t-58.5 -149q0 -56 21 -102t58.5 -77
t153.5 -87l120 -57q150 -71 210.5 -169.5t60.5 -250.5q0 -165 -132.5 -280t-354.5 -115q-195 0 -333 92zM642 1585l-163 189l-178 -189h-172l298 338h107l305 -338h-197z" />
    <glyph glyph-name="scircumflex" unicode="&#x15d;" horiz-adv-x="829" 
d="M65 64l67 180q159 -104 256 -104q176 0 176 148q0 106 -170 182q-131 60 -176.5 91t-79 70.5t-50 84t-16.5 95.5q0 132 96 206t251 74q117 0 295 -74l-54 -176q-113 90 -227 90q-68 0 -114.5 -32t-46.5 -81q0 -103 117 -156l136 -62q125 -57 182 -130t57 -183
q0 -144 -101 -225.5t-280 -81.5q-169 0 -318 84zM551 1285l-163 189l-178 -189h-172l298 338h107l305 -338h-197z" />
    <glyph glyph-name="Scedilla" unicode="&#x15e;" horiz-adv-x="985" 
d="M84 67l73 184q56 -41 139.5 -68.5t149.5 -27.5q117 0 188 64t71 163q0 74 -39.5 137.5t-198.5 138.5l-118 55q-150 70 -209.5 166t-59.5 231q0 164 116 272t298 108q243 0 338 -79l-59 -174q-40 29 -122 56t-152 27q-102 0 -160.5 -58t-58.5 -149q0 -56 21 -102t58.5 -77
t153.5 -87l120 -57q150 -71 210.5 -169.5t60.5 -250.5q0 -165 -132.5 -280t-354.5 -115q-195 0 -333 92zM305 -455l-24 99q78 0 130 27t52 75q0 74 -90 74v119q99 0 154 -56t55 -137q0 -94 -73 -147.5t-204 -53.5z" />
    <glyph glyph-name="scedilla" unicode="&#x15f;" horiz-adv-x="829" 
d="M65 64l67 180q159 -104 256 -104q176 0 176 148q0 106 -170 182q-131 60 -176.5 91t-79 70.5t-50 84t-16.5 95.5q0 132 96 206t251 74q117 0 295 -74l-54 -176q-113 90 -227 90q-68 0 -114.5 -32t-46.5 -81q0 -103 117 -156l136 -62q125 -57 182 -130t57 -183
q0 -144 -101 -225.5t-280 -81.5q-169 0 -318 84zM225 -455l-24 99q78 0 130 27t52 75q0 74 -90 74v119q99 0 154 -56t55 -137q0 -94 -73 -147.5t-204 -53.5z" />
    <glyph glyph-name="Scaron" unicode="&#x160;" horiz-adv-x="985" 
d="M84 67l73 184q56 -41 139.5 -68.5t149.5 -27.5q117 0 188 64t71 163q0 74 -39.5 137.5t-198.5 138.5l-118 55q-150 70 -209.5 166t-59.5 231q0 164 116 272t298 108q243 0 338 -79l-59 -174q-40 29 -122 56t-152 27q-102 0 -160.5 -58t-58.5 -149q0 -56 21 -102t58.5 -77
t153.5 -87l120 -57q150 -71 210.5 -169.5t60.5 -250.5q0 -165 -132.5 -280t-354.5 -115q-195 0 -333 92zM859 1919l-305 -334h-107l-298 338h172l178 -192l163 188h197z" />
    <glyph glyph-name="scaron" unicode="&#x161;" horiz-adv-x="829" 
d="M65 64l67 180q159 -104 256 -104q176 0 176 148q0 106 -170 182q-131 60 -176.5 91t-79 70.5t-50 84t-16.5 95.5q0 132 96 206t251 74q117 0 295 -74l-54 -176q-113 90 -227 90q-68 0 -114.5 -32t-46.5 -81q0 -103 117 -156l136 -62q125 -57 182 -130t57 -183
q0 -144 -101 -225.5t-280 -81.5q-169 0 -318 84zM762 1619l-305 -334h-107l-298 338h172l178 -192l163 188h197z" />
    <glyph glyph-name="uni0162" unicode="&#x162;" horiz-adv-x="1189" 
d="M684 1285v-1285h-200v1285h-466v180h1153v-180h-487zM459 -455l-24 99q78 0 130 27t52 75q0 74 -90 74v119q99 0 154 -56t55 -137q0 -94 -73 -147.5t-204 -53.5z" />
    <glyph glyph-name="uni0163" unicode="&#x163;" horiz-adv-x="812" 
d="M203 921h-124v150h124v224l190 73v-297h294v-150h-294v-532q0 -135 45.5 -192t146.5 -57q73 0 151 37l28 -167q-118 -30 -259 -30q-127 0 -214.5 94.5t-87.5 238.5v608zM272 -455l-24 99q78 0 130 27t52 75q0 74 -90 74v119q99 0 154 -56t55 -137q0 -94 -73 -147.5
t-204 -53.5z" />
    <glyph glyph-name="Tcaron" unicode="&#x164;" horiz-adv-x="1189" 
d="M684 1285v-1285h-200v1285h-466v180h1153v-180h-487zM949 1919l-305 -334h-107l-298 338h172l178 -192l163 188h197z" />
    <glyph glyph-name="tcaron" unicode="&#x165;" horiz-adv-x="1016" 
d="M203 921h-124v150h124v224l190 73v-297h294v-150h-294v-532q0 -135 45.5 -192t146.5 -57q73 0 151 37l28 -167q-118 -30 -259 -30q-127 0 -214.5 94.5t-87.5 238.5v608zM809 952l-47 63q72 58 81.5 80.5t9.5 44.5q0 33 -34.5 66.5t-34.5 69.5q0 103 102 103
q108 0 108 -124q0 -188 -185 -303z" />
    <glyph glyph-name="Tbar" unicode="&#x166;" horiz-adv-x="1189" 
d="M1171 1285h-487v-505h317v-147h-317v-633h-200v633h-315v147h315v505h-466v180h1153v-180z" />
    <glyph glyph-name="tbar" unicode="&#x167;" horiz-adv-x="812" 
d="M764 10q-114 -30 -258 -30q-127 0 -215 94t-88 239v207h-154v139h154v262h-154v150h154v223l190 74v-297h313v-150h-313v-262h262v-139h-262v-131q0 -136 46 -193t147 -57q72 0 149 37z" />
    <glyph glyph-name="Utilde" unicode="&#x168;" horiz-adv-x="1328" 
d="M150 1465h200v-1003q0 -134 85 -220.5t225 -86.5q148 0 233 84t85 228v998h200v-1019q0 -222 -138.5 -346.5t-377.5 -124.5q-246 0 -379 122t-133 350v1018zM982 1792q-53 -207 -192 -207q-63 0 -138.5 38.5t-106.5 38.5q-71 0 -108 -77h-91q14 84 64.5 145.5t119.5 61.5
q82 0 151.5 -38.5t104.5 -38.5q81 0 108 77h88z" />
    <glyph glyph-name="utilde" unicode="&#x169;" horiz-adv-x="1119" 
d="M315 1071v-683q0 -248 215 -248q94 0 172 54t103 125v752h190v-1071h-190v148q-32 -63 -128.5 -115.5t-188.5 -52.5q-176 0 -269.5 101t-93.5 287v703h190zM878 1492q-53 -207 -192 -207q-63 0 -138.5 38.5t-106.5 38.5q-71 0 -108 -77h-91q14 84 64.5 145.5t119.5 61.5
q82 0 151.5 -38.5t104.5 -38.5q81 0 108 77h88z" />
    <glyph glyph-name="Umacron" unicode="&#x16a;" horiz-adv-x="1328" 
d="M150 1465h200v-1003q0 -134 85 -220.5t225 -86.5q148 0 233 84t85 228v998h200v-1019q0 -222 -138.5 -346.5t-377.5 -124.5q-246 0 -379 122t-133 350v1018zM1033 1726v-141h-738v141h738z" />
    <glyph glyph-name="umacron" unicode="&#x16b;" horiz-adv-x="1119" 
d="M315 1071v-683q0 -248 215 -248q94 0 172 54t103 125v752h190v-1071h-190v148q-32 -63 -128.5 -115.5t-188.5 -52.5q-176 0 -269.5 101t-93.5 287v703h190zM929 1426v-141h-738v141h738z" />
    <glyph glyph-name="Ubreve" unicode="&#x16c;" horiz-adv-x="1328" 
d="M150 1465h200v-1003q0 -134 85 -220.5t225 -86.5q148 0 233 84t85 228v998h200v-1019q0 -222 -138.5 -346.5t-377.5 -124.5q-246 0 -379 122t-133 350v1018zM995 1910q0 -118 -94 -221.5t-250 -103.5q-149 0 -234 94t-85 231h141q-3 -61 51 -116t127 -55q85 0 143 51.5
t58 119.5h143z" />
    <glyph glyph-name="ubreve" unicode="&#x16d;" horiz-adv-x="1119" 
d="M315 1071v-683q0 -248 215 -248q94 0 172 54t103 125v752h190v-1071h-190v148q-32 -63 -128.5 -115.5t-188.5 -52.5q-176 0 -269.5 101t-93.5 287v703h190zM904 1610q0 -118 -94 -221.5t-250 -103.5q-149 0 -234 94t-85 231h141q-3 -61 51 -116t127 -55q85 0 143 51.5
t58 119.5h143z" />
    <glyph glyph-name="Uring" unicode="&#x16e;" horiz-adv-x="1328" 
d="M150 1465h200v-1003q0 -134 85 -220.5t225 -86.5q148 0 233 84t85 228v998h200v-1019q0 -222 -138.5 -346.5t-377.5 -124.5q-246 0 -379 122t-133 350v1018zM678 1904q88 0 149.5 -61t61.5 -148t-62 -148.5t-149 -61.5q-88 0 -150 61.5t-62 148.5t62 148t150 61z
M678 1595q42 0 71.5 29.5t29.5 70.5t-29.5 70t-71.5 29t-72 -29t-30 -70t30 -70.5t72 -29.5z" />
    <glyph glyph-name="uring" unicode="&#x16f;" horiz-adv-x="1119" 
d="M315 1071v-683q0 -248 215 -248q94 0 172 54t103 125v752h190v-1071h-190v148q-32 -63 -128.5 -115.5t-188.5 -52.5q-176 0 -269.5 101t-93.5 287v703h190zM588 1704q88 0 149.5 -61t61.5 -148t-62 -148.5t-149 -61.5q-88 0 -150 61.5t-62 148.5t62 148t150 61zM588 1395
q42 0 71.5 29.5t29.5 70.5t-29.5 70t-71.5 29t-72 -29t-30 -70t30 -70.5t72 -29.5z" />
    <glyph glyph-name="Uhungarumlaut" unicode="&#x170;" horiz-adv-x="1328" 
d="M150 1465h200v-1003q0 -134 85 -220.5t225 -86.5q148 0 233 84t85 228v998h200v-1019q0 -222 -138.5 -346.5t-377.5 -124.5q-246 0 -379 122t-133 350v1018zM720 1868l-199 -283h-140l142 283h197zM1090 1868l-199 -283h-140l142 283h197z" />
    <glyph glyph-name="uhungarumlaut" unicode="&#x171;" horiz-adv-x="1119" 
d="M315 1071v-683q0 -248 215 -248q94 0 172 54t103 125v752h190v-1071h-190v148q-32 -63 -128.5 -115.5t-188.5 -52.5q-176 0 -269.5 101t-93.5 287v703h190zM630 1568l-199 -283h-140l142 283h197zM1000 1568l-199 -283h-140l142 283h197z" />
    <glyph glyph-name="Uogonek" unicode="&#x172;" horiz-adv-x="1328" 
d="M1178 446q0 -223 -138 -346q-83 -74 -258 -116q-30 -8 -51 -44q-16 -27 -16 -73q0 -94 111 -94q54 0 107 31l67 -142q-96 -35 -178 -35q-115 0 -191 66q-81 69 -81 182q0 55 21 105q-421 44 -421 466v1019h200v-1002q0 -138 85 -222.5t224 -84.5q145 0 232 82.5t87 228.5
v998h200v-1019z" />
    <glyph glyph-name="uogonek" unicode="&#x173;" horiz-adv-x="1119" 
d="M1182 -338q-96 -35 -178 -35q-115 0 -191 66q-81 69 -81 182q0 104 73 186v86q-30 -61 -128.5 -114t-189.5 -53q-172 0 -267 101t-95 288v702h190v-684q0 -248 215 -248q90 0 172 56q79 54 103 124v752h190v-1071q-56 -27 -74 -50q-24 -28 -24 -83q0 -94 111 -94
q54 0 107 31z" />
    <glyph glyph-name="Wcircumflex" unicode="&#x174;" horiz-adv-x="1745" 
d="M1276 -20h-63l-349 1010l-326 -1010h-63l-462 1485h208l294 -1023l322 1023h70l318 -1021l299 1021h208zM1035 1585l-163 189l-178 -189h-172l298 338h107l305 -338h-197z" />
    <glyph glyph-name="wcircumflex" unicode="&#x175;" horiz-adv-x="1524" 
d="M1125 -20h-50l-314 729l-313 -729h-50l-383 1094h203l229 -703l285 703h50l294 -703l246 703h187zM920 1285l-163 189l-178 -189h-172l298 338h107l305 -338h-197z" />
    <glyph glyph-name="Ycircumflex" unicode="&#x176;" horiz-adv-x="1168" 
d="M685 656v-656h-200v656l-472 809h206l365 -640l365 640h206zM747 1585l-163 189l-178 -189h-172l298 338h107l305 -338h-197z" />
    <glyph glyph-name="ycircumflex" unicode="&#x177;" horiz-adv-x="1010" 
d="M544 -182q-37 -102 -155.5 -170t-264.5 -68v170q119 0 204 55.5t85 135.5q0 88 -31 173.5t-80 211.5l-290 745h194l315 -828l283 828h194zM668 1285l-163 189l-178 -189h-172l298 338h107l305 -338h-197z" />
    <glyph glyph-name="Ydieresis" unicode="&#x178;" horiz-adv-x="1168" 
d="M685 656v-656h-200v656l-472 809h206l365 -640l365 640h206zM354 1813q47 0 79.5 -32.5t32.5 -79.5t-32.5 -80t-79.5 -33t-80 33t-33 80t33 79.5t80 32.5zM826 1813q47 0 80 -32.5t33 -79.5t-33 -80t-80 -33t-79.5 33t-32.5 80t32.5 79.5t79.5 32.5z" />
    <glyph glyph-name="Zacute" unicode="&#x179;" horiz-adv-x="1127" 
d="M100 0v50l630 1235h-620v180h895v-50l-632 -1235h654v-180h-927zM703 1918l-226 -333h-140l169 333h197z" />
    <glyph glyph-name="zacute" unicode="&#x17a;" horiz-adv-x="972" 
d="M338 170h594v-170h-892v50l609 851h-599v170h876v-54zM673 1618l-226 -333h-140l169 333h197z" />
    <glyph glyph-name="Zdotaccent" unicode="&#x17b;" horiz-adv-x="1127" 
d="M100 0v50l630 1235h-620v180h895v-50l-632 -1235h654v-180h-927zM494 1820q49 0 83.5 -34.5t34.5 -82.5q0 -49 -34.5 -83.5t-83.5 -34.5q-48 0 -82.5 34.5t-34.5 83.5t34 83t83 34z" />
    <glyph glyph-name="zdotaccent" unicode="&#x17c;" horiz-adv-x="972" 
d="M338 170h594v-170h-892v50l609 851h-599v170h876v-54zM494 1520q49 0 83.5 -34.5t34.5 -82.5q0 -49 -34.5 -83.5t-83.5 -34.5q-48 0 -82.5 34.5t-34.5 83.5t34 83t83 34z" />
    <glyph glyph-name="Zcaron" unicode="&#x17d;" horiz-adv-x="1127" 
d="M100 0v50l630 1235h-620v180h895v-50l-632 -1235h654v-180h-927zM898 1919l-305 -334h-107l-298 338h172l178 -192l163 188h197z" />
    <glyph glyph-name="zcaron" unicode="&#x17e;" horiz-adv-x="972" 
d="M338 170h594v-170h-892v50l609 851h-599v170h876v-54zM828 1619l-305 -334h-107l-298 338h172l178 -192l163 188h197z" />
    <glyph glyph-name="longs" unicode="&#x17f;" horiz-adv-x="678" 
d="M698 1482l-47 -146q-57 19 -114 19q-90 0 -140 -66q-55 -73 -55 -260v-1029h-190v1058q0 221 100.5 336.5t267.5 115.5q82 0 178 -28z" />
    <glyph glyph-name="florin" unicode="&#x192;" horiz-adv-x="795" 
d="M802 1332q-76 28 -118 28q-199 0 -237 -288q34 -2 70 -2q84 0 181 10l-13 -116q-167 -24 -265 -29l-165 -1008q-24 -144 -125.5 -231t-251.5 -104q-1 -1 -3 5t-7.5 20.5t-11.5 33.5l-19 57q-13 37 -13 39q81 16 156 68t85 112l166 999q-44 0 -151 -13l30 158l147 1
q88 438 439 438q53 0 142 -30z" />
    <glyph glyph-name="Aringacute" unicode="&#x1fa;" horiz-adv-x="1208" 
d="M1204 0h-222l-107 309h-535l-112 -309h-224l562 1304q-151 46 -151 191q0 138 132 185l99 198h196l-134 -198q130 -48 130 -185q0 -152 -155 -193zM728 1495q0 89 -101 89q-43 0 -72.5 -24.5t-29.5 -64.5q0 -90 102 -90q101 0 101 90zM823 456l-207 595l-220 -595h427z
" />
    <glyph glyph-name="aringacute" unicode="&#x1fb;" horiz-adv-x="1076" 
d="M740 123q-114 -143 -349 -143q-126 0 -218.5 91.5t-92.5 227.5q0 163 142.5 275.5t363.5 112.5q60 0 136 -26q0 260 -232 260q-178 0 -274 -96l-80 159q54 44 149.5 75.5t182.5 31.5q233 0 338.5 -106t105.5 -337v-384q0 -141 84 -188v-95q-116 0 -173.5 33t-82.5 109z
M722 526q-90 20 -126 20q-144 0 -235 -74t-91 -175q0 -167 197 -167q144 0 255 137v259zM514 1554q88 0 149.5 -61t61.5 -148t-62 -148.5t-149 -61.5q-88 0 -150 61.5t-62 148.5t62 148t150 61zM514 1245q42 0 71.5 29.5t29.5 70.5t-29.5 70t-71.5 29t-72 -29t-30 -70
t30 -70.5t72 -29.5zM765 1931l-226 -333h-140l169 333h197z" />
    <glyph glyph-name="AEacute" unicode="&#x1fc;" horiz-adv-x="1775" 
d="M828 307h-448l-139 -307h-224l705 1465h981v-180h-675v-407h484v-170h-484v-528h664v-180h-864v307zM828 1285l-384 -829h384v829zM1394 1918l-226 -333h-140l169 333h197z" />
    <glyph glyph-name="aeacute" unicode="&#x1fd;" horiz-adv-x="1788" 
d="M1696 517h-762q0 -170 89 -273.5t238 -103.5q175 0 274 109l80 -152q-78 -69 -169 -93t-222 -24q-170 0 -298 95q5 -50 11 -95h-161q-11 47 -35 143q-114 -143 -339 -143q-133 0 -227.5 87.5t-94.5 213.5q0 182 141.5 292t370.5 110q56 0 132 -22q0 260 -233 260
q-178 0 -274 -96l-80 159q54 44 149.5 75.5t182.5 31.5q293 0 389 -173q148 173 368 173q222 0 353.5 -133t131.5 -345q0 -46 -15 -96zM934 655h598q0 123 -84.5 199.5t-222.5 76.5q-123 0 -207 -90t-84 -186zM724 526q-60 20 -127 20q-142 0 -234.5 -79.5t-92.5 -169.5
q0 -167 198 -167q145 0 256 137v259zM1160 1618l-226 -333h-140l169 333h197z" />
    <glyph glyph-name="Oslashacute" unicode="&#x1fe;" horiz-adv-x="1345" 
d="M350 66l-67 -91h-216l160 211q-160 214 -160 559q0 318 159.5 532t430.5 214q214 0 361 -100l67 100h202l-144 -220q144 -194 144 -526q0 -361 -163 -565.5t-467 -204.5q-176 0 -307 91zM913 1229q-99 82 -256 82q-186 0 -283 -152t-97 -414q0 -217 77 -378zM1019 1083
l-562 -856q84 -72 200 -72q206 0 313 156t107 434q0 205 -58 338zM876 1918l-226 -333h-140l169 333h197z" />
    <glyph glyph-name="oslashacute" unicode="&#x1ff;" horiz-adv-x="1117" 
d="M270 58l-58 -78h-151l119 162q-119 149 -119 396q0 248 133.5 400.5t351.5 152.5q165 0 278 -76l56 76h150l-117 -159q117 -146 117 -394q0 -259 -130 -408.5t-354 -149.5q-162 0 -276 78zM295 297l424 575q-75 54 -173 54q-134 0 -214.5 -103t-80.5 -285q0 -148 44 -241
zM373 199q69 -64 173 -64q134 0 214 108.5t80 294.5q0 146 -43 237zM770 1618l-226 -333h-140l169 333h197z" />
    <glyph glyph-name="uni0218" unicode="&#x218;" horiz-adv-x="985" 
d="M84 67l73 184q56 -41 139.5 -68.5t149.5 -27.5q117 0 188 64t71 163q0 74 -39.5 137.5t-198.5 138.5l-118 55q-150 70 -209.5 166t-59.5 231q0 164 116 272t298 108q243 0 338 -79l-59 -174q-40 29 -122 56t-152 27q-102 0 -160.5 -58t-58.5 -149q0 -56 21 -102t58.5 -77
t153.5 -87l120 -57q150 -71 210.5 -169.5t60.5 -250.5q0 -165 -132.5 -280t-354.5 -115q-195 0 -333 92zM404 -537l-47 63q72 58 81.5 80.5t9.5 44.5q0 33 -34.5 66.5t-34.5 69.5q0 103 102 103q108 0 108 -124q0 -188 -185 -303z" />
    <glyph glyph-name="uni0219" unicode="&#x219;" horiz-adv-x="829" 
d="M65 64l67 180q159 -104 256 -104q176 0 176 148q0 106 -170 182q-131 60 -176.5 91t-79 70.5t-50 84t-16.5 95.5q0 132 96 206t251 74q117 0 295 -74l-54 -176q-113 90 -227 90q-68 0 -114.5 -32t-46.5 -81q0 -103 117 -156l136 -62q125 -57 182 -130t57 -183
q0 -144 -101 -225.5t-280 -81.5q-169 0 -318 84zM326 -536l-47 63q72 58 81.5 80.5t9.5 44.5q0 33 -34.5 66.5t-34.5 69.5q0 103 102 103q108 0 108 -124q0 -188 -185 -303z" />
    <glyph glyph-name="uni021A" unicode="&#x21a;" horiz-adv-x="1189" 
d="M684 1285v-1285h-200v1285h-466v180h1153v-180h-487zM504 -537l-47 63q72 58 81.5 80.5t9.5 44.5q0 33 -34.5 66.5t-34.5 69.5q0 103 102 103q108 0 108 -124q0 -188 -185 -303z" />
    <glyph glyph-name="uni021B" unicode="&#x21b;" horiz-adv-x="812" 
d="M203 921h-124v150h124v224l190 73v-297h294v-150h-294v-532q0 -135 45.5 -192t146.5 -57q73 0 151 37l28 -167q-118 -30 -259 -30q-127 0 -214.5 94.5t-87.5 238.5v608zM386 -537l-47 63q72 58 81.5 80.5t9.5 44.5q0 33 -34.5 66.5t-34.5 69.5q0 103 102 103
q108 0 108 -124q0 -188 -185 -303z" />
    <glyph glyph-name="circumflex" unicode="&#x2c6;" 
d="M682 1285l-163 189l-178 -189h-172l298 338h107l305 -338h-197z" />
    <glyph glyph-name="caron" unicode="&#x2c7;" 
d="M879 1619l-305 -334h-107l-298 338h172l178 -192l163 188h197z" />
    <glyph glyph-name="uni02C9" unicode="&#x2c9;" 
d="M913 1426v-141h-738v141h738z" />
    <glyph glyph-name="breve" unicode="&#x2d8;" 
d="M870 1610q0 -118 -94 -221.5t-250 -103.5q-149 0 -234 94t-85 231h141q-3 -61 51 -116t127 -55q85 0 143 51.5t58 119.5h143z" />
    <glyph glyph-name="dotaccent" unicode="&#x2d9;" 
d="M535 1520q49 0 83.5 -34.5t34.5 -82.5q0 -49 -34.5 -83.5t-83.5 -34.5q-48 0 -82.5 34.5t-34.5 83.5t34 83t83 34z" />
    <glyph glyph-name="ring" unicode="&#x2da;" 
d="M508 1704q88 0 149.5 -61t61.5 -148t-62 -148.5t-149 -61.5q-88 0 -150 61.5t-62 148.5t62 148t150 61zM508 1395q42 0 71.5 29.5t29.5 70.5t-29.5 70t-71.5 29t-72 -29t-30 -70t30 -70.5t72 -29.5z" />
    <glyph glyph-name="ogonek" unicode="&#x2db;" 
d="M714 -196l67 -142q-96 -35 -178 -35q-117 0 -194.5 69t-77.5 179q0 174 205 286l58 -161q-66 -32 -82 -59.5t-16 -73.5q0 -94 111 -94q54 0 107 31z" />
    <glyph glyph-name="tilde" unicode="&#x2dc;" 
d="M840 1492q-53 -207 -192 -207q-63 0 -138.5 38.5t-106.5 38.5q-71 0 -108 -77h-91q14 84 64.5 145.5t119.5 61.5q82 0 151.5 -38.5t104.5 -38.5q81 0 108 77h88z" />
    <glyph glyph-name="hungarumlaut" unicode="&#x2dd;" 
d="M540 1568l-199 -283h-140l142 283h197zM910 1568l-199 -283h-140l142 283h197z" />
    <glyph glyph-name="uni037E" unicode="&#x37e;" horiz-adv-x="752" 
d="M354 1091q62 0 106 -44t44 -106t-44 -106.5t-106 -44.5t-106 44.5t-44 106.5t44 106t106 44zM224 -363l-51 72q172 141 172 240q0 44 -30 88q-86 41 -86 118q0 53 41 87.5t103 34.5q55 0 98.5 -48t43.5 -112q0 -133 -55.5 -239.5t-235.5 -240.5z" />
    <glyph glyph-name="tonos" unicode="&#x384;" horiz-adv-x="1073" 
d="M731 1618l-178 -334h-158l111 334h225z" />
    <glyph glyph-name="dieresistonos" unicode="&#x385;" horiz-adv-x="1073" 
d="M672 1618l-117 -354h-117l58 354h176zM823 1518q49 0 83 -32t34 -79t-33.5 -81t-81.5 -34q-47 0 -79.5 33.5t-32.5 81.5t31.5 79.5t78.5 31.5zM358 1407h2q0 -48 -32.5 -81.5t-79.5 -33.5q-49 0 -82 33.5t-33 81.5q0 47 32.5 79t80.5 32q47 0 79.5 -32t32.5 -79z" />
    <glyph glyph-name="Alphatonos" unicode="&#x386;" horiz-adv-x="1208" 
d="M981 0l-100 309h-545l-109 -309h-223l594 1485h53l553 -1485h-223zM616 1102l-227 -645h434zM373 1464l-164 -350h-154l101 350h217z" />
    <glyph glyph-name="anoteleia" unicode="&#x387;" horiz-adv-x="754" 
d="M356 805q62 0 107 -45t45 -107q0 -54 -42 -102.5t-110 -48.5q-61 0 -105 44t-44 107q0 65 44.5 108.5t104.5 43.5z" />
    <glyph glyph-name="Epsilontonos" unicode="&#x388;" horiz-adv-x="1323" 
d="M575 1284v-405h484v-170h-484v-529h664v-180h-864v1464h874v-180h-674zM223 1464l-164 -350h-153l100 350h217z" />
    <glyph glyph-name="Etatonos" unicode="&#x389;" horiz-adv-x="1565" 
d="M1214 0v709h-639v-709h-200v1464h200v-585h639v585h201v-1464h-201zM223 1464l-164 -350h-153l100 350h217z" />
    <glyph glyph-name="Iotatonos" unicode="&#x38a;" horiz-adv-x="760" 
d="M375 0v1464h200v-1464h-200zM223 1464l-164 -350h-153l100 350h217z" />
    <glyph glyph-name="Omicrontonos" unicode="&#x38c;" horiz-adv-x="1483" 
d="M182 745q0 223 78.5 394.5t207 261.5t304.5 90q308 0 469.5 -199t161.5 -547q0 -358 -163 -564t-468 -206q-279 0 -434.5 216t-155.5 554zM393 745q0 -247 96.5 -418t282.5 -171q206 0 313 153.5t107 435.5q0 566 -420 566q-182 0 -280.5 -148.5t-98.5 -417.5zM223 1464
l-164 -350h-153l100 350h217z" />
    <glyph glyph-name="Upsilontonos" unicode="&#x38e;" horiz-adv-x="1462" 
d="M1004 655v-655h-199v655l-473 809h207l364 -639l365 639h207zM223 1464l-164 -350h-153l100 350h217z" />
    <glyph glyph-name="Omegatonos" unicode="&#x38f;" horiz-adv-x="1520" 
d="M1448 0h-555v51q155 194 238 371.5t83 370.5q0 252 -106 389t-299 137q-189 0 -295 -144.5t-106 -371.5q0 -189 82.5 -368.5t238.5 -383.5v-51h-555v172q183 0 279 -10q-256 310 -256 639q0 299 168.5 498.5t445.5 199.5q289 0 451.5 -191.5t162.5 -508.5
q0 -151 -67.5 -324t-192.5 -313q96 10 283 10v-172zM223 1464l-164 -350h-153l100 350h217z" />
    <glyph glyph-name="iotadieresistonos" unicode="&#x390;" horiz-adv-x="569" 
d="M483 -18q-331 0 -331 309v780h192v-756q0 -163 139 -174v-159zM399 1618l-118 -354h-115l57 354h176zM551 1518q48 0 81.5 -32t33.5 -79t-34 -81t-81 -34t-79 33.5t-32 81.5q0 47 31.5 79t79.5 32zM-27 1518q48 0 80.5 -32t32.5 -79q0 -48 -32.5 -81.5t-80.5 -33.5
t-80 33.5t-32 81.5q0 47 32.5 79t79.5 32z" />
    <glyph glyph-name="Alpha" unicode="&#x391;" horiz-adv-x="1208" 
d="M981 0l-100 309h-545l-109 -309h-223l594 1485h53l553 -1485h-223zM616 1102l-227 -645h434z" />
    <glyph glyph-name="Beta" unicode="&#x392;" horiz-adv-x="1159" 
d="M567 0h-417v1464q249 15 385 15q212 0 333 -92.5t121 -270.5q0 -99 -75.5 -184t-168.5 -107q334 -74 334 -401q0 -194 -141 -309t-371 -115zM350 1305v-420q62 -6 156 -6q285 0 285 231q0 203 -263 203q-74 0 -178 -8zM350 729v-559q112 -10 158 -10q182 0 271 68.5
t89 226.5q0 148 -85.5 213.5t-245.5 65.5q-9 0 -187 -5z" />
    <glyph glyph-name="Gamma" unicode="&#x393;" horiz-adv-x="1044" 
d="M1004 1284h-652v-1284h-202v1464h854v-180z" />
    <glyph glyph-name="uni0394" unicode="&#x394;" horiz-adv-x="1198" 
d="M25 0v124l526 1341h144l480 -1341v-124h-1150zM619 1216l-376 -1046h725z" />
    <glyph glyph-name="Epsilon" unicode="&#x395;" horiz-adv-x="1098" 
d="M350 1284v-405h484v-170h-484v-529h664v-180h-864v1464h874v-180h-674z" />
    <glyph glyph-name="Zeta" unicode="&#x396;" horiz-adv-x="1126" 
d="M100 0v49l629 1235h-618v180h895v-49l-633 -1235h653v-180h-926z" />
    <glyph glyph-name="Eta" unicode="&#x397;" horiz-adv-x="1339" 
d="M989 0v709h-639v-709h-200v1464h200v-585h639v585h201v-1464h-201z" />
    <glyph glyph-name="Theta" unicode="&#x398;" horiz-adv-x="1415" 
d="M713 1491q174 0 322 -85.5t224 -263.5t76 -397q0 -358 -175 -564t-455 -206q-292 0 -458.5 206t-166.5 564q0 202 74 373t218.5 272t340.5 101zM709 152q201 0 310 145t109 448q0 272 -110 421t-311 149q-202 0 -311 -150t-109 -420q0 -281 110.5 -437t311.5 -156z
M997 664h-579v176h579v-176z" />
    <glyph glyph-name="Iota" unicode="&#x399;" horiz-adv-x="569" 
d="M184 0v1464h201v-1464h-201z" />
    <glyph glyph-name="Kappa" unicode="&#x39a;" horiz-adv-x="1180" 
d="M958 0l-413 674l-195 -277v-397h-200v1464h200v-796l545 796h221l-436 -635l500 -829h-222z" />
    <glyph glyph-name="Lambda" unicode="&#x39b;" horiz-adv-x="1200" 
d="M1192 0h-225l-359 1071l-377 -1071h-223l580 1485h53z" />
    <glyph glyph-name="Mu" unicode="&#x39c;" horiz-adv-x="1452" 
d="M1253 0l-174 940l-319 -960h-51l-328 960l-170 -940h-191l275 1464h90l348 -1069l324 1069h90l297 -1464h-191z" />
    <glyph glyph-name="Nu" unicode="&#x39d;" horiz-adv-x="1307" 
d="M1098 -20l-758 1071v-1051h-190v1464h79l738 -1011v1011h190v-1484h-59z" />
    <glyph glyph-name="Xi" unicode="&#x39e;" horiz-adv-x="1223" 
d="M1120 0h-1018v170h412v541h-299v159h299v426h-399v168h993v-168h-399v-426h299v-159h-299v-541h411v-170z" />
    <glyph glyph-name="Omicron" unicode="&#x39f;" horiz-adv-x="1380" 
d="M80 745q0 319 159.5 532.5t430.5 213.5q307 0 468.5 -199t161.5 -547q0 -358 -162.5 -564t-467.5 -206q-280 0 -435 216t-155 554zM291 745q0 -254 98.5 -421.5t280.5 -167.5q206 0 313 153.5t107 435.5q0 566 -420 566q-182 0 -280.5 -148.5t-98.5 -417.5z" />
    <glyph glyph-name="Pi" unicode="&#x3a0;" horiz-adv-x="1300" 
d="M1151 0h-201v1284h-600v-1284h-200v1464h1001v-1464z" />
    <glyph glyph-name="Rho" unicode="&#x3a1;" horiz-adv-x="1143" 
d="M350 563v-563h-200v1464q189 11 274 11q639 0 639 -426q0 -494 -565 -494q-47 0 -148 8zM350 1284v-541l133 -10q373 0 373 293q0 268 -397 268q-52 0 -109 -10z" />
    <glyph glyph-name="Sigma" unicode="&#x3a3;" horiz-adv-x="1110" 
d="M1040 1284h-616l373 -483l-441 -621h676v-180h-991v49l522 731l-483 637v47h960v-180z" />
    <glyph glyph-name="Tau" unicode="&#x3a4;" horiz-adv-x="1190" 
d="M684 1284v-1284h-201v1284h-465v180h1153v-180h-487z" />
    <glyph glyph-name="Upsilon" unicode="&#x3a5;" horiz-adv-x="1167" 
d="M709 655v-655h-199v655l-473 809h207l364 -639l365 639h207z" />
    <glyph glyph-name="Phi" unicode="&#x3a6;" horiz-adv-x="1561" 
d="M879 1372q275 -13 440.5 -184.5t165.5 -433.5q0 -267 -163 -447t-443 -192v-152h-199v152q-275 13 -440.5 186.5t-165.5 435.5q0 267 162.5 445t443.5 190v152h199v-152zM877 270q195 9 301 138t106 342q0 203 -106.5 330.5t-300.5 136.5v-947zM682 270v947
q-196 -9 -302 -136.5t-106 -339.5q0 -203 107 -332.5t301 -138.5z" />
    <glyph glyph-name="Chi" unicode="&#x3a7;" horiz-adv-x="1141" 
d="M915 0l-364 588l-336 -588h-203l432 760l-397 706l199 -2l311 -553l346 553h201l-455 -708l477 -756h-211z" />
    <glyph glyph-name="Psi" unicode="&#x3a8;" horiz-adv-x="1583" 
d="M1464 907q0 -234 -152 -382t-419 -173v-356h-199v354q-271 19 -423 163t-152 378v573h198v-555q0 -163 99 -271.5t280 -123.5v950h195v-950q180 16 277.5 123.5t97.5 263.5v563h198v-557z" />
    <glyph glyph-name="uni03A9" unicode="&#x3a9;" horiz-adv-x="1370" 
d="M1295 0h-500v152q161 148 225.5 285.5t64.5 307.5q0 566 -415 566q-187 0 -286 -153t-99 -413q0 -154 86.5 -337t203.5 -258v-150h-500v150h269q-269 209 -269 595q0 317 161.5 531.5t433.5 214.5q304 0 464.5 -196t160.5 -550q0 -183 -76 -342.5t-213 -252.5h289v-150z
" />
    <glyph glyph-name="Iotadieresis" unicode="&#x3aa;" horiz-adv-x="569" 
d="M184 0v1464h201v-1464h-201zM522 1819q48 0 81.5 -33t33.5 -80q0 -48 -33.5 -80.5t-81.5 -32.5q-47 0 -78.5 32.5t-31.5 80.5t31.5 80.5t78.5 32.5zM49 1819q48 0 80.5 -33t32.5 -80q0 -48 -32.5 -80.5t-80.5 -32.5q-47 0 -79.5 33t-32.5 80t32.5 80t79.5 33z" />
    <glyph glyph-name="Upsilondieresis" unicode="&#x3ab;" horiz-adv-x="1167" 
d="M709 655v-655h-199v655l-473 809h207l364 -639l365 639h207zM846 1819q47 0 79.5 -33t32.5 -80q0 -48 -32.5 -80.5t-79.5 -32.5q-48 0 -80.5 33t-32.5 80t32.5 80t80.5 33zM371 1819q47 0 80.5 -33t33.5 -80t-33.5 -80t-80.5 -33q-48 0 -80.5 33t-32.5 80q0 48 32.5 80.5
t80.5 32.5z" />
    <glyph glyph-name="alphatonos" unicode="&#x3ac;" horiz-adv-x="1192" 
d="M1112 -18q-134 0 -192 32t-84 113q-109 -147 -301 -147q-207 0 -331 146.5t-124 403.5q0 247 136 404.5t362 157.5q149 0 268 -111q36 63 91.5 87t162.5 24v-109q-52 -20 -72 -55t-20 -109v-540q0 -89 25 -128.5t79 -54.5v-114zM817 270v572q-94 90 -207 90
q-156 0 -242.5 -108t-86.5 -292q0 -188 87 -289.5t222 -101.5q130 0 227 129zM825 1618l-178 -334h-158l111 334h225z" />
    <glyph glyph-name="epsilontonos" unicode="&#x3ad;" horiz-adv-x="956" 
d="M897 104q-187 -124 -401 -124q-197 0 -304.5 84t-107.5 223q0 181 231 266q-95 24 -149.5 86t-54.5 137q0 139 103 227.5t288 88.5q162 0 348 -84l-70 -154q-161 82 -291 82q-82 0 -131 -40t-49 -110q0 -72 56.5 -112.5t162.5 -40.5q79 0 138 4v-154q-54 6 -154 6
q-107 0 -166 -50.5t-59 -137.5q0 -78 59 -122t168 -44q156 0 293 113zM743 1618l-178 -334h-157l110 334h225z" />
    <glyph glyph-name="etatonos" unicode="&#x3ae;" horiz-adv-x="1126" 
d="M983 -279l-188 -47v949q0 177 -56 243t-164 66q-69 0 -136 -43t-105 -101v-788h-191v1071h129l60 -133q114 154 307 154q168 0 256 -112.5t88 -328.5v-930zM834 1618l-179 -334h-157l110 334h226z" />
    <glyph glyph-name="iotatonos" unicode="&#x3af;" horiz-adv-x="569" 
d="M483 -18q-331 0 -331 309v780h192v-756q0 -163 139 -174v-159zM489 1618l-178 -334h-157l110 334h225z" />
    <glyph glyph-name="upsilondieresistonos" unicode="&#x3b0;" horiz-adv-x="1128" 
d="M987 465q0 -259 -104.5 -371t-327.5 -112q-216 0 -318 116t-102 363v614h191v-624q0 -316 229 -316q127 0 185.5 75t58.5 236v629h188v-610zM690 1618l-119 -354h-114l57 354h176zM842 1518q48 0 81 -32t33 -79t-33.5 -81t-80.5 -34t-79 33.5t-32 81.5q0 47 31.5 79
t79.5 32zM264 1518q48 0 80.5 -32t32.5 -79q0 -48 -33 -81.5t-80 -33.5q-48 0 -80 33.5t-32 81.5q0 47 32 79t80 32z" />
    <glyph glyph-name="alpha" unicode="&#x3b1;" horiz-adv-x="1192" 
d="M1112 -18q-134 0 -192 32t-84 113q-109 -147 -301 -147q-207 0 -331 146.5t-124 403.5q0 247 136 404.5t362 157.5q149 0 268 -111q36 63 91.5 87t162.5 24v-109q-52 -20 -72 -55t-20 -109v-540q0 -89 25 -128.5t79 -54.5v-114zM817 270v572q-94 90 -207 90
q-156 0 -242.5 -108t-86.5 -292q0 -188 87 -289.5t222 -101.5q130 0 227 129z" />
    <glyph glyph-name="beta" unicode="&#x3b2;" horiz-adv-x="1155" 
d="M711 848q176 -34 269 -141.5t93 -266.5q0 -201 -129.5 -330.5t-329.5 -129.5q-203 0 -309 106l-69 -104h-93v1067q0 209 112.5 338t313.5 129q173 0 282.5 -96.5t109.5 -254.5q0 -105 -69.5 -192.5t-180.5 -124.5zM330 909h162q125 0 201.5 70.5t76.5 181.5
q0 90 -55.5 146.5t-149.5 56.5q-112 0 -173.5 -79.5t-61.5 -227.5v-148zM330 236q43 -47 110 -75t129 -28q143 0 225.5 81.5t82.5 219.5q0 148 -100 238t-292 90h-155v-526z" />
    <glyph glyph-name="gamma" unicode="&#x3b3;" horiz-adv-x="1112" 
d="M1092 1071l-428 -1030v-461h-195v445q-106 364 -192.5 584t-133.5 264.5t-114 44.5v161q122 0 185.5 -28.5t111.5 -98t116.5 -262t137.5 -440.5l309 821h203z" />
    <glyph glyph-name="delta" unicode="&#x3b4;" horiz-adv-x="1133" 
d="M588 1356q45 -35 207.5 -233t204.5 -322t42 -266q0 -248 -128.5 -401.5t-356.5 -153.5q-229 0 -356 151t-127 408q0 150 56 276t157 196t221 70q52 0 98 -10l-307 385v53h688v-153h-399zM842 539q0 239 -135 389q-58 18 -127 18q-148 0 -228 -112t-80 -295
q0 -404 285 -404q138 0 211.5 111t73.5 293z" />
    <glyph glyph-name="epsilon" unicode="&#x3b5;" horiz-adv-x="956" 
d="M897 104q-187 -124 -401 -124q-197 0 -304.5 84t-107.5 223q0 181 231 266q-95 24 -149.5 86t-54.5 137q0 139 103 227.5t288 88.5q162 0 348 -84l-70 -154q-161 82 -291 82q-82 0 -131 -40t-49 -110q0 -72 56.5 -112.5t162.5 -40.5q76 0 138 4v-154q-54 6 -154 6
q-107 0 -166 -50.5t-59 -137.5q0 -78 59 -122t168 -44q156 0 293 113z" />
    <glyph glyph-name="zeta" unicode="&#x3b6;" horiz-adv-x="907" 
d="M909 1456q-321 -344 -473.5 -582t-152.5 -442q0 -131 65.5 -199.5t237.5 -80.5q151 -11 235 -83.5t84 -197.5q0 -128 -95 -209.5t-239 -81.5q-67 0 -125 14l35 154q50 -18 99 -18q63 0 103 33t40 92q0 55 -33.5 87t-79 40t-139.5 14q-182 5 -289.5 113.5t-107.5 298.5
q0 204 122.5 422.5t417.5 523.5h-397v155h692v-53z" />
    <glyph glyph-name="eta" unicode="&#x3b7;" horiz-adv-x="1126" 
d="M983 -279l-188 -47v949q0 177 -56 243t-164 66q-69 0 -136 -43t-105 -101v-788h-191v1071h129l60 -133q114 154 307 154q168 0 256 -112.5t88 -328.5v-930z" />
    <glyph glyph-name="theta" unicode="&#x3b8;" horiz-adv-x="1114" 
d="M561 1516q217 0 341 -198.5t124 -561.5q0 -380 -121.5 -578t-351.5 -198q-219 0 -342 196t-123 559q0 379 123 580t350 201zM829 854q-5 217 -73.5 362.5t-202.5 145.5q-245 0 -268 -508h544zM831 702h-548q13 -569 278 -569q262 0 270 569z" />
    <glyph glyph-name="iota" unicode="&#x3b9;" horiz-adv-x="569" 
d="M483 -18q-331 0 -331 309v780h192v-756q0 -163 139 -174v-159z" />
    <glyph glyph-name="kappa" unicode="&#x3ba;" horiz-adv-x="1116" 
d="M1075 0h-248l-331 485l-160 -178v-307h-191v1071h191v-530l442 530h242l-399 -450z" />
    <glyph glyph-name="lambda" unicode="&#x3bb;" horiz-adv-x="1085" 
d="M1063 0h-211l-272 868l-342 -868h-211l465 1090q-40 140 -77 204t-122 64q-52 0 -133 -37l-51 160q116 35 208 35q151 0 223 -82.5t119 -225.5z" />
    <glyph glyph-name="uni03BC" unicode="&#x3bc;" horiz-adv-x="1119" 
d="M325 18v-438h-190v1491h190v-623q0 -302 235 -302q84 0 148 43.5t87 105.5v776h190v-1071h-190v148q-34 -75 -112 -121.5t-175 -46.5q-108 0 -183 38z" />
    <glyph glyph-name="nu" unicode="&#x3bd;" horiz-adv-x="1020" 
d="M999 1071l-469 -1091h-49l-461 1091h213l281 -737l281 737h204z" />
    <glyph glyph-name="xi" unicode="&#x3be;" horiz-adv-x="942" 
d="M809 748h-174q-129 0 -239.5 -92.5t-110.5 -247.5q0 -120 64.5 -183t252.5 -75q153 -9 238.5 -81t85.5 -198t-95 -208.5t-239 -82.5q-78 0 -137 14l34 154q52 -18 111 -18q64 0 103.5 33t39.5 92q0 67 -44 99.5t-112 36.5l-98 5q-187 5 -299 108t-112 279q0 153 86 267
t239 169q-124 23 -196 107.5t-72 203.5q0 177 124 281.5t323 104.5q159 0 305 -60l-62 -160q-112 64 -252 64q-110 0 -173.5 -55.5t-63.5 -155.5q0 -116 87.5 -181t242.5 -65h143v-155z" />
    <glyph glyph-name="omicron" unicode="&#x3bf;" horiz-adv-x="1116" 
d="M559 1092q230 0 356.5 -148.5t126.5 -404.5q0 -265 -133 -412t-350 -147q-228 0 -356.5 150t-128.5 409q0 247 134 400t351 153zM559 135q134 0 208.5 111t74.5 293q0 397 -283 397q-133 0 -210 -108t-77 -289q0 -404 287 -404z" />
    <glyph glyph-name="pi" unicode="&#x3c0;" horiz-adv-x="1232" 
d="M982 0h-193v911h-337v-911h-193v911h-167v160h1048v-160h-158v-911z" />
    <glyph glyph-name="rho" unicode="&#x3c1;" horiz-adv-x="1169" 
d="M129 -420v877q0 328 128 481.5t343 153.5q229 0 358 -152t129 -403q0 -248 -130 -402.5t-353 -154.5q-180 0 -285 83v-483h-190zM324 217q96 -78 237 -78q158 0 242 100t84 289q0 193 -78 300.5t-209 107.5q-130 0 -203 -116.5t-73 -305.5v-297z" />
    <glyph glyph-name="sigma1" unicode="&#x3c2;" horiz-adv-x="940" 
d="M825 864q-101 68 -221 68q-153 0 -242.5 -109.5t-89.5 -298.5q0 -284 342 -352q165 -33 242.5 -103.5t77.5 -197.5t-94 -209t-236 -82q-69 0 -127 14l33 154q50 -18 100 -18q65 0 103.5 32.5t38.5 92.5q0 62 -39 101t-176 58q-221 29 -342 163t-121 347q0 262 148 415
t392 153q170 0 295 -91z" />
    <glyph glyph-name="sigma" unicode="&#x3c3;" horiz-adv-x="1167" 
d="M1122 913h-319q117 -88 181.5 -201.5t64.5 -228.5q0 -216 -131 -359.5t-355 -143.5q-226 0 -357.5 145.5t-131.5 384.5q0 253 146 407t386 154h516v-158zM848 481q0 121 -66.5 238.5t-171.5 193.5q-162 0 -250 -103.5t-88 -287.5q0 -176 78.5 -281.5t220.5 -105.5
q134 0 205.5 97t71.5 249z" />
    <glyph glyph-name="tau" unicode="&#x3c4;" horiz-adv-x="905" 
d="M862 911h-364v-608q0 -82 27.5 -121t90.5 -39q46 0 107 25l25 -160q-86 -26 -168 -26q-132 0 -202.5 75.5t-70.5 216.5v637h-270v160h825v-160z" />
    <glyph glyph-name="upsilon" unicode="&#x3c5;" horiz-adv-x="1128" 
d="M991 467q0 -485 -438 -485q-211 0 -313.5 119t-102.5 364v606h191v-622q0 -314 231 -314q127 0 184.5 74t57.5 235v627h190v-604z" />
    <glyph glyph-name="phi" unicode="&#x3c6;" horiz-adv-x="1446" 
d="M629 131v565q0 203 84 300.5t229 97.5q191 0 307.5 -155.5t116.5 -389.5q0 -238 -143.5 -392.5t-405.5 -174.5v-402h-190v402q-267 14 -409 159.5t-142 382.5q0 179 81 329.5t232 240.5l103 -131q-224 -158 -224 -447q0 -161 98 -266t263 -119zM815 129q169 15 265 121.5
t96 275.5q0 176 -66 296t-168 120q-127 0 -127 -213v-600z" />
    <glyph glyph-name="chi" unicode="&#x3c7;" horiz-adv-x="1042" 
d="M1022 0h-236l-274 410l-266 -410h-226l398 549l-365 522h223l240 -377l254 377h215l-377 -514z" />
    <glyph glyph-name="psi" unicode="&#x3c8;" horiz-adv-x="1475" 
d="M1341 537q0 -248 -128 -391.5t-377 -163.5v-402h-191v402q-512 35 -512 546v543h191v-547q0 -169 82 -273t241 -120v940h187v-942q159 16 240 118t81 275v549h186v-534z" />
    <glyph glyph-name="omega" unicode="&#x3c9;" horiz-adv-x="1556" 
d="M1178 1100q299 -248 299 -615q0 -236 -106 -370.5t-302 -134.5q-198 0 -291 196q-101 -196 -293 -196q-193 0 -299 131.5t-106 361.5q0 378 303 627l127 -117q-114 -95 -175 -228t-61 -274q0 -167 59 -256.5t165 -89.5q44 0 79.5 20t72 77.5t36.5 74.5v199q0 160 -8 268
h196q-8 -97 -8 -262v-182q40 -109 89 -152t128 -43q199 0 199 342q0 299 -238 504z" />
    <glyph glyph-name="iotadieresis" unicode="&#x3ca;" horiz-adv-x="569" 
d="M483 -18q-331 0 -331 309v780h192v-756q0 -163 139 -174v-159zM489 1518q48 0 80.5 -32t32.5 -79q0 -48 -32 -81.5t-81 -33.5q-47 0 -79.5 33.5t-32.5 81.5q0 47 32.5 79t79.5 32zM16 1518q48 0 79.5 -32t31.5 -79q0 -48 -31.5 -81.5t-79.5 -33.5t-80 33.5t-32 81.5
q0 47 32.5 79t79.5 32z" />
    <glyph glyph-name="upsilondieresis" unicode="&#x3cb;" horiz-adv-x="1128" 
d="M987 465q0 -259 -104.5 -371t-327.5 -112q-216 0 -318 116t-102 363v614h191v-624q0 -316 229 -316q127 0 185.5 75t58.5 236v629h188v-610zM799 1518q47 0 79.5 -32t32.5 -79q0 -48 -32 -81.5t-80 -33.5q-47 0 -80 33.5t-33 81.5q0 47 32.5 79t80.5 32zM326 1518
q47 0 79.5 -32t32.5 -79q0 -48 -32.5 -81.5t-79.5 -33.5q-48 0 -80.5 33.5t-32.5 81.5q0 47 32.5 79t80.5 32z" />
    <glyph glyph-name="omicrontonos" unicode="&#x3cc;" horiz-adv-x="1116" 
d="M559 1092q230 0 356.5 -148.5t126.5 -404.5q0 -265 -133 -412t-350 -147q-228 0 -356.5 150t-128.5 409q0 247 134 400t351 153zM559 135q134 0 208.5 111t74.5 293q0 397 -283 397q-133 0 -210 -108t-77 -289q0 -404 287 -404zM799 1618l-178 -334h-158l117 334h219z
" />
    <glyph glyph-name="upsilontonos" unicode="&#x3cd;" horiz-adv-x="1128" 
d="M991 467q0 -485 -438 -485q-211 0 -313.5 119t-102.5 364v606h191v-622q0 -314 231 -314q127 0 184.5 74t57.5 235v627h190v-604zM809 1618l-178 -334h-162l102 334h238z" />
    <glyph glyph-name="omegatonos" unicode="&#x3ce;" horiz-adv-x="1556" 
d="M1178 1100q147 -122 223 -281t76 -334q0 -237 -106 -371t-302 -134q-198 0 -291 196q-101 -196 -293 -196q-193 0 -299 131.5t-106 361.5q0 378 303 627l127 -117q-114 -95 -175 -228t-61 -274q0 -167 59 -256.5t165 -89.5q45 0 80.5 19.5t71.5 78t36 74.5v199
q0 160 -8 268h196q-8 -97 -8 -262v-182q40 -109 89 -152t128 -43q199 0 199 342q0 297 -238 504zM1032 1618l-178 -334h-158l111 334h225z" />
    <glyph glyph-name="uni0401" unicode="&#x401;" horiz-adv-x="1112" 
d="M350 1284v-405h484v-170h-484v-529h664v-180h-864v1464h874v-180h-674zM799 1812q44 0 78 -31.5t34 -80.5q0 -47 -32.5 -80t-79.5 -33q-50 0 -81.5 34.5t-31.5 78.5q0 54 36.5 83t76.5 29zM399 1812q47 0 80 -32.5t33 -79.5q0 -46 -32 -79.5t-81 -33.5t-80.5 34.5
t-31.5 78.5q0 46 33 79t79 33z" />
    <glyph glyph-name="uni0402" unicode="&#x402;" horiz-adv-x="1493" 
d="M1421 436q0 -138 -53 -238.5t-148.5 -154t-207.5 -53.5q-69 0 -127 8v166q67 -8 106 -8q103 0 163 70t60 198v29q0 136 -79.5 209t-225.5 73q-127 0 -247 -24v-711h-199v1288h-406v176h1078v-176h-473v-414q115 25 245 25q245 0 379.5 -116.5t134.5 -331.5v-15z" />
    <glyph glyph-name="uni0403" unicode="&#x403;" horiz-adv-x="1065" 
d="M1004 1284h-652v-1284h-202v1464h854v-180zM868 1919l-225 -334h-139l168 334h196z" />
    <glyph glyph-name="uni0404" unicode="&#x404;" horiz-adv-x="1198" 
d="M1145 147q-173 -172 -449 -172q-290 0 -453 209t-163 543q0 321 173.5 542.5t473.5 221.5q195 0 358 -80l-67 -170q-134 76 -299 76q-173 0 -284 -121t-142 -340h545v-162h-555q10 -250 126 -397t308 -147q201 0 317 149z" />
    <glyph glyph-name="uni0405" unicode="&#x405;" horiz-adv-x="993" 
d="M88 68l74 184q58 -43 140 -69.5t149 -26.5q112 0 185 61.5t73 165.5q0 79 -36.5 131.5t-90 84.5t-146.5 74q-114 51 -184 96.5t-119 128t-49 212.5q0 173 119.5 277t294.5 104q241 0 338 -80l-60 -174q-50 36 -131.5 60t-140.5 24q-98 0 -158.5 -57t-60.5 -152
q0 -76 34.5 -126.5t86 -81t141.5 -70.5q116 -51 187.5 -98t122 -135.5t50.5 -229.5q0 -181 -141 -288.5t-344 -107.5q-195 0 -334 93z" />
    <glyph glyph-name="uni0406" unicode="&#x406;" horiz-adv-x="569" 
d="M184 0v1464h201v-1464h-201z" />
    <glyph glyph-name="uni0407" unicode="&#x407;" horiz-adv-x="569" 
d="M184 0v1464h201v-1464h-201zM483 1812q46 0 79.5 -31.5t33.5 -78.5q0 -44 -31.5 -79.5t-81.5 -35.5q-44 0 -78 33.5t-34 81.5q0 44 32.5 77t79.5 33zM86 1812q46 0 78.5 -32t32.5 -78q0 -49 -34.5 -82t-76.5 -33q-46 0 -80.5 33.5t-34.5 81.5q0 44 32.5 77t82.5 33z" />
    <glyph glyph-name="uni0408" unicode="&#x408;" horiz-adv-x="961" 
d="M45 293h174q25 -133 160 -133q142 0 193 62.5t51 316.5v925h198v-917q0 -323 -104.5 -445t-335.5 -122q-142 0 -234.5 84t-101.5 229z" />
    <glyph glyph-name="uni0409" unicode="&#x409;" horiz-adv-x="1989" 
d="M1198 909q110 11 170 11q254 0 395.5 -118t141.5 -337q0 -216 -143.5 -340.5t-372.5 -124.5h-388v1288h-270q-68 -377 -155 -669.5t-172.5 -421.5t-170 -169t-202.5 -40v182q80 0 139 44.5t136.5 210.5t141 416.5t140.5 622.5h610v-555zM1196 170q82 -10 152 -10
q356 0 356 309q0 140 -90 213.5t-254 73.5q-74 0 -164 -11v-575z" />
    <glyph glyph-name="uni040A" unicode="&#x40a;" horiz-adv-x="1870" 
d="M1079 909q110 11 170 11q254 0 395.5 -118t141.5 -337q0 -216 -143 -340.5t-373 -124.5h-387v709h-537v-709h-196v1464h196v-585h537v585h196v-555zM1077 170q82 -10 152 -10q356 0 356 309q0 138 -89 212.5t-255 74.5q-74 0 -164 -11v-575z" />
    <glyph glyph-name="uni040B" unicode="&#x40b;" horiz-adv-x="1520" 
d="M1393 0h-203v457q0 136 -77 207t-222 71q-102 0 -229 -24v-711h-199v1288h-406v176h1073v-176h-468v-414q118 25 227 25q238 0 371 -115.5t133 -328.5v-455z" />
    <glyph glyph-name="uni040C" unicode="&#x40c;" horiz-adv-x="1253" 
d="M1161 -6q-15 -4 -74 -4q-125 0 -183 64.5t-85 221.5q-36 215 -148 313.5t-313 98.5h-8v-688h-200v1464h200v-606h19q187 0 300.5 86.5t141.5 251.5q25 147 81.5 212t176.5 65q39 0 70 -5v-172q-7 2 -41 2q-38 0 -58.5 -25.5t-38.5 -113.5q-28 -141 -119 -243.5
t-229 -141.5q302 -105 367 -450q19 -100 41.5 -128t56.5 -28q21 0 43 4v-178zM907 1919l-225 -334h-139l168 334h196z" />
    <glyph glyph-name="uni040D" unicode="&#x40d;" horiz-adv-x="1376" 
d="M1227 0h-201v1051l-823 -1071h-53v1484h200v-1050l824 1071h53v-1485zM659 1585l-226 333h197l169 -333h-140z" />
    <glyph glyph-name="uni040E" unicode="&#x40e;" horiz-adv-x="1182" 
d="M1169 1464q-129 -488 -301 -839.5t-339.5 -495t-395.5 -143.5v194q242 0 383 230l-502 1054h228l397 -893q205 417 313 893h217zM973 1888q-67 -307 -359 -307q-291 0 -358 307l170 39q37 -205 188 -205q170 0 197 203z" />
    <glyph glyph-name="uni040F" unicode="&#x40f;" horiz-adv-x="1300" 
d="M1151 0h-408v-420h-186v420h-407v1464h200v-1286h600v1286h201v-1464z" />
    <glyph glyph-name="uni0410" unicode="&#x410;" horiz-adv-x="1217" 
d="M985 0l-100 309h-545l-109 -309h-223l594 1485h53l553 -1485h-223zM621 1102l-228 -645h434z" />
    <glyph glyph-name="uni0411" unicode="&#x411;" horiz-adv-x="1165" 
d="M350 885q112 10 191 10q259 0 399.5 -114t140.5 -328q0 -213 -142.5 -333t-377.5 -120h-411v1464h829v-174h-629v-405zM350 170q137 -10 168 -10q352 0 352 299q0 274 -342 274q-89 0 -178 -10v-553z" />
    <glyph glyph-name="uni0412" unicode="&#x412;" horiz-adv-x="1163" 
d="M567 0h-417v1464q249 15 385 15q212 0 333 -92.5t121 -270.5q0 -99 -75.5 -184t-168.5 -107q334 -74 334 -401q0 -194 -141 -309t-371 -115zM350 1305v-420q62 -6 156 -6q285 0 285 231q0 203 -263 203q-74 0 -178 -8zM350 729v-559q112 -10 158 -10q182 0 271 68.5
t89 226.5q0 148 -85.5 213.5t-245.5 65.5q-9 0 -187 -5z" />
    <glyph glyph-name="uni0413" unicode="&#x413;" horiz-adv-x="1065" 
d="M1004 1284h-652v-1284h-202v1464h854v-180z" />
    <glyph glyph-name="uni0414" unicode="&#x414;" horiz-adv-x="1415" 
d="M1370 -420h-182v420h-977v-420h-182v588h86q141 186 233 377.5t147.5 382.5t129.5 536h589v-1296h156v-588zM1022 168v1128h-260q-133 -703 -440 -1128h700z" />
    <glyph glyph-name="uni0415" unicode="&#x415;" horiz-adv-x="1112" 
d="M350 1284v-405h484v-170h-484v-529h664v-180h-864v1464h874v-180h-674z" />
    <glyph glyph-name="uni0416" unicode="&#x416;" horiz-adv-x="1829" 
d="M1741 -6q-16 -4 -68 -4q-122 0 -178 64.5t-82 224.5q-36 224 -130.5 318.5t-264.5 94.5v-692h-197v692q-179 0 -276.5 -95.5t-132.5 -317.5q-25 -155 -81.5 -222t-172.5 -67q-55 0 -70 4v178q23 -4 43 -4q45 0 66 43t32 113q30 176 110.5 282.5t219.5 163.5
q-262 68 -315 389q-11 66 -28.5 102.5t-65.5 36.5q-36 0 -44 -2v172q33 5 68 5q119 0 176.5 -66.5t81.5 -212.5q29 -177 121.5 -257.5t267.5 -80.5v608h197v-608q169 0 262 82.5t121 255.5q24 147 80 213t174 66q35 0 67 -5v-172q-8 2 -45 2q-32 0 -53.5 -25t-38.5 -114
q-27 -144 -110 -245.5t-209 -139.5q145 -60 226.5 -165.5t111.5 -284.5q10 -67 29.5 -111.5t64.5 -44.5q20 0 43 4v-178z" />
    <glyph glyph-name="uni0417" unicode="&#x417;" horiz-adv-x="1075" 
d="M688 791q147 -39 225 -133.5t78 -229.5q0 -209 -144 -331t-390 -122q-255 0 -404 97l74 182q156 -107 346 -107q145 0 230 75t85 198q0 137 -96.5 213t-265.5 76q-51 0 -125 -4v167q79 -4 143 -4q141 0 224.5 66t83.5 180q0 100 -72.5 156.5t-190.5 56.5q-151 0 -321 -92
l-62 166q182 90 394 90q208 0 326 -98.5t118 -280.5q0 -102 -70.5 -193t-185.5 -128z" />
    <glyph glyph-name="uni0418" unicode="&#x418;" horiz-adv-x="1376" 
d="M1227 0h-201v1051l-823 -1071h-53v1484h200v-1050l824 1071h53v-1485z" />
    <glyph glyph-name="uni0419" unicode="&#x419;" horiz-adv-x="1376" 
d="M1227 0h-201v1051l-823 -1071h-53v1484h200v-1050l824 1071h53v-1485zM1085 1888q-67 -307 -358 -307t-358 307l170 39q37 -205 188 -205q169 0 197 203z" />
    <glyph glyph-name="uni041A" unicode="&#x41a;" horiz-adv-x="1253" 
d="M1161 -6q-15 -4 -74 -4q-125 0 -183 64.5t-85 221.5q-36 215 -148 313.5t-313 98.5h-8v-688h-200v1464h200v-606h19q187 0 300.5 86.5t141.5 251.5q25 147 81.5 212t176.5 65q39 0 70 -5v-172q-7 2 -41 2q-38 0 -58.5 -25.5t-38.5 -113.5q-28 -141 -119 -243.5
t-229 -141.5q302 -105 367 -450q19 -100 41.5 -128t56.5 -28q21 0 43 4v-178z" />
    <glyph glyph-name="uni041B" unicode="&#x41b;" horiz-adv-x="1376" 
d="M1227 0h-201v1288h-324q-31 -288 -79.5 -533t-124.5 -411.5t-141.5 -237.5t-139 -95.5t-186.5 -24.5v188q69 0 118.5 24.5t104 100t119 259.5t104.5 409.5t72 496.5h678v-1464z" />
    <glyph glyph-name="uni041C" unicode="&#x41c;" horiz-adv-x="1522" 
d="M1282 0l-176 946l-324 -966h-51l-319 966l-172 -946h-191l285 1464h88l340 -1067l338 1067h86l287 -1464h-191z" />
    <glyph glyph-name="uni041D" unicode="&#x41d;" horiz-adv-x="1339" 
d="M989 0v709h-639v-709h-200v1464h200v-585h639v585h201v-1464h-201z" />
    <glyph glyph-name="uni041E" unicode="&#x41e;" horiz-adv-x="1380" 
d="M80 745q0 319 159.5 532.5t430.5 213.5q307 0 468.5 -199t161.5 -547q0 -358 -162.5 -564t-467.5 -206q-280 0 -435 216t-155 554zM291 745q0 -254 98.5 -421.5t280.5 -167.5q206 0 313 153.5t107 435.5q0 566 -420 566q-182 0 -280.5 -148.5t-98.5 -417.5z" />
    <glyph glyph-name="uni041F" unicode="&#x41f;" horiz-adv-x="1300" 
d="M1151 0h-201v1284h-600v-1284h-200v1464h1001v-1464z" />
    <glyph glyph-name="uni0420" unicode="&#x420;" horiz-adv-x="1143" 
d="M350 563v-563h-200v1464q189 11 274 11q639 0 639 -426q0 -494 -565 -494q-47 0 -148 8zM350 1284v-541l133 -10q373 0 373 293q0 268 -397 268q-52 0 -109 -10z" />
    <glyph glyph-name="uni0421" unicode="&#x421;" horiz-adv-x="1206" 
d="M1085 1411l-67 -172q-95 72 -301 72q-201 0 -313.5 -171.5t-112.5 -422.5q0 -238 114 -399.5t314 -161.5q204 0 315 145l111 -154q-175 -172 -449 -172q-290 0 -453 209t-163 543q0 320 172.5 542t458.5 222q235 0 374 -80z" />
    <glyph glyph-name="uni0422" unicode="&#x422;" horiz-adv-x="1268" 
d="M723 1284v-1284h-201v1284h-465v180h1153v-180h-487z" />
    <glyph glyph-name="uni0423" unicode="&#x423;" horiz-adv-x="1182" 
d="M1169 1464q-129 -488 -301 -839.5t-339.5 -495t-395.5 -143.5v194q242 0 383 230l-502 1054h228l397 -893q205 417 313 893h217z" />
    <glyph glyph-name="uni0424" unicode="&#x424;" horiz-adv-x="1511" 
d="M854 1325q263 -12 423.5 -171.5t160.5 -399.5q0 -245 -158 -414.5t-426 -181.5v-178h-197v178q-262 12 -422.5 173t-160.5 402q0 244 157.5 412t425.5 180v170h197v-170zM852 311q184 8 287.5 128.5t103.5 308.5q0 178 -104 297t-287 126v-860zM659 311v860
q-184 -7 -287.5 -126t-103.5 -306q0 -179 104 -299.5t287 -128.5z" />
    <glyph glyph-name="uni0425" unicode="&#x425;" horiz-adv-x="1155" 
d="M924 0l-365 588l-336 -588h-203l433 760l-398 706l199 -2l311 -553l346 553h201l-455 -708l478 -756h-211z" />
    <glyph glyph-name="uni0426" unicode="&#x426;" horiz-adv-x="1333" 
d="M1288 -420h-182v420h-956v1464h200v-1286h578v1286h200v-1286h160v-598z" />
    <glyph glyph-name="uni0427" unicode="&#x427;" horiz-adv-x="1223" 
d="M1073 0h-199v590q-142 -33 -268 -33q-231 0 -359 121.5t-128 345.5v440h203v-417q0 -160 76.5 -242t222.5 -82q125 0 253 33v708h199v-1464z" />
    <glyph glyph-name="uni0428" unicode="&#x428;" horiz-adv-x="1831" 
d="M1681 0h-1531v1464h192v-1294h477v1294h193v-1294h477v1294h192v-1464z" />
    <glyph glyph-name="uni0429" unicode="&#x429;" horiz-adv-x="1884" 
d="M1839 -420h-180v420h-1509v1464h192v-1294h477v1294h193v-1294h477v1294h192v-1294h158v-590z" />
    <glyph glyph-name="uni042A" unicode="&#x42a;" horiz-adv-x="1516" 
d="M698 907q113 11 195 11q257 0 398 -117t141 -336q0 -217 -144 -341t-377 -124h-413v1286h-441v178h641v-557zM698 170q138 -10 170 -10q353 0 353 309q0 140 -88 212.5t-252 72.5q-93 0 -183 -11v-573z" />
    <glyph glyph-name="uni042B" unicode="&#x42b;" horiz-adv-x="1602" 
d="M1452 0h-197v1464h197v-1464zM346 909q110 11 186 11q254 0 395.5 -118t141.5 -337q0 -216 -143 -340.5t-373 -124.5h-403v1464h196v-555zM344 168q89 -10 168 -10q356 0 356 311q0 139 -89 214t-255 75q-91 0 -180 -10v-580z" />
    <glyph glyph-name="uni042C" unicode="&#x42c;" horiz-adv-x="1180" 
d="M350 907q113 11 207 11q257 0 398 -117t141 -336q0 -217 -144 -341t-377 -124h-425v1464h200v-557zM350 170q84 -10 182 -10q353 0 353 309q0 139 -87.5 212t-252.5 73q-104 0 -195 -11v-573z" />
    <glyph glyph-name="uni042D" unicode="&#x42d;" horiz-adv-x="1202" 
d="M106 1393q172 98 392 98q292 0 458 -208t166 -542q0 -333 -167.5 -549.5t-467.5 -216.5q-260 0 -434 138l88 176q148 -139 326 -139q204 0 323 143.5t130 400.5h-558v162h551q-20 208 -135 334.5t-284 126.5q-165 0 -304 -92z" />
    <glyph glyph-name="uni042E" unicode="&#x42e;" horiz-adv-x="1810" 
d="M588 879q34 283 181.5 447.5t373.5 164.5q286 0 437 -202.5t151 -543.5q0 -237 -73 -411t-201 -266.5t-320 -92.5q-254 0 -401.5 197t-155.5 539h-236v-711h-194v1464h194v-585h244zM1141 150q190 0 287.5 153t97.5 442q0 280 -98 426t-289 146q-175 0 -267 -157
t-92 -415q0 -281 98 -438t263 -157z" />
    <glyph glyph-name="uni042F" unicode="&#x42f;" horiz-adv-x="1225" 
d="M1075 0h-198v635l-86 2q-183 0 -282 -87t-136 -294q-28 -156 -82 -211t-172 -55q-45 0 -60 4v178q21 -4 33 -4q33 0 53 25t37 112q58 298 297 387q-192 51 -262 141t-70 216q0 194 140 313t422 119q146 0 366 -19v-1462zM877 797v497q-106 13 -213 13q-173 0 -242.5 -72
t-69.5 -168q0 -264 367 -268z" />
    <glyph glyph-name="uni0430" unicode="&#x430;" horiz-adv-x="1051" 
d="M729 123q-116 -143 -348 -143q-127 0 -219 92t-92 227q0 163 141.5 275t363.5 112q61 0 138 -24q0 260 -234 260q-175 0 -274 -97l-80 158q48 41 145.5 75t188.5 34q226 0 334 -103t108 -342v-383q0 -141 84 -188v-94q-124 0 -179.5 37t-76.5 104zM713 526
q-102 21 -127 21q-144 0 -235 -75t-91 -175q0 -168 197 -168q141 0 256 137v260z" />
    <glyph glyph-name="uni0431" unicode="&#x431;" horiz-adv-x="1128" 
d="M229 772q68 116 168.5 177t216.5 61q209 0 329 -133t120 -359q0 -241 -131 -389.5t-357 -148.5q-234 0 -365.5 170.5t-131.5 461.5q0 194 34 344t99 244t167 153t266 97l343 78l41 -176q-373 -81 -460 -104t-161.5 -73t-117 -143.5t-60.5 -259.5zM584 137q133 0 204.5 98
t71.5 263q0 174 -70.5 265t-203.5 91q-136 0 -220.5 -104t-84.5 -252q0 -160 82 -260.5t221 -100.5z" />
    <glyph glyph-name="uni0432" unicode="&#x432;" horiz-adv-x="1057" 
d="M774 575q205 -66 205 -270q0 -132 -102 -218.5t-306 -86.5h-436v1069q226 12 418 12q181 0 281 -73.5t100 -214.5q0 -71 -43 -130t-117 -88zM315 635q16 -2 230 -2q203 0 203 158q0 68 -47.5 106.5t-133.5 38.5q-165 0 -252 -8v-293zM315 152q113 -7 234 -7
q239 0 239 174q0 84 -62 129.5t-181 45.5q-153 0 -230 -5v-337z" />
    <glyph glyph-name="uni0433" unicode="&#x433;" horiz-adv-x="887" 
d="M825 911h-499v-911h-191v1071h690v-160z" />
    <glyph glyph-name="uni0434" unicode="&#x434;" horiz-adv-x="1184" 
d="M1135 -350h-168v350h-758v-350h-168v502h82q124 145 191 354.5t67 425.5v139h633v-919h121v-502zM831 152v768h-292q0 -211 -60.5 -419t-171.5 -349h524z" />
    <glyph glyph-name="uni0435" unicode="&#x435;" horiz-adv-x="1120" 
d="M1036 516h-772q0 -118 40 -200t115.5 -129.5t182.5 -47.5q161 0 272 97l78 -154q-75 -59 -165 -80.5t-222 -21.5q-218 0 -358.5 149.5t-140.5 392.5q0 255 147.5 412.5t353.5 157.5q222 0 354 -124.5t132 -334.5q0 -42 -17 -117zM575 932q-125 0 -210.5 -81.5
t-94.5 -195.5h592q0 122 -78 199.5t-209 77.5z" />
    <glyph glyph-name="uni0436" unicode="&#x436;" horiz-adv-x="1509" 
d="M1427 -6q-28 -4 -67 -4q-177 0 -203 186q-24 168 -96 239.5t-211 71.5v-487h-180v487q-148 0 -221.5 -68.5t-98.5 -242.5q-27 -186 -203 -186q-37 0 -65 4v166q19 -4 43 -4q51 0 61 59q53 284 267 350q-106 26 -168.5 93t-87.5 198q-11 59 -56 59q-40 0 -45 -2v164
q29 4 68 4q167 0 198 -182q26 -145 96.5 -201.5t211.5 -56.5v430h180v-430q138 0 208 60t93 196q32 184 197 184q37 0 65 -4v-164q-5 2 -47 2q-43 0 -55 -61q-43 -228 -246 -289q107 -38 169.5 -118.5t90.5 -233.5q10 -57 59 -57q28 0 43 4v-166z" />
    <glyph glyph-name="uni0437" unicode="&#x437;" horiz-adv-x="930" 
d="M662 559q200 -73 200 -262q0 -149 -112.5 -233t-305.5 -84q-213 0 -393 120l96 152q127 -117 306 -117q97 0 154 44.5t57 117.5q0 192 -240 192q-68 0 -119 -6v152q18 -2 125 -2q98 0 152.5 38.5t54.5 106.5q0 75 -49.5 116.5t-138.5 41.5q-135 0 -281 -82l-70 154
q184 84 361 84q158 0 265 -83.5t107 -222.5q0 -165 -169 -227z" />
    <glyph glyph-name="uni0438" unicode="&#x438;" horiz-adv-x="1171" 
d="M1036 0h-190v733l-668 -762h-43v1100h191v-733l667 762h43v-1100z" />
    <glyph glyph-name="uni0439" unicode="&#x439;" horiz-adv-x="1171" 
d="M1036 0h-190v733l-668 -762h-43v1100h191v-733l667 762h43v-1100zM963 1589q-67 -307 -359 -307q-291 0 -358 307l170 39q37 -205 188 -205q169 0 197 203z" />
    <glyph glyph-name="uni043A" unicode="&#x43a;" horiz-adv-x="1057" 
d="M979 -6q-28 -4 -70 -4q-188 0 -215 188q-23 160 -108 234.5t-244 74.5h-16v-487h-191v1071h191v-428h26q149 0 229 61.5t103 190.5q32 186 211 186q34 0 66 -4v-164q-13 2 -50 2q-45 0 -57 -61q-45 -224 -266 -289q231 -79 284 -352q13 -57 56 -57q39 0 51 4v-166z" />
    <glyph glyph-name="uni043B" unicode="&#x43b;" horiz-adv-x="1153" 
d="M1024 0h-190v920h-287q-5 -226 -46 -417.5t-111 -316t-152 -161.5t-197 -37v174q179 0 253.5 277.5t74.5 531.5v100h655v-1071z" />
    <glyph glyph-name="uni043C" unicode="&#x43c;" horiz-adv-x="1397" 
d="M1155 0l-113 645l-323 -663h-51l-322 653l-110 -635h-183l205 1090h51l396 -799l391 799h49l201 -1090h-191z" />
    <glyph glyph-name="uni043D" unicode="&#x43d;" horiz-adv-x="1145" 
d="M1010 0h-191v483h-493v-483h-191v1071h191v-430h493v430h191v-1071z" />
    <glyph glyph-name="uni043E" unicode="&#x43e;" horiz-adv-x="1100" 
d="M551 1092q230 0 356.5 -148.5t126.5 -404.5q0 -263 -132 -411t-351 -148q-229 0 -357 150t-128 409q0 247 134 400t351 153zM551 135q134 0 208.5 111t74.5 293q0 397 -283 397q-134 0 -210.5 -108t-76.5 -289q0 -404 287 -404z" />
    <glyph glyph-name="uni043F" unicode="&#x43f;" horiz-adv-x="1118" 
d="M983 0h-190v911h-467v-911h-191v1071h848v-1071z" />
    <glyph glyph-name="uni0440" unicode="&#x440;" horiz-adv-x="1141" 
d="M326 59v-479h-191v1491h191v-88q108 109 260 109q227 0 354 -143.5t127 -416.5q0 -246 -128.5 -399t-369.5 -153q-66 0 -143.5 24t-99.5 55zM326 840v-625q22 -29 78 -52.5t110 -23.5q354 0 354 402q0 208 -86 299.5t-268 91.5q-39 0 -99 -30t-89 -62z" />
    <glyph glyph-name="uni0441" unicode="&#x441;" horiz-adv-x="1018" 
d="M944 983l-92 -133q-35 31 -105.5 56.5t-142.5 25.5q-156 0 -247 -110t-91 -298q0 -182 91 -283.5t261 -101.5q128 0 259 101l73 -160q-149 -100 -379 -100q-218 0 -360.5 147.5t-142.5 396.5q0 263 150.5 415.5t404.5 152.5q87 0 183 -36t138 -73z" />
    <glyph glyph-name="uni0442" unicode="&#x442;" horiz-adv-x="928" 
d="M866 911h-307v-911h-190v911h-308v160h805v-160z" />
    <glyph glyph-name="uni0443" unicode="&#x443;" horiz-adv-x="1018" 
d="M549 -176q-37 -101 -155 -169.5t-265 -68.5v170q117 0 203 55.5t86 135.5q0 95 -31 174l-371 956h195l313 -827l285 827h192z" />
    <glyph glyph-name="uni0444" unicode="&#x444;" horiz-adv-x="1591" 
d="M891 1042q82 50 158 50q226 0 346.5 -145.5t120.5 -409.5q0 -267 -125 -412t-318 -145q-92 0 -182 45v-445h-184v445q-91 -45 -183 -45q-214 0 -331 149.5t-117 398.5q0 253 123 408.5t342 155.5q79 0 166 -52v469h184v-467zM891 166q72 -35 133 -35q303 0 303 410
q0 186 -81 292.5t-220 106.5q-61 0 -135 -29v-745zM707 160v743q-85 37 -150 37q-140 0 -216.5 -104t-76.5 -295q0 -188 76.5 -299t239.5 -111q56 0 127 29z" />
    <glyph glyph-name="uni0445" unicode="&#x445;" horiz-adv-x="1042" 
d="M1022 0h-236l-274 410l-266 -410h-226l398 549l-365 522h223l240 -377l254 377h215l-377 -514z" />
    <glyph glyph-name="uni0446" unicode="&#x446;" horiz-adv-x="1128" 
d="M1079 -346h-172v346h-772v1071h191v-913h438v913h190v-913h125v-504z" />
    <glyph glyph-name="uni0447" unicode="&#x447;" horiz-adv-x="1087" 
d="M952 0h-190v420q-130 -33 -277 -33q-176 0 -276 101t-100 294v289h190v-285q0 -119 60.5 -181t175.5 -62t229 24v504h188v-1071z" />
    <glyph glyph-name="uni0448" unicode="&#x448;" horiz-adv-x="1552" 
d="M1417 0h-1282v1071h180v-917h371v917h180v-917h371v917h180v-1071z" />
    <glyph glyph-name="uni0449" unicode="&#x449;" horiz-adv-x="1581" 
d="M1532 -350h-168v350h-1229v1071h180v-917h367v917h178v-917h367v917h180v-917h125v-504z" />
    <glyph glyph-name="uni044A" unicode="&#x44a;" horiz-adv-x="1247" 
d="M555 676q124 14 203 14q205 0 312.5 -89t107.5 -263q0 -136 -104 -237t-322 -101h-383v915h-312v156h498v-395zM555 156q71 -6 201 -6q107 0 169 49.5t62 142.5q0 97 -63 148t-179 51q-61 0 -190 -15v-370z" />
    <glyph glyph-name="uni044B" unicode="&#x44b;" horiz-adv-x="1403" 
d="M1268 0h-187v1071h187v-1071zM322 678q82 12 182 12q206 0 314 -89t108 -263q0 -87 -49 -169.5t-143 -125.5t-234 -43h-365v1071h187v-393zM322 154q68 -7 182 -7q106 0 169.5 51t63.5 144q0 101 -66.5 151t-176.5 50q-60 0 -172 -13v-376z" />
    <glyph glyph-name="uni044C" unicode="&#x44c;" horiz-adv-x="1036" 
d="M324 674q137 16 223 16q205 0 312.5 -89t107.5 -263q0 -136 -104 -237t-322 -101h-406v1071h189v-397zM324 156q70 -6 225 -6q106 0 166.5 49.5t60.5 142.5q0 199 -237 199q-82 0 -215 -17v-368z" />
    <glyph glyph-name="uni044D" unicode="&#x44d;" horiz-adv-x="1018" 
d="M86 991q157 101 360 101q231 0 367.5 -152.5t136.5 -400.5q0 -260 -142 -409.5t-400 -149.5q-205 0 -345 114l93 146q118 -107 268 -107q152 0 239.5 90t96.5 258h-434v148h430q-22 149 -109 229t-225 80q-139 0 -256 -88z" />
    <glyph glyph-name="uni044E" unicode="&#x44e;" horiz-adv-x="1479" 
d="M520 639q28 212 147.5 332.5t295.5 120.5q209 0 327.5 -146.5t118.5 -406.5q0 -251 -121.5 -405t-324.5 -154q-199 0 -315.5 132t-131.5 373h-199v-485h-182v1071h182v-432h203zM965 129q128 0 192 110.5t64 297.5q0 405 -258 405q-126 0 -193.5 -108.5t-67.5 -290.5
q0 -201 68.5 -307.5t194.5 -106.5z" />
    <glyph glyph-name="uni044F" unicode="&#x44f;" horiz-adv-x="1073" 
d="M938 0h-182v436h-88q-150 0 -228 -62t-104 -212q-30 -172 -199 -172q-37 0 -65 4v166q15 -4 39 -4q46 0 57 59q40 203 233 277q-121 20 -189.5 93.5t-68.5 170.5q0 107 60 188t155 110t234 29q168 0 346 -16v-1067zM756 571v357q-100 10 -189 10q-119 0 -177 -50.5
t-58 -123.5q0 -96 75.5 -142.5t190.5 -48.5z" />
    <glyph glyph-name="uni0451" unicode="&#x451;" horiz-adv-x="1120" 
d="M1036 516h-772q0 -118 40 -200t115.5 -129.5t182.5 -47.5q161 0 272 97l78 -154q-75 -59 -165 -80.5t-222 -21.5q-218 0 -358.5 149.5t-140.5 392.5q0 255 147.5 412.5t353.5 157.5q222 0 354 -124.5t132 -334.5q0 -42 -17 -117zM575 932q-125 0 -210.5 -81.5
t-94.5 -195.5h592q0 122 -78 199.5t-209 77.5zM793 1473q43 0 77.5 -32t34.5 -81q0 -47 -32.5 -80t-79.5 -33q-50 0 -81.5 34.5t-31.5 78.5q0 46 33 79.5t80 33.5zM393 1473q47 0 80 -33t33 -80q0 -45 -31.5 -79t-81.5 -34q-49 0 -80.5 34.5t-31.5 78.5q0 54 36.5 83.5
t75.5 29.5z" />
    <glyph glyph-name="uni0452" unicode="&#x452;" horiz-adv-x="1122" 
d="M993 0q0 -424 -479 -424v168q138 0 212.5 49.5t74.5 206.5v623q0 251 -221 251q-137 0 -246 -139v-735h-193v1190h-145v139h145v180h193v-180h373v-139h-373v-293q110 139 297 139q170 0 266 -111t96 -302v-623z" />
    <glyph glyph-name="uni0453" unicode="&#x453;" horiz-adv-x="887" 
d="M825 911h-499v-911h-191v1071h690v-160zM776 1618l-227 -334h-139l170 334h196z" />
    <glyph glyph-name="uni0454" unicode="&#x454;" horiz-adv-x="1018" 
d="M950 80q-143 -100 -379 -100q-227 0 -365 152.5t-138 391.5q0 259 148 413.5t407 154.5q188 0 321 -109l-94 -133q-103 88 -246 88q-135 0 -227.5 -84t-114.5 -227h430v-148h-434q12 -167 106.5 -256.5t253.5 -89.5q135 0 263 96z" />
    <glyph glyph-name="uni0455" unicode="&#x455;" horiz-adv-x="840" 
d="M70 63l65 181q161 -105 256 -105q176 0 176 150q0 47 -34.5 89.5t-172.5 109.5q-91 44 -147.5 80.5t-96.5 96.5t-40 146q0 133 96.5 207t251.5 74q116 0 295 -74l-55 -176q-113 90 -228 90q-63 0 -111.5 -31t-48.5 -84q0 -50 34 -93t172 -104q92 -41 148.5 -76t97 -98
t40.5 -159q0 -148 -103.5 -227.5t-277.5 -79.5q-164 0 -317 83z" />
    <glyph glyph-name="uni0456" unicode="&#x456;" horiz-adv-x="578" 
d="M307 1491q55 0 94 -38t39 -95q0 -62 -41 -96.5t-92 -34.5q-59 0 -96 38.5t-37 92.5t38.5 93.5t94.5 39.5zM231 0v911h-147v160h338v-1071h-191z" />
    <glyph glyph-name="uni0457" unicode="&#x457;" horiz-adv-x="578" 
d="M479 1473q44 0 78.5 -32t34.5 -81q0 -47 -33 -80t-80 -33q-49 0 -80.5 34.5t-31.5 78.5q0 46 33 79.5t79 33.5zM80 1473q47 0 80 -33t33 -80q0 -46 -32.5 -79.5t-80.5 -33.5q-50 0 -81.5 34.5t-31.5 78.5q0 46 33 79.5t80 33.5zM422 0h-191v911h-147v160h338v-1071z" />
    <glyph glyph-name="uni0458" unicode="&#x458;" horiz-adv-x="625" 
d="M356 1491q55 0 94 -38t39 -95t-38.5 -94t-94.5 -37q-59 0 -96 38.5t-37 92.5q0 52 37.5 92.5t95.5 40.5zM-55 -420v170q193 0 266.5 58.5t73.5 195.5v907h-213v160h403v-1063q0 -229 -135 -328.5t-395 -99.5z" />
    <glyph glyph-name="uni0459" unicode="&#x459;" horiz-adv-x="1688" 
d="M1016 678q82 12 182 12q205 0 312.5 -89t107.5 -263q0 -88 -47.5 -170t-142 -125t-234.5 -43h-365v920h-286q-10 -243 -49.5 -424t-108 -305.5t-152 -163.5t-192.5 -39v174q71 0 124 40.5t100 153t75.5 284.5t28.5 327v104h647v-393zM1016 156q69 -6 182 -6
q107 0 169.5 49.5t62.5 142.5q0 97 -63 148t-179 51q-60 0 -172 -13v-372z" />
    <glyph glyph-name="uni045A" unicode="&#x45a;" horiz-adv-x="1616" 
d="M944 678q82 12 182 12q206 0 313 -89t107 -263q0 -88 -47.5 -170t-141.5 -125t-235 -43h-364v483h-432v-483h-191v1071h191v-430h432v430h186v-393zM944 156q69 -6 182 -6q107 0 169.5 49.5t62.5 142.5q0 97 -63 148t-179 51q-60 0 -172 -13v-372z" />
    <glyph glyph-name="uni045B" unicode="&#x45b;" horiz-adv-x="1122" 
d="M993 0h-192v623q0 251 -221 251q-137 0 -246 -139v-735h-193v1190h-145v139h145v180h193v-180h373v-139h-373v-293q110 139 297 139q170 0 266 -111t96 -302v-623z" />
    <glyph glyph-name="uni045C" unicode="&#x45c;" horiz-adv-x="1057" 
d="M979 -6q-28 -4 -70 -4q-188 0 -215 188q-23 160 -108 234.5t-244 74.5h-16v-487h-191v1071h191v-428h26q149 0 229 61.5t103 190.5q32 186 211 186q34 0 66 -4v-164q-13 2 -50 2q-45 0 -57 -61q-45 -224 -266 -289q231 -79 284 -352q13 -57 56 -57q39 0 51 4v-166z
M817 1618l-227 -334h-139l170 334h196z" />
    <glyph glyph-name="uni045D" unicode="&#x45d;" horiz-adv-x="1171" 
d="M1036 0h-190v733l-668 -762h-43v1100h191v-733l667 762h43v-1100zM609 1285l-226 333h197l169 -333h-140z" />
    <glyph glyph-name="uni045E" unicode="&#x45e;" horiz-adv-x="1018" 
d="M545 -182q-37 -101 -155 -169.5t-265 -68.5v170q117 0 203 55.5t86 135.5q0 94 -31 174l-371 956h195l313 -827l285 827h192zM891 1591q-67 -307 -359 -307q-291 0 -358 307l170 39q37 -205 188 -205q170 0 197 203z" />
    <glyph glyph-name="uni045F" unicode="&#x45f;" horiz-adv-x="1118" 
d="M983 0h-340v-350h-168v350h-340v1071h191v-913h467v913h190v-1071z" />
    <glyph glyph-name="uni0490" unicode="&#x490;" horiz-adv-x="1065" 
d="M1004 1284h-652v-1284h-202v1464h688v318h166v-498z" />
    <glyph glyph-name="uni0491" unicode="&#x491;" horiz-adv-x="887" 
d="M825 911h-499v-911h-191v1071h533v268h157v-428z" />
    <glyph glyph-name="Wgrave" unicode="&#x1e80;" horiz-adv-x="1745" 
d="M1276 -20h-63l-349 1010l-326 -1010h-63l-462 1485h208l294 -1023l322 1023h70l318 -1021l299 1021h208zM837 1585l-226 333h197l169 -333h-140z" />
    <glyph glyph-name="wgrave" unicode="&#x1e81;" horiz-adv-x="1524" 
d="M1125 -20h-50l-314 729l-313 -729h-50l-383 1094h203l229 -703l285 703h50l294 -703l246 703h187zM732 1285l-226 333h197l169 -333h-140z" />
    <glyph glyph-name="Wacute" unicode="&#x1e82;" horiz-adv-x="1745" 
d="M1276 -20h-63l-349 1010l-326 -1010h-63l-462 1485h208l294 -1023l322 1023h70l318 -1021l299 1021h208zM1133 1918l-226 -333h-140l169 333h197z" />
    <glyph glyph-name="wacute" unicode="&#x1e83;" horiz-adv-x="1524" 
d="M1125 -20h-50l-314 729l-313 -729h-50l-383 1094h203l229 -703l285 703h50l294 -703l246 703h187zM1008 1618l-226 -333h-140l169 333h197z" />
    <glyph glyph-name="Wdieresis" unicode="&#x1e84;" horiz-adv-x="1745" 
d="M1276 -20h-63l-349 1010l-326 -1010h-63l-462 1485h208l294 -1023l322 1023h70l318 -1021l299 1021h208zM636 1813q47 0 79.5 -32.5t32.5 -79.5t-32.5 -80t-79.5 -33t-80 33t-33 80t33 79.5t80 32.5zM1108 1813q47 0 80 -32.5t33 -79.5t-33 -80t-80 -33t-79.5 33
t-32.5 80t32.5 79.5t79.5 32.5z" />
    <glyph glyph-name="wdieresis" unicode="&#x1e85;" horiz-adv-x="1524" 
d="M1125 -20h-50l-314 729l-313 -729h-50l-383 1094h203l229 -703l285 703h50l294 -703l246 703h187zM521 1513q47 0 79.5 -32.5t32.5 -79.5t-32.5 -80t-79.5 -33t-80 33t-33 80t33 79.5t80 32.5zM993 1513q47 0 80 -32.5t33 -79.5t-33 -80t-80 -33t-79.5 33t-32.5 80
t32.5 79.5t79.5 32.5z" />
    <glyph glyph-name="Ygrave" unicode="&#x1ef2;" horiz-adv-x="1168" 
d="M685 656v-656h-200v656l-472 809h206l365 -640l365 640h206zM575 1585l-226 333h197l169 -333h-140z" />
    <glyph glyph-name="ygrave" unicode="&#x1ef3;" horiz-adv-x="1010" 
d="M544 -182q-37 -102 -155.5 -170t-264.5 -68v170q119 0 204 55.5t85 135.5q0 88 -31 173.5t-80 211.5l-290 745h194l315 -828l283 828h194zM481 1285l-226 333h197l169 -333h-140z" />
    <glyph glyph-name="endash" unicode="&#x2013;" horiz-adv-x="752" 
d="M93 532v96h521v-96h-521z" />
    <glyph glyph-name="emdash" unicode="&#x2014;" horiz-adv-x="1504" 
d="M93 532v96h1309v-96h-1309z" />
    <glyph glyph-name="uni2015" unicode="&#x2015;" horiz-adv-x="1504" 
d="M93 532v96h1309v-96h-1309z" />
    <glyph glyph-name="underscoredbl" unicode="&#x2017;" 
d="M1077 -254h-1085v129h1085v-129zM1077 -504h-1085v129h1085v-129z" />
    <glyph glyph-name="quoteleft" unicode="&#x2018;" horiz-adv-x="752" 
d="M553 1421l-75 -64q-55 -47 -55 -115q0 -41 49 -95t49 -99q0 -147 -145 -147q-155 0 -155 177q0 265 265 432z" />
    <glyph glyph-name="quoteright" unicode="&#x2019;" horiz-adv-x="752" 
d="M531 1333q0 -265 -265 -432l-67 89l75 64q55 47 55 115q0 41 -49 95t-49 99q0 147 145 147q155 0 155 -177z" />
    <glyph glyph-name="quotesinglbase" unicode="&#x201a;" horiz-adv-x="752" 
d="M531 100q0 -265 -265 -432l-67 89l75 64q55 47 55 115q0 41 -49 95t-49 99q0 147 145 147q155 0 155 -177z" />
    <glyph glyph-name="quotereversed" unicode="&#x201b;" horiz-adv-x="752" 
d="M553 990l-67 -89q-265 167 -265 432q0 177 155 177q145 0 145 -147q0 -45 -49 -99t-49 -95q0 -68 55 -115z" />
    <glyph glyph-name="quotedblleft" unicode="&#x201c;" 
d="M949 1421l-75 -64q-55 -47 -55 -115q0 -41 49 -95t49 -99q0 -147 -145 -147q-155 0 -155 177q0 265 265 432zM499 1421l-75 -64q-55 -47 -55 -115q0 -41 49 -95t49 -99q0 -147 -145 -147q-155 0 -155 177q0 265 265 432z" />
    <glyph glyph-name="quotedblright" unicode="&#x201d;" 
d="M955 1333q0 -265 -265 -432l-67 89l75 64q55 47 55 115q0 41 -49 95t-49 99q0 147 145 147q155 0 155 -177zM496 1333q0 -265 -265 -432l-67 89l75 64q55 47 55 115q0 41 -49 95t-49 99q0 147 145 147q155 0 155 -177z" />
    <glyph glyph-name="quotedblbase" unicode="&#x201e;" 
d="M955 100q0 -265 -265 -432l-67 89l75 64q55 47 55 115q0 41 -49 95t-49 99q0 147 145 147q155 0 155 -177zM496 100q0 -265 -265 -432l-67 89l75 64q55 47 55 115q0 41 -49 95t-49 99q0 147 145 147q155 0 155 -177z" />
    <glyph glyph-name="dagger" unicode="&#x2020;" horiz-adv-x="940" 
d="M395 931h-370v140h370v314h150v-314h370v-140h-370v-1181l-74 -88l-76 88v1181z" />
    <glyph glyph-name="daggerdbl" unicode="&#x2021;" horiz-adv-x="940" 
d="M915 381v-140h-370v-491l-76 -94l-74 94v491h-370v140h370v550h-370v140h370v314h150v-314h370v-140h-370v-550h370z" />
    <glyph glyph-name="bullet" unicode="&#x2022;" 
d="M542 863q120 0 204.5 -84.5t84.5 -204.5t-84.5 -204.5t-204.5 -84.5t-204.5 84.5t-84.5 204.5t84.5 204.5t204.5 84.5z" />
    <glyph glyph-name="ellipsis" unicode="&#x2026;" horiz-adv-x="1504" 
d="M400 131q0 -62 -44 -106.5t-106 -44.5t-106 44.5t-44 106.5t44 106t106 44t106 -44t44 -106zM902 131q0 -62 -44 -106.5t-106 -44.5t-106 44.5t-44 106.5t44 106t106 44t106 -44t44 -106zM1404 131q0 -62 -44 -106.5t-106 -44.5t-106 44.5t-44 106.5t44 106t106 44
t106 -44t44 -106z" />
    <glyph glyph-name="perthousand" unicode="&#x2030;" horiz-adv-x="1869" 
d="M218 -20h-127l883 1511h126zM61 1162q0 147 81 238t206 91q123 0 196.5 -90t73.5 -258q0 -156 -78 -247.5t-201 -91.5q-278 0 -278 358zM187 1152q0 -117 39.5 -181.5t103.5 -64.5q162 0 162 245q0 238 -147 238q-73 0 -115.5 -64t-42.5 -173zM601 338q0 147 81 238
t206 91q123 0 196.5 -90t73.5 -258q0 -156 -78 -247.5t-201 -91.5q-278 0 -278 358zM727 328q0 -117 39.5 -181.5t103.5 -64.5q162 0 162 245q0 238 -147 238q-73 0 -115.5 -64t-42.5 -173zM1251 338q0 147 81 238t206 91q123 0 196.5 -90t73.5 -258q0 -156 -78 -247.5
t-201 -91.5q-278 0 -278 358zM1377 328q0 -117 39.5 -181.5t103.5 -64.5q162 0 162 245q0 238 -147 238q-73 0 -115.5 -64t-42.5 -173z" />
    <glyph glyph-name="minute" unicode="&#x2032;" horiz-adv-x="327" 
d="M189 1056h-133l116 411h184z" />
    <glyph glyph-name="second" unicode="&#x2033;" horiz-adv-x="694" 
d="M189 1056h-133l116 411h184zM489 1056h-133l116 411h184z" />
    <glyph glyph-name="guilsinglleft" unicode="&#x2039;" horiz-adv-x="752" 
d="M171 535v64l355 244v-125l-212 -157l212 -138v-125z" />
    <glyph glyph-name="guilsinglright" unicode="&#x203a;" horiz-adv-x="752" 
d="M566 535l-355 -237v125l212 138l-212 157v125l355 -244v-64z" />
    <glyph glyph-name="exclamdbl" unicode="&#x203c;" horiz-adv-x="1248" 
d="M413 382h-71q-77 503 -77 699v410h226v-409q0 -191 -78 -700zM384 281q62 0 106 -44t44 -106t-44 -106.5t-106 -44.5t-106 44.5t-44 106.5t44 106t106 44zM905 382h-71q-77 503 -77 699v410h226v-409q0 -191 -78 -700zM876 281q62 0 106 -44t44 -106t-44 -106.5
t-106 -44.5t-106 44.5t-44 106.5t44 106t106 44z" />
    <glyph glyph-name="uni203E" unicode="&#x203e;" 
d="M785 1471v-122h-791v122h791z" />
    <glyph glyph-name="fraction" unicode="&#x2044;" horiz-adv-x="1083" 
d="M131 -35h-127l973 1526h126z" />
    <glyph glyph-name="fraction" unicode="&#x2215;" horiz-adv-x="1083" 
d="M131 -35h-127l973 1526h126z" />
    <glyph glyph-name="uni2070" unicode="&#x2070;" horiz-adv-x="778" 
d="M393 1485q161 0 235 -108t74 -337q0 -458 -305 -458q-319 0 -319 462q0 441 315 441zM393 698q93 0 125.5 82.5t32.5 268.5q0 173 -34 246t-128 73q-85 0 -123.5 -75t-38.5 -242q0 -353 166 -353z" />
    <glyph glyph-name="uni2074" unicode="&#x2074;" horiz-adv-x="778" 
d="M588 799v-205h-144v205h-428v90l514 588h58v-564h123v-114h-123zM444 1233l-274 -320h274v320z" />
    <glyph glyph-name="uni2075" unicode="&#x2075;" horiz-adv-x="778" 
d="M139 1004v460h494v-123h-357v-213q52 33 140 33q116 0 192 -73.5t76 -200.5q0 -144 -90.5 -224.5t-233.5 -80.5q-179 0 -276 80l70 108q99 -72 215 -72q69 0 113 47.5t44 135.5q0 163 -164 163q-111 0 -178 -69z" />
    <glyph glyph-name="uni2076" unicode="&#x2076;" horiz-adv-x="778" 
d="M487 1491l82 -109q-174 -90 -241 -160t-82 -167q76 82 196 82q116 0 187 -74t71 -191q0 -131 -80 -215t-208 -84q-151 0 -238.5 90.5t-87.5 247.5q0 376 401 580zM401 688q66 0 106 44.5t40 119.5q0 77 -40 124.5t-106 47.5q-72 0 -114.5 -44.5t-42.5 -119.5
q0 -78 41.5 -125t115.5 -47z" />
    <glyph glyph-name="uni2077" unicode="&#x2077;" horiz-adv-x="778" 
d="M156 594q93 274 368 747h-448v123h637v-47l-66 -114q-222 -383 -328 -709h-163z" />
    <glyph glyph-name="uni2078" unicode="&#x2078;" horiz-adv-x="778" 
d="M258 1079q-137 76 -137 195q0 91 75 151t191 60q119 0 192.5 -57t73.5 -148q0 -124 -131 -203q166 -85 166 -233q0 -118 -82 -190t-223 -72q-137 0 -217 67.5t-80 186.5q0 165 172 243zM426 1124q80 54 80 144q0 48 -34 76t-85 28q-115 0 -115 -104q0 -84 154 -144z
M365 1026q-127 -63 -127 -188q0 -142 151 -142q69 0 110.5 38.5t41.5 103.5q0 106 -176 188z" />
    <glyph glyph-name="uni2079" unicode="&#x2079;" horiz-adv-x="778" 
d="M291 567l-82 109q174 89 241 159.5t82 168.5q-75 -82 -196 -82q-115 0 -186.5 73.5t-71.5 190.5q0 132 81 215.5t208 83.5q151 0 238 -90.5t87 -247.5q0 -376 -401 -580zM377 1370q-66 0 -106 -44t-40 -120q0 -77 40 -124.5t106 -47.5q73 0 115.5 45.5t42.5 118.5
q0 79 -42.5 125.5t-115.5 46.5z" />
    <glyph glyph-name="uni207F" unicode="&#x207f;" horiz-adv-x="801" 
d="M698 836h-135v372q0 96 -28 133t-107 37q-75 0 -145 -69v-473h-136v643h95l34 -60q78 72 193 72q229 0 229 -258v-397z" />
    <glyph glyph-name="uni2080" unicode="&#x2080;" horiz-adv-x="778" 
d="M393 894q161 0 235 -108t74 -337q0 -458 -305 -458q-319 0 -319 462q0 441 315 441zM393 107q93 0 125.5 82.5t32.5 268.5q0 173 -34 246t-128 73q-85 0 -123.5 -75t-38.5 -242q0 -353 166 -353z" />
    <glyph glyph-name="uni2081" unicode="&#x2081;" horiz-adv-x="924" 
d="M439 4v674l-188 -112v113q197 99 282 208h36v-883h-130z" />
    <glyph glyph-name="uni2082" unicode="&#x2082;" horiz-adv-x="924" 
d="M184 4v24l266 414q86 134 86 223q0 122 -128 122q-107 0 -169 -124l-77 63q26 74 93 123.5t147 49.5q264 0 264 -224q0 -120 -93 -266l-183 -287h334v-118h-540z" />
    <glyph glyph-name="uni2083" unicode="&#x2083;" horiz-adv-x="929" 
d="M185 66l59 102q49 -54 148 -54q163 0 163 142q0 73 -46 118t-128 45h-10v102h6q148 0 148 139q0 119 -139 119q-85 0 -124 -44l-54 91q56 73 187 73q116 0 188 -62.5t72 -157.5q0 -73 -39.5 -128.5t-95.5 -76.5q165 -54 165 -227q0 -253 -295 -253q-129 0 -205 72z" />
    <glyph glyph-name="uni2084" unicode="&#x2084;" horiz-adv-x="778" 
d="M588 208v-205h-144v205h-428v90l514 588h58v-564h123v-114h-123zM444 642l-274 -320h274v320z" />
    <glyph glyph-name="uni2085" unicode="&#x2085;" horiz-adv-x="778" 
d="M139 413v460h494v-123h-357v-213q52 33 140 33q116 0 192 -73.5t76 -200.5q0 -144 -90.5 -224.5t-233.5 -80.5q-179 0 -276 80l70 108q99 -72 215 -72q69 0 113 47.5t44 135.5q0 163 -164 163q-111 0 -178 -69z" />
    <glyph glyph-name="uni2086" unicode="&#x2086;" horiz-adv-x="778" 
d="M487 900l82 -109q-174 -90 -241 -160t-82 -167q76 82 196 82q116 0 187 -74t71 -191q0 -131 -80 -215t-208 -84q-151 0 -238.5 90.5t-87.5 247.5q0 376 401 580zM401 97q66 0 106 44.5t40 119.5q0 77 -40 124.5t-106 47.5q-72 0 -114.5 -44.5t-42.5 -119.5
q0 -78 41.5 -125t115.5 -47z" />
    <glyph glyph-name="uni2087" unicode="&#x2087;" horiz-adv-x="778" 
d="M156 3q93 274 368 747h-448v123h637v-47l-66 -114q-222 -383 -328 -709h-163z" />
    <glyph glyph-name="uni2088" unicode="&#x2088;" horiz-adv-x="778" 
d="M258 488q-137 76 -137 195q0 91 75 151t191 60q119 0 192.5 -57t73.5 -148q0 -124 -131 -203q166 -85 166 -233q0 -118 -82 -190t-223 -72q-137 0 -217 67.5t-80 186.5q0 165 172 243zM426 533q80 54 80 144q0 48 -34 76t-85 28q-115 0 -115 -104q0 -84 154 -144z
M365 435q-127 -63 -127 -188q0 -142 151 -142q69 0 110.5 38.5t41.5 103.5q0 106 -176 188z" />
    <glyph glyph-name="uni2089" unicode="&#x2089;" horiz-adv-x="778" 
d="M291 -24l-82 109q174 89 241 159.5t82 168.5q-75 -82 -196 -82q-115 0 -186.5 73.5t-71.5 190.5q0 132 81 215.5t208 83.5q151 0 238 -90.5t87 -247.5q0 -376 -401 -580zM377 779q-66 0 -106 -44t-40 -120q0 -77 40 -124.5t106 -47.5q73 0 115.5 45.5t42.5 118.5
q0 79 -42.5 125.5t-115.5 46.5z" />
    <glyph glyph-name="franc" unicode="&#x20a3;" horiz-adv-x="1075" 
d="M350 1285v-407h515v-170h-515v-207h149v-160h-149v-341h-200v341h-135v160h135v964h905v-180h-705z" />
    <glyph glyph-name="lira" unicode="&#x20a4;" 
d="M1023 182q-105 -182 -447 -182h-444v139q90 30 90 129v254h-90v135h90v156h-90v135h90v56q0 210 97 340q109 147 311 147q206 0 293 -121l-95 -133q-64 86 -221 86q-184 0 -184 -311v-64h303v-135h-303v-156h303v-135h-303v-342h223q155 0 234 113z" />
    <glyph glyph-name="peseta" unicode="&#x20a7;" horiz-adv-x="2281" 
d="M2216 287q0 -158 -107 -237q-94 -70 -254 -70q-147 0 -262 81q-84 -81 -213 -81q-136 0 -214.5 91.5t-78.5 247.5v605h-138q-66 -367 -512 -367q-17 0 -78 6l-25 2v-565h-195v1465q165 11 260 11q545 0 560 -405h128v223l189 74v-297h229v-147h-229v-543q0 -139 35 -188
q40 -56 114 -56q100 0 181 129q125 -129 260 -129q157 0 157 152q0 89 -115 154l-212 122q-115 91 -115 241q0 141 97 217q87 68 225 68q98 0 270 -72l-53 -178q-110 90 -211 90q-57 0 -94 -29q-41 -32 -41 -90q0 -94 115 -160l212 -122q115 -91 115 -243zM762 1026
q0 271 -342 271q-49 0 -86 -8v-546q43 -10 96 -10q332 0 332 293z" />
    <glyph glyph-name="Euro" unicode="&#x20ac;" 
d="M805 928l-58 -141h-414q-3 -37 -3 -71q0 -28 2 -60h347l-49 -141h-283q14 -133 109 -242q103 -118 231 -118q89 0 187 40t157 103v-217q-140 -106 -365 -106q-216 0 -359 167q-124 145 -160 373h-116v141h98q-5 68 -1 131h-97v141h115q37 233 175 389q154 173 378 173
q250 0 353 -93l-89 -164q-101 77 -259 77q-152 0 -250 -118q-84 -103 -108 -264h459z" />
    <glyph glyph-name="uni2105" unicode="&#x2105;" horiz-adv-x="1546" 
d="M658 873q-108 -69 -242 -69q-142 0 -230.5 91.5t-88.5 248.5q0 152 93.5 252.5t248.5 100.5q128 0 215 -65l-66 -96q-69 47 -151 47q-88 0 -143.5 -62.5t-55.5 -178.5q0 -111 57 -167.5t146 -56.5q75 0 159 59zM1334 1497l-979 -1538h-127l979 1538h127zM1450 317
q0 -156 -85 -252t-228 -96q-151 0 -234 97q-79 92 -79 251q0 151 88 248t227 97q149 0 230 -91.5t81 -253.5zM1309 317q0 231 -170 231q-174 0 -174 -231q0 -234 172 -234t172 234z" />
    <glyph glyph-name="uni2113" unicode="&#x2113;" horiz-adv-x="1073" 
d="M907 82q-38 -42 -125 -73q-81 -29 -144 -29q-221 0 -307 139q-69 109 -69 347l-86 -51l-59 165q85 48 145 88v144q0 286 40 425q72 254 285 254q131 0 204 -81q70 -77 70 -210q0 -137 -150 -342q-114 -153 -259 -284v-108q0 -146 29 -214q45 -102 170 -102q65 0 146 85z
M672 1190q0 131 -87 131q-78 0 -112 -143q-21 -90 -21 -203v-157q220 220 220 372z" />
    <glyph glyph-name="uni2116" unicode="&#x2116;" horiz-adv-x="1872" 
d="M1774 651q0 -151 -69 -243q-77 -103 -222 -103q-142 0 -219 104q-70 93 -70 242q0 143 74 238q81 102 219 102q144 0 219 -99q68 -90 68 -241zM1731 0h-490v131h490v-131zM1067 -14h-66l-671 1027v-1013h-180v1480h65l672 -1027v1012h180v-1479zM1625 651q0 211 -142 211
q-140 0 -140 -211q0 -217 144 -217q138 0 138 217z" />
    <glyph glyph-name="trademark" unicode="&#x2122;" horiz-adv-x="1300" 
d="M499 1381v-643h-100v643h-208v90h527v-90h-219zM1254 739l-83 498l-147 -503h-59l-155 510l-77 -505h-95l112 732h75l169 -567l167 567h75l113 -732h-95z" />
    <glyph glyph-name="Omega" unicode="&#x2126;" horiz-adv-x="1370" 
d="M1295 0h-500v152q161 148 225.5 285.5t64.5 307.5q0 566 -415 566q-187 0 -286 -153t-99 -413q0 -154 86.5 -337t203.5 -258v-150h-500v150h269q-269 209 -269 595q0 317 161.5 531.5t433.5 214.5q304 0 464.5 -196t160.5 -550q0 -183 -76 -342.5t-213 -252.5h289v-150z
" />
    <glyph glyph-name="estimated" unicode="&#x212e;" horiz-adv-x="1125" 
d="M1063 537h-814v-371q151 -123 309 -123q94 0 220 45t166 93l47 -53q-163 -148 -430 -148q-217 0 -358.5 149t-141.5 394q0 254 147.5 411t354.5 157q231 0 365.5 -166.5t134.5 -387.5zM250 886v-281h630v281q-120 142 -314 142q-185 0 -316 -142z" />
    <glyph glyph-name="oneeighth" unicode="&#x215b;" horiz-adv-x="1668" 
d="M1530 236q0 -120 -73 -188t-202 -68q-266 0 -266 256q0 75 46 145t114 98q-127 67 -127 195q0 100 65 155q69 58 173 58q109 0 174 -60q61 -56 61 -153q0 -60 -36 -118t-89 -89q160 -89 160 -231zM1308 1491l-973 -1526h-127l973 1526h127zM419 595h-130v675l-188 -113
v113q202 99 282 208h36v-883zM1365 671q0 104 -105 104q-108 0 -108 -98q0 -40 42 -85q46 -48 100 -76q71 69 71 155zM1400 236q0 103 -159 192q-122 -68 -122 -192q0 -144 136 -144q145 0 145 144z" />
    <glyph glyph-name="threeeighths" unicode="&#x215c;" horiz-adv-x="1668" 
d="M1538 236q0 -123 -72.5 -189.5t-199.5 -66.5q-269 0 -269 256q0 72 47 144t113 99q-127 68 -127 195q0 101 70 159q65 54 168 54q110 0 176 -60q61 -55 61 -153q0 -61 -36 -117.5t-89 -89.5q158 -88 158 -231zM1354 1491l-973 -1526h-127l973 1526h127zM598 852
q0 -266 -295 -266q-131 0 -205 71l60 104q49 -55 147 -55q163 0 163 142q0 75 -50 120q-48 42 -123 42h-10v102h6q146 0 146 139q0 120 -138 120q-84 0 -125 -47l-53 93q56 74 186 74q114 0 189 -64q71 -60 71 -157q0 -68 -36 -125t-99 -80q166 -55 166 -213zM1375 671
q0 104 -107 104q-108 0 -108 -98q0 -84 145 -161q70 66 70 155zM1408 236q0 103 -159 192q-122 -68 -122 -192q0 -144 139 -144q142 0 142 144z" />
    <glyph glyph-name="fiveeighths" unicode="&#x215d;" horiz-adv-x="1668" 
d="M1540 236q0 -120 -73 -188t-201 -68q-267 0 -267 256q0 75 46 145t114 98q-127 67 -127 195q0 100 67.5 156.5t170.5 56.5q109 0 174 -60q61 -56 61 -153q0 -60 -36 -118t-89 -89q160 -89 160 -231zM1354 1491l-973 -1526h-127l973 1526h127zM633 913q0 -327 -309 -327
q-127 0 -206 67l45 112q75 -59 161 -59q179 0 179 189q0 177 -177 177q-88 0 -149 -61l-39 28v436h440v-118h-322v-198q42 33 111 33q122 0 194 -74t72 -205zM1375 671q0 104 -105 104q-108 0 -108 -98q0 -40 43.5 -85.5t99.5 -75.5q70 68 70 155zM1410 236q0 103 -159 192
q-122 -68 -122 -192q0 -144 137 -144q144 0 144 144z" />
    <glyph glyph-name="seveneighths" unicode="&#x215e;" horiz-adv-x="1668" 
d="M1540 236q0 -120 -73 -188t-201 -68q-267 0 -267 256q0 75 46 145t114 98q-127 67 -127 195q0 100 67.5 156.5t170.5 56.5q109 0 174 -60q61 -56 61 -153q0 -60 -36 -118t-89 -89q160 -89 160 -231zM1333 1491l-973 -1526h-127l973 1526h127zM733 1428l-117 -234
q-114 -227 -184 -417q-40 -109 -61 -181h-154q74 240 350 761h-403v118h569v-47zM1375 671q0 104 -105 104q-108 0 -108 -98q0 -40 43.5 -85.5t99.5 -75.5q70 68 70 155zM1410 236q0 103 -159 192q-122 -68 -122 -192q0 -144 137 -144q144 0 144 144z" />
    <glyph glyph-name="partialdiff" unicode="&#x2202;" horiz-adv-x="1125" 
d="M592 1079q0 56 -167 178.5t-298 122.5l44 161q170 0 381 -143t336.5 -366.5t125.5 -482.5q0 -247 -140 -408.5t-369 -161.5q-450 0 -450 489q0 261 168.5 436t368.5 175zM718 920q-216 0 -344.5 -128.5t-128.5 -323.5q0 -154 71.5 -236t198.5 -82q143 0 226 108t83 300
q0 256 -106 362z" />
    <glyph glyph-name="Delta" unicode="&#x2206;" horiz-adv-x="1198" 
d="M25 0v124l526 1341h144l480 -1341v-124h-1150zM619 1216l-376 -1046h725z" />
    <glyph glyph-name="product" unicode="&#x220f;" horiz-adv-x="1132" 
d="M365 1285l-1 -1455h-200v1455h-130v180h1050v-180h-130v-1455h-200v1455h-389z" />
    <glyph glyph-name="summation" unicode="&#x2211;" horiz-adv-x="1075" 
d="M329 1285l399 -546l-409 -732h683v-180h-914v180l400 732l-400 566v160h875v-180h-634z" />
    <glyph glyph-name="minus" unicode="&#x2212;" 
d="M960 706v-141h-838v141h838z" />
    <glyph glyph-name="uni2219" unicode="&#x2219;" horiz-adv-x="752" 
d="M355 801q62 0 106 -44t44 -106t-44 -106.5t-106 -44.5t-106 44.5t-44 106.5t44 106t106 44z" />
    <glyph glyph-name="radical" unicode="&#x221a;" 
d="M751 1349l-384 -1349h-142l-209 268l98 83l150 -194l374 1314h450v-122h-337z" />
    <glyph glyph-name="infinity" unicode="&#x221e;" 
d="M537 596q-114 -144 -238 -144q-115 0 -181 57t-66 162q0 94 67 154.5t167 60.5q145 0 250 -129q105 129 255 129q99 0 166 -60t67 -155q0 -103 -66 -161t-180 -58q-127 0 -241 144zM598 674q85 -119 190 -119q130 0 130 116t-140 116q-76 0 -180 -113zM479 674
q-104 113 -180 113q-140 0 -140 -116t130 -116q105 0 190 119z" />
    <glyph glyph-name="integral" unicode="&#x222b;" 
d="M-22 -297l100 142q77 -95 170 -95q71 0 114 74t43 167v1073q0 180 110.5 313t270.5 133q161 0 280 -102l-124 -142q-59 74 -166 74q-68 0 -110 -55t-42 -251v-1011q0 -188 -93 -315.5t-252 -127.5q-178 0 -301 123z" />
    <glyph glyph-name="approxequal" unicode="&#x2248;" 
d="M904 836q-53 -207 -192 -207q-66 0 -186.5 38.5t-168.5 38.5q-71 0 -108 -77h-91q14 86 65 146.5t119 60.5q72 0 194 -38.5t172 -38.5q81 0 108 77h88zM904 506q-53 -207 -192 -207q-66 0 -186.5 38.5t-168.5 38.5q-71 0 -108 -77h-91q14 86 65 146.5t119 60.5
q72 0 194 -38.5t172 -38.5q81 0 108 77h88z" />
    <glyph glyph-name="notequal" unicode="&#x2260;" 
d="M822 1051h139l-143 -175h142v-141h-257l-162 -199h419v-141h-534l-165 -202h-138l165 202h-166v141h280l163 199h-443v141h557z" />
    <glyph glyph-name="lessequal" unicode="&#x2264;" 
d="M150 594v123l739 354v-161l-571 -255l571 -258v-161zM960 121v-141h-838v141h838z" />
    <glyph glyph-name="greaterequal" unicode="&#x2265;" 
d="M932 594l-739 -358v161l571 258l-571 255v161l739 -354v-123zM122 121h838v-141h-838v141z" />
    <glyph glyph-name="H22073" unicode="&#x25a1;" horiz-adv-x="1237" 
d="M146 944h944v-944h-944v944zM222 868v-792h792v792h-792z" />
    <glyph glyph-name="H18543" unicode="&#x25aa;" horiz-adv-x="726" 
d="M594 908v-463h-463v463h463z" />
    <glyph glyph-name="H18551" unicode="&#x25ab;" horiz-adv-x="726" 
d="M594 908v-463h-463v463h463zM518 832h-311v-311h311v311z" />
    <glyph glyph-name="lozenge" unicode="&#x25ca;" horiz-adv-x="1012" 
d="M549 1422l418 -713l-418 -709h-111l-391 709l391 713h111zM495 1325l-340 -616l340 -615l359 615z" />
    <glyph glyph-name="H18533" unicode="&#x25cf;" horiz-adv-x="1237" 
d="M177 576q0 183 129 312t312 129q182 0 311 -129t129 -312q0 -182 -129 -311t-311 -129q-183 0 -312 129t-129 311z" />
    <glyph glyph-name="openbullet" unicode="&#x25e6;" horiz-adv-x="726" 
d="M363 928q104 0 177.5 -73.5t73.5 -177.5t-73.5 -177.5t-177.5 -73.5t-177.5 73.5t-73.5 177.5t73 177.5t178 73.5zM363 852q-73 0 -124 -51.5t-51 -123.5q0 -73 51.5 -124t123.5 -51t123.5 51t51.5 124q0 72 -51 123.5t-124 51.5z" />
    <glyph glyph-name="uniFB00" unicode="&#xfb00;" horiz-adv-x="1372" 
d="M1374 1333q-74 27 -137 27q-182 0 -182 -266v-23h299v-160h-299v-911h-191v911h-467v-911h-190v911h-176v160h176q0 191 100 304.5t268 113.5q97 0 179 -29l-37 -147q-71 26 -137 26q-82 0 -132.5 -64.5t-50.5 -182.5v-21h467q0 438 369 438q97 0 178 -28z" />
    <glyph glyph-name="uniFB01" unicode="&#xfb01;" horiz-adv-x="1187" 
d="M843 0v911h-444v-911h-190v911h-156v160h156q0 205 101 322t267 117q83 0 178 -30l-53 -140q-58 20 -108 20q-87 0 -143.5 -66t-56.5 -167q0 -27 5 -56h637v-1071h-193zM917 1476q49 0 83.5 -34.5t34.5 -82.5q0 -49 -34.5 -83.5t-83.5 -34.5q-48 0 -82.5 34.5t-34.5 83.5
t34 83t83 34z" />
    <glyph glyph-name="uniFB02" unicode="&#xfb02;" horiz-adv-x="1230" 
d="M1145 -20q-176 0 -252.5 73t-76.5 250v982q-26 30 -87 52.5t-123 22.5q-87 0 -143.5 -66t-56.5 -167q0 -27 5 -56h188v-160h-188v-911h-190v911h-156v160h156q0 205 101 322t267 117q147 0 227 -47v27h190v-1155q0 -185 139 -185v-170z" />
    <glyph glyph-name="uniFB03" unicode="&#xfb03;" horiz-adv-x="1847" 
d="M1522 0v911h-467v-911h-191v911h-467v-911h-190v911h-176v160h176q0 191 100 304.5t268 113.5q97 0 179 -29l-37 -147q-71 26 -137 26q-82 0 -132.5 -64.5t-50.5 -182.5v-21h467q0 211 93.5 324.5t275.5 113.5q97 0 178 -28l-37 -148q-74 27 -137 27q-182 0 -182 -266
v-23h657v-1071h-190zM1722 1360q0 -50 -34 -84.5t-82 -34.5q-49 0 -84 35t-35 84q0 47 35 82t84 35q47 0 81.5 -34.5t34.5 -82.5z" />
    <glyph glyph-name="uniFB04" unicode="&#xfb04;" horiz-adv-x="1884" 
d="M1495 1360h-188q-119 0 -185.5 -73.5t-66.5 -192.5v-23h299v-160h-299v-911h-191v911h-467v-911h-190v911h-176v160h176q0 191 100 304.5t268 113.5q97 0 179 -29l-37 -147q-71 26 -137 26q-82 0 -132.5 -64.5t-50.5 -182.5v-21h467q0 208 111.5 323t320.5 115h390v-1173
q0 -87 48.5 -136.5t129.5 -49.5v-170q-369 0 -369 323v1057z" />
    <glyph glyph-name="uniFB06" unicode="&#xfb06;" horiz-adv-x="1616" 
d="M1038 911h-123v160h123v94q0 129 -46 181.5t-146 52.5q-98 0 -156.5 -54t-58.5 -135q0 -135 100 -192l-63 -160q-123 74 -230 74q-159 0 -159 -115q0 -64 61 -110.5t168 -94.5q145 -67 203.5 -140.5t58.5 -184.5q0 -144 -92.5 -225.5t-259.5 -81.5q-210 0 -357 100
l84 158q161 -99 271 -99q162 0 162 137q0 56 -39 99.5t-162 101.5q-287 129 -287 334q0 127 94 204t252 77q41 0 62 -5q-35 59 -35 160q0 132 110 222t275 90q175 0 278 -88t103 -238v-162h317v-160h-317v-540q0 -232 151 -232q87 0 164 37l47 -147q-110 -49 -237 -49
q-149 0 -232.5 93t-83.5 253v585z" />
    <glyph glyph-name="glyph210" horiz-adv-x="1024" 
d="M128 350v768h768v-768h-768zM256 478h512v512h-512v-512z" />
    <glyph glyph-name="glyph251" horiz-adv-x="751" 
d="M18 -420v170q196 0 268.5 59.5t72.5 195.5v906h-213v160h403v-1062q0 -221 -130 -325t-401 -104z" />
    <glyph glyph-name="glyph252" horiz-adv-x="752" 
d="M411 1718l54 -57q-62 -61 -70 -82.5t-8 -39.5q0 -41 42 -75t42 -81q0 -98 -106 -98q-108 0 -108 145q0 168 154 288z" />
    <glyph glyph-name="glyph265" horiz-adv-x="752" 
d="M296 1083l-47 63q72 58 81.5 80.5t9.5 44.5q0 33 -34.5 66.5t-34.5 69.5q0 103 102 103q108 0 108 -124q0 -188 -185 -303z" />
    <glyph glyph-name="iacute.locl" horiz-adv-x="584" 
d="M331 1476q49 0 83.5 -34.5t34.5 -82.5q0 -49 -34.5 -83.5t-83.5 -34.5q-48 0 -82.5 34.5t-34.5 83.5t34 83t83 34zM227 0v911h-147v160h337v-1071h-190zM561 1908l-226 -333h-140l169 333h197z" />
    <glyph glyph-name="glyph581" horiz-adv-x="1073" 
d="M891 1571q-67 -307 -359 -307q-291 0 -358 307l170 39q37 -205 188 -205q170 0 197 203z" />
    <glyph glyph-name="glyph582" horiz-adv-x="752" 
d="M250 -350q96 38 96 96q0 25 -38 51q-38 25 -38 66q0 86 103 86q108 0 108 -129q0 -168 -209 -240z" />
    <glyph glyph-name="i.ss04" horiz-adv-x="498" 
d="M367 1360q0 -51 -35 -85t-82 -34q-49 0 -84 35t-35 84q0 47 35 82t84 35q47 0 82 -34t35 -83zM154 0v1071h190v-1071h-190z" />
    <glyph glyph-name="j.ss04" horiz-adv-x="498" 
d="M365 1360q0 -49 -35.5 -84t-83.5 -35q-49 0 -83 34.5t-34 84.5q0 48 34 82.5t83 34.5q48 0 83.5 -35t35.5 -82zM-166 -250q154 0 237 51.5t83 202.5v1067h190v-1063q0 -416 -489 -428z" />
    <glyph glyph-name="igrave.ss04" horiz-adv-x="498" 
d="M154 0v1071h190v-1071h-190zM241 1285l-226 333h197l169 -333h-140z" />
    <glyph glyph-name="iacute.ss04" horiz-adv-x="498" 
d="M154 0v1071h190v-1071h-190zM540 1618l-226 -333h-140l169 333h197z" />
    <glyph glyph-name="icircumflex.ss04" horiz-adv-x="498" 
d="M154 0v1071h190v-1071h-190zM423 1285l-163 189l-178 -189h-172l298 338h107l305 -338h-197z" />
    <glyph glyph-name="idieresis.ss04" horiz-adv-x="498" 
d="M154 0v1071h190v-1071h-190zM22 1513q47 0 79.5 -32.5t32.5 -79.5t-32.5 -80t-79.5 -33t-80 33t-33 80t33 79.5t80 32.5zM494 1513q47 0 80 -32.5t33 -79.5t-33 -80t-80 -33t-79.5 33t-32.5 80t32.5 79.5t79.5 32.5z" />
    <glyph glyph-name="itilde.ss04" horiz-adv-x="498" 
d="M154 0v1071h190v-1071h-190zM581 1492q-53 -207 -192 -207q-63 0 -138.5 38.5t-106.5 38.5q-71 0 -108 -77h-91q14 84 64.5 145.5t119.5 61.5q82 0 151.5 -38.5t104.5 -38.5q81 0 108 77h88z" />
    <glyph glyph-name="imacron.ss04" horiz-adv-x="498" 
d="M154 0v1071h190v-1071h-190zM627 1426v-141h-738v141h738z" />
    <glyph glyph-name="ibreve.ss04" horiz-adv-x="498" 
d="M154 0v1071h190v-1071h-190zM599 1610q0 -118 -94 -221.5t-250 -103.5q-149 0 -234 94t-85 231h141q-3 -61 51 -116t127 -55q85 0 143 51.5t58 119.5h143z" />
    <glyph glyph-name="iogonek.ss04" horiz-adv-x="498" 
d="M367 1360q0 -51 -35 -85t-82 -34q-49 0 -84 35t-35 84q0 47 35 82t84 35q47 0 82 -34t35 -83zM154 0v1071h190v-1071h-190zM445 -196l67 -142q-96 -35 -178 -35q-117 0 -194.5 69t-77.5 179q0 174 205 286l58 -161q-66 -32 -82 -59.5t-16 -73.5q0 -94 111 -94
q54 0 107 31z" />
    <glyph glyph-name="dotlessi.ss04" horiz-adv-x="498" 
d="M154 0v1071h190v-1071h-190z" />
    <glyph glyph-name="ij.ss04" horiz-adv-x="977" 
d="M367 1360q0 -51 -35 -85t-82 -34q-49 0 -84 35t-35 84q0 47 35 82t84 35q47 0 82 -34t35 -83zM844 1360q0 -49 -35 -84t-84 -35t-83 34.5t-34 84.5q0 48 34 82.5t83 34.5t84 -35t35 -82zM154 0v1071h190v-1071h-190zM313 -250q154 0 237 51.5t83 202.5v1067h190v-1063
q0 -416 -489 -428z" />
    <glyph glyph-name="jcircumflex.ss04" horiz-adv-x="498" 
d="M-166 -250q154 0 237 51.5t83 202.5v1067h190v-1063q0 -416 -489 -428zM415 1285l-163 189l-178 -189h-172l298 338h107l305 -338h-197z" />
    <glyph glyph-name="uni0456.ss04" horiz-adv-x="498" 
d="M367 1360q0 -51 -35 -85t-82 -34q-49 0 -84 35t-35 84q0 47 35 82t84 35q47 0 82 -34t35 -83zM154 0v1071h190v-1071h-190z" />
    <glyph glyph-name="uni0457.ss04" horiz-adv-x="498" 
d="M154 0v1071h190v-1071h-190zM18 1473q47 0 79.5 -32.5t32.5 -79.5t-32.5 -80t-79.5 -33t-80 33t-33 80t33 79.5t80 32.5zM490 1473q47 0 80 -32.5t33 -79.5t-33 -80t-80 -33t-79.5 33t-32.5 80t32.5 79.5t79.5 32.5z" />
    <glyph glyph-name="uni0458.ss04" horiz-adv-x="498" 
d="M365 1360q0 -49 -35.5 -84t-83.5 -35q-49 0 -83 34.5t-34 84.5q0 48 34 82.5t83 34.5q48 0 83.5 -35t35.5 -82zM-166 -250q154 0 237 51.5t83 202.5v1067h190v-1063q0 -416 -489 -428z" />
    <glyph glyph-name="glyph599" horiz-adv-x="498" 
d="M-166 -250q154 0 237 51.5t83 202.5v1067h190v-1063q0 -416 -489 -428z" />
    <glyph glyph-name="ampersand.ss04" horiz-adv-x="1313" 
d="M1245 610q-66 -206 -170 -348q146 -130 195 -168l-125 -127q-92 74 -189 162q-182 -154 -409 -154q-208 0 -333.5 115t-125.5 305q0 233 229 402q-120 172 -120 338q0 172 91 264t263 92q163 0 254.5 -80.5t91.5 -228.5q0 -107 -64 -195t-264 -219q143 -166 375 -387
q84 124 135 289zM469 895q236 143 236 287q0 159 -156 159q-166 0 -166 -202q0 -115 86 -244zM827 250q-269 254 -405 412q-135 -115 -135 -267q0 -114 73.5 -181t204.5 -67q140 0 262 103z" />
    <glyph glyph-name="c_t.dlig" horiz-adv-x="1800" 
d="M1223 911h-123v160h123v127q0 94 -52 147.5t-149 53.5q-95 0 -151 -52.5t-56 -127.5q0 -124 152 -236l-97 -139q-119 88 -247 88q-153 0 -243.5 -109t-90.5 -299q0 -182 86.5 -283.5t234.5 -101.5q145 0 279 97l82 -138q-165 -118 -377 -118q-230 0 -367 147.5
t-137 396.5q0 256 147.5 412t389.5 156q22 0 63 -5q-35 56 -35 150q0 143 102 232.5t267 89.5q181 0 285 -90t104 -238v-160h318v-160h-318v-540q0 -232 152 -232q85 0 164 37l47 -147q-104 -49 -238 -49q-148 0 -231.5 93.5t-83.5 252.5v585z" />
    <glyph glyph-name="A.c2sc" horiz-adv-x="1016" 
d="M821 0l-108 276h-406l-108 -276h-209l491 1137h86l459 -1137h-205zM518 831l-164 -409h312z" />
    <glyph glyph-name="B.c2sc" horiz-adv-x="1028" 
d="M143 0v1143q187 10 340 10q398 0 398 -285q0 -190 -224 -245q297 -41 297 -295q0 -157 -116.5 -242.5t-327.5 -85.5h-367zM330 686q52 -6 129 -6q235 0 235 182q0 80 -54 111t-163 31q-72 0 -147 -7v-311zM330 537v-383q76 -9 131 -9q153 0 226 46.5t73 152.5
q0 108 -72.5 151.5t-224.5 43.5z" />
    <glyph glyph-name="C.c2sc" horiz-adv-x="985" 
d="M862 942q-120 59 -252 59q-148 0 -239.5 -123t-91.5 -319q0 -186 93.5 -302t239.5 -116q145 0 267 99l88 -125q-142 -133 -373 -133q-234 0 -373 159t-139 426q0 257 148 426.5t376 169.5q181 0 312 -63z" />
    <glyph glyph-name="D.c2sc" horiz-adv-x="1133" 
d="M160 0v1137q223 14 319 14q261 0 416.5 -146.5t155.5 -386.5q0 -288 -154 -453t-424 -165h-313zM346 170q42 -8 137 -8q375 0 375 442q0 385 -387 385q-46 0 -125 -8v-811z" />
    <glyph glyph-name="E.c2sc" horiz-adv-x="967" 
d="M346 981v-317h402v-154h-402v-348h551v-162h-737v1143h745v-162h-559z" />
    <glyph glyph-name="F.c2sc" horiz-adv-x="899" 
d="M346 981v-317h406v-154h-406v-510h-186v1143h708v-162h-522z" />
    <glyph glyph-name="G.c2sc" horiz-adv-x="1194" 
d="M1061 616v-520q-188 -114 -424 -114q-255 0 -405 158.5t-150 426.5q0 265 164.5 430.5t429.5 165.5q205 0 334 -92l-76 -149q-122 79 -256 79q-183 0 -291 -118t-108 -322q0 -199 101.5 -309.5t287.5 -110.5q127 0 206 54v268h-208v153h395z" />
    <glyph glyph-name="H.c2sc" horiz-adv-x="1223" 
d="M877 0v510h-531v-510h-186v1143h186v-479h531v479h186v-1143h-186z" />
    <glyph glyph-name="I.c2sc" horiz-adv-x="506" 
d="M160 0v1143h186v-1143h-186z" />
    <glyph glyph-name="J.c2sc" horiz-adv-x="782" 
d="M639 367q0 -385 -332 -385q-188 0 -287 114l105 127q82 -84 182 -84q148 0 148 215v789h184v-776z" />
    <glyph glyph-name="K.c2sc" horiz-adv-x="1055" 
d="M838 0l-334 510l-158 -178v-332h-186v1143h186v-604l447 604h208l-380 -496l434 -647h-217z" />
    <glyph glyph-name="L.c2sc" horiz-adv-x="897" 
d="M160 0v1143h186v-981h528v-162h-714z" />
    <glyph glyph-name="M.c2sc" horiz-adv-x="1421" 
d="M1194 0l-137 719l-324 -735h-41l-344 733l-121 -717h-198l233 1143h76l373 -799l354 799h76l252 -1143h-199z" />
    <glyph glyph-name="N.c2sc" horiz-adv-x="1231" 
d="M1004 -16l-666 778v-762h-178v1143h65l666 -764v764h180v-1159h-67z" />
    <glyph glyph-name="O.c2sc" horiz-adv-x="1174" 
d="M590 -18q-233 0 -370.5 157t-137.5 432q0 277 137 434.5t371 157.5q237 0 369.5 -154.5t132.5 -437.5q0 -282 -133 -435.5t-369 -153.5zM590 141q146 0 226.5 108.5t80.5 321.5q0 212 -81.5 321t-225.5 109q-311 0 -311 -430t311 -430z" />
    <glyph glyph-name="P.c2sc" horiz-adv-x="999" 
d="M346 0h-186v1137q224 14 305 14q226 0 349.5 -91t123.5 -253q0 -375 -469 -375q-27 0 -123 6v-438zM346 600q42 -10 121 -10q145 0 211.5 47t66.5 164q0 188 -276 188q-50 0 -123 -8v-381z" />
    <glyph glyph-name="Q.c2sc" horiz-adv-x="1174" 
d="M844 41q97 -125 305 -125h129l-25 -172q-421 0 -571 246q-58 -8 -92 -8q-233 0 -370.5 157t-137.5 432q0 277 137 434.5t371 157.5q237 0 369.5 -154.5t132.5 -437.5q0 -390 -248 -530zM590 141q146 0 226.5 108.5t80.5 321.5q0 212 -81.5 321t-225.5 109
q-311 0 -311 -430t311 -430z" />
    <glyph glyph-name="R.c2sc" horiz-adv-x="1036" 
d="M815 0l-315 479q-16 0 -154 8v-487h-186v1143q261 12 332 12q430 0 430 -328q0 -106 -69 -191.5t-173 -119.5l356 -516h-221zM346 641q74 -8 109 -8q155 0 213.5 45t58.5 153q0 87 -58.5 125.5t-185.5 38.5q-50 0 -137 -8v-346z" />
    <glyph glyph-name="S.c2sc" horiz-adv-x="836" 
d="M74 63l67 156q112 -80 258 -80q88 0 136.5 43t48.5 113q0 84 -55 129t-158 92q-287 130 -287 344q0 129 98 215t250 86q160 0 287 -67l-62 -154q-126 66 -221 66q-80 0 -124 -39.5t-44 -102.5q0 -66 54.5 -116t183.5 -105q141 -65 200.5 -144t59.5 -206
q0 -138 -103 -224.5t-268 -86.5q-192 0 -321 81z" />
    <glyph glyph-name="T.c2sc" horiz-adv-x="991" 
d="M588 981v-981h-187v981h-385v162h959v-162h-387z" />
    <glyph glyph-name="U.c2sc" horiz-adv-x="1161" 
d="M143 1143h187v-762q0 -240 248 -240q253 0 253 244v758h187v-766q0 -186 -115 -290.5t-323 -104.5q-212 0 -324.5 101.5t-112.5 291.5v768z" />
    <glyph glyph-name="V.c2sc" horiz-adv-x="997" 
d="M530 -16h-49l-491 1159h211l233 -596q52 -134 74 -236q23 107 72 238l227 594h201z" />
    <glyph glyph-name="W.c2sc" horiz-adv-x="1530" 
d="M1120 -16h-53l-309 770l-291 -770h-51l-416 1159h205l246 -756l294 756h37l297 -756l248 756h203z" />
    <glyph glyph-name="X.c2sc" horiz-adv-x="1020" 
d="M797 0l-291 469l-291 -469h-205l379 594l-350 549h203l272 -443l272 443h205l-366 -553l385 -590h-213z" />
    <glyph glyph-name="Y.c2sc" horiz-adv-x="969" 
d="M578 512v-512h-185v512l-393 631h209l276 -471l275 471h209z" />
    <glyph glyph-name="Z.c2sc" horiz-adv-x="958" 
d="M88 0v39l510 942h-502v162h764v-39l-516 -942h533v-162h-789z" />
    <glyph glyph-name="Alphatonos.c2sc" horiz-adv-x="1016" 
d="M821 0l-108 276h-406l-108 -276h-209l491 1137h86l459 -1137h-205zM518 831l-164 -409h312zM760 1618l-178 -334h-158l111 334h225z" />
    <glyph glyph-name="Epsilontonos.c2sc" horiz-adv-x="967" 
d="M346 981v-317h402v-154h-402v-348h551v-162h-737v1143h745v-162h-559zM745 1618l-178 -334h-158l111 334h225z" />
    <glyph glyph-name="Etatonos.c2sc" horiz-adv-x="1223" 
d="M877 0v510h-531v-510h-186v1143h186v-479h531v479h186v-1143h-186zM827 1618l-178 -334h-158l111 334h225z" />
    <glyph glyph-name="Iotatonos.c2sc" horiz-adv-x="506" 
d="M160 0v1143h186v-1143h-186zM464 1618l-178 -334h-158l111 334h225z" />
    <glyph glyph-name="Omicrontonos.c2sc" horiz-adv-x="1174" 
d="M590 -18q-233 0 -370.5 157t-137.5 432q0 277 137 434.5t371 157.5q237 0 369.5 -154.5t132.5 -437.5q0 -282 -133 -435.5t-369 -153.5zM590 141q146 0 226.5 108.5t80.5 321.5q0 212 -81.5 321t-225.5 109q-311 0 -311 -430t311 -430zM801 1618l-178 -334h-158l111 334
h225z" />
    <glyph glyph-name="Upsilontonos.c2sc" horiz-adv-x="969" 
d="M578 512v-512h-185v512l-393 631h209l276 -471l275 471h209zM712 1618l-178 -334h-158l111 334h225z" />
    <glyph glyph-name="Omegatonos.c2sc" horiz-adv-x="1190" 
d="M516 80v-80h-455v166h215q-70 84 -117.5 213t-47.5 248q0 258 124.5 397t358.5 139t361.5 -139.5t127.5 -396.5q0 -286 -168 -461h213v-166h-452v80q219 222 219 516q0 405 -297 405q-303 0 -303 -405q0 -295 221 -516zM860 1618l-178 -334h-158l111 334h225z" />
    <glyph glyph-name="Alpha.c2sc" horiz-adv-x="1016" 
d="M821 0l-108 276h-406l-108 -276h-209l491 1137h86l459 -1137h-205zM518 831l-164 -409h312z" />
    <glyph glyph-name="Beta.c2sc" horiz-adv-x="1028" 
d="M143 0v1143q187 10 340 10q398 0 398 -285q0 -190 -224 -245q297 -41 297 -295q0 -157 -116.5 -242.5t-327.5 -85.5h-367zM330 686q52 -6 129 -6q235 0 235 182q0 80 -54 111t-163 31q-72 0 -147 -7v-311zM330 537v-383q76 -9 131 -9q153 0 226 46.5t73 152.5
q0 108 -72.5 151.5t-224.5 43.5z" />
    <glyph glyph-name="Gamma.c2sc" horiz-adv-x="897" 
d="M879 977h-533v-977h-186v1143h719v-166z" />
    <glyph glyph-name="uni0394.c2sc" horiz-adv-x="977" 
d="M457 1159h49l471 -1108v-51h-977v49zM479 831q-11 -59 -78 -237l-170 -442h502l-174 444q-66 169 -80 235z" />
    <glyph glyph-name="Epsilon.c2sc" horiz-adv-x="967" 
d="M346 981v-317h402v-154h-402v-348h551v-162h-737v1143h745v-162h-559z" />
    <glyph glyph-name="Zeta.c2sc" horiz-adv-x="958" 
d="M88 0v39l510 942h-502v162h764v-39l-516 -942h533v-162h-789z" />
    <glyph glyph-name="Eta.c2sc" horiz-adv-x="1223" 
d="M877 0v510h-531v-510h-186v1143h186v-479h531v479h186v-1143h-186z" />
    <glyph glyph-name="Theta.c2sc" horiz-adv-x="1174" 
d="M590 -18q-233 0 -370.5 157t-137.5 432q0 277 137 434.5t371 157.5q237 0 369.5 -154.5t132.5 -437.5q0 -282 -133 -435.5t-369 -153.5zM590 141q146 0 226.5 108.5t80.5 321.5q0 212 -81.5 321t-225.5 109q-311 0 -311 -430t311 -430zM782 510h-389v154h389v-154z" />
    <glyph glyph-name="Iota.c2sc" horiz-adv-x="506" 
d="M160 0v1143h186v-1143h-186z" />
    <glyph glyph-name="Kappa.c2sc" horiz-adv-x="1055" 
d="M838 0l-334 510l-158 -178v-332h-186v1143h186v-604l447 604h208l-380 -496l434 -647h-217z" />
    <glyph glyph-name="Lambda.c2sc" horiz-adv-x="997" 
d="M467 1159h49l492 -1159h-211l-234 596q-52 132 -74 235q-13 -64 -56 -191l-15 -46l-228 -594h-200z" />
    <glyph glyph-name="Mu.c2sc" horiz-adv-x="1421" 
d="M1194 0l-137 719l-324 -735h-41l-344 733l-121 -717h-198l233 1143h76l373 -799l354 799h76l252 -1143h-199z" />
    <glyph glyph-name="Nu.c2sc" horiz-adv-x="1231" 
d="M1004 -16l-666 778v-762h-178v1143h65l666 -764v764h180v-1159h-67z" />
    <glyph glyph-name="Xi.c2sc" horiz-adv-x="922" 
d="M72 981v162h778v-162h-778zM772 664v-154h-622v154h622zM860 162v-162h-799v162h799z" />
    <glyph glyph-name="Omicron.c2sc" horiz-adv-x="1174" 
d="M590 -18q-233 0 -370.5 157t-137.5 432q0 277 137 434.5t371 157.5q237 0 369.5 -154.5t132.5 -437.5q0 -282 -133 -435.5t-369 -153.5zM590 141q146 0 226.5 108.5t80.5 321.5q0 212 -81.5 321t-225.5 109q-311 0 -311 -430t311 -430z" />
    <glyph glyph-name="Pi.c2sc" horiz-adv-x="1182" 
d="M1022 0h-186v977h-490v-977h-186v1143h862v-1143z" />
    <glyph glyph-name="Rho.c2sc" horiz-adv-x="999" 
d="M346 0h-186v1137q224 14 305 14q226 0 349.5 -91t123.5 -253q0 -375 -469 -375q-27 0 -123 6v-438zM346 600q42 -10 121 -10q145 0 211.5 47t66.5 164q0 188 -276 188q-50 0 -123 -8v-381z" />
    <glyph glyph-name="Sigma.c2sc" horiz-adv-x="862" 
d="M776 981h-434l244 -356l-297 -463h542v-162h-800v39l364 573l-336 492v39h717v-162z" />
    <glyph glyph-name="Tau.c2sc" horiz-adv-x="991" 
d="M588 981v-981h-187v981h-385v162h959v-162h-387z" />
    <glyph glyph-name="Upsilon.c2sc" horiz-adv-x="969" 
d="M578 512v-512h-185v512l-393 631h209l276 -471l275 471h209z" />
    <glyph glyph-name="Phi.c2sc" horiz-adv-x="1217" 
d="M700 1069q209 -18 333 -151t124 -332q0 -206 -125 -343.5t-332 -152.5v-119h-182v119q-209 15 -334 150.5t-125 332.5q0 202 124 340.5t335 155.5v115h182v-115zM698 225q129 13 203 111t74 246q0 144 -74.5 241.5t-202.5 108.5v-707zM520 932q-126 -12 -201 -110.5
t-75 -246.5q0 -145 75 -241.5t201 -108.5v707z" />
    <glyph glyph-name="Chi.c2sc" horiz-adv-x="1020" 
d="M797 0l-291 469l-291 -469h-205l379 594l-350 549h203l272 -443l272 443h205l-366 -553l385 -590h-213z" />
    <glyph glyph-name="Psi.c2sc" horiz-adv-x="1276" 
d="M1163 705q0 -174 -113.5 -292.5t-320.5 -144.5v-268h-180v268q-209 19 -322.5 132.5t-113.5 289.5v453h180v-459q0 -241 258 -272v731h176v-731q116 22 187 95.5t71 170.5v465h178v-438z" />
    <glyph glyph-name="uni03A9.c2sc" horiz-adv-x="1190" 
d="M516 80v-80h-455v166h215q-70 84 -117.5 213t-47.5 248q0 258 124.5 397t358.5 139t361.5 -139.5t127.5 -396.5q0 -286 -168 -461h213v-166h-452v80q219 222 219 516q0 405 -297 405q-303 0 -303 -405q0 -295 221 -516z" />
    <glyph glyph-name="uni0401.c2sc" horiz-adv-x="967" 
d="M346 981v-317h402v-154h-402v-348h551v-162h-737v1143h745v-162h-559zM283 1513q47 0 79.5 -32.5t32.5 -79.5t-32.5 -80t-79.5 -33t-80 33t-33 80t33 79.5t80 32.5zM755 1513q47 0 80 -32.5t33 -79.5t-33 -80t-80 -33t-79.5 33t-32.5 80t32.5 79.5t79.5 32.5z" />
    <glyph glyph-name="uni0402.c2sc" horiz-adv-x="1221" 
d="M694 -2v149q55 -6 88 -6q185 0 185 211t-252 211q-73 0 -176 -18v-545h-185v985h-338v158h916v-158h-393v-293q89 19 194 19q202 0 314 -95.5t112 -263.5q0 -163 -101 -261.5t-259 -98.5q-56 0 -105 6z" />
    <glyph glyph-name="uni0403.c2sc" horiz-adv-x="897" 
d="M879 977h-533v-977h-186v1143h719v-166zM725 1618l-226 -333h-140l169 333h197z" />
    <glyph glyph-name="uni0404.c2sc" horiz-adv-x="985" 
d="M967 115q-142 -133 -373 -133q-236 0 -374 160.5t-138 424.5q0 258 148.5 427t390.5 169q162 0 297 -63l-62 -154q-119 55 -240 55q-136 0 -225 -82t-110 -235h450v-154h-459q0 -175 100 -282t244 -107q145 0 250 99z" />
    <glyph glyph-name="uni0405.c2sc" horiz-adv-x="836" 
d="M74 63l67 156q112 -80 258 -80q88 0 136.5 43t48.5 113q0 84 -55 129t-158 92q-287 130 -287 344q0 129 98 215t250 86q160 0 287 -67l-62 -154q-126 66 -221 66q-80 0 -124 -39.5t-44 -102.5q0 -66 54.5 -116t183.5 -105q141 -65 200.5 -144t59.5 -206
q0 -138 -103 -224.5t-268 -86.5q-192 0 -321 81z" />
    <glyph glyph-name="uni0406.c2sc" horiz-adv-x="506" 
d="M160 0v1143h186v-1143h-186z" />
    <glyph glyph-name="uni0407.c2sc" horiz-adv-x="506" 
d="M160 0v1143h186v-1143h-186zM18 1513q47 0 79.5 -32.5t32.5 -79.5t-32.5 -80t-79.5 -33t-80 33t-33 80t33 79.5t80 32.5zM490 1513q47 0 80 -32.5t33 -79.5t-33 -80t-80 -33t-79.5 33t-32.5 80t32.5 79.5t79.5 32.5z" />
    <glyph glyph-name="uni0408.c2sc" horiz-adv-x="782" 
d="M639 367q0 -385 -332 -385q-188 0 -287 114l105 127q82 -84 182 -84q148 0 148 215v789h184v-776z" />
    <glyph glyph-name="uni0409.c2sc" horiz-adv-x="1599" 
d="M764 0v985h-178q-67 -431 -150 -646.5t-173 -282t-263 -66.5v166q102 0 166.5 65t138 321t119.5 601h528v-469q69 6 123 6q451 0 451 -328q0 -168 -112.5 -260t-319.5 -92h-330zM952 150q45 -5 105 -5q139 0 204.5 44.5t65.5 160.5q0 187 -262 187q-48 0 -113 -9v-378z
" />
    <glyph glyph-name="uni040A.c2sc" horiz-adv-x="1628" 
d="M784 0v510h-438v-510h-186v1143h186v-479h438v479h187v-469q73 6 125 6q458 0 458 -328q0 -352 -415 -352h-355zM971 150q49 -5 106 -5q141 0 211 45.5t70 159.5q0 187 -273 187q-51 0 -114 -9v-378z" />
    <glyph glyph-name="uni040B.c2sc" horiz-adv-x="1274" 
d="M1147 0h-191v356q0 207 -227 207q-86 0 -190 -18v-545h-185v985h-338v158h916v-158h-393v-293q98 19 188 19q200 0 310 -92.5t110 -264.5v-354z" />
    <glyph glyph-name="uni040C.c2sc" horiz-adv-x="1069" 
d="M1020 -4q-16 -4 -62 -4q-109 0 -166.5 53t-76.5 170q-30 168 -113.5 239.5t-255.5 71.5v-526h-186v1143h186v-463h14q301 0 349 254q36 215 233 215q33 0 57 -4v-154l-10 2q-19 4 -50.5 -5.5t-51.5 -104.5q-50 -220 -279 -279q245 -79 293 -332q14 -67 30.5 -93.5
t51.5 -26.5q19 0 37 4v-160zM801 1618l-226 -333h-140l169 333h197z" />
    <glyph glyph-name="uni040E.c2sc" horiz-adv-x="991" 
d="M991 1143q-100 -374 -236 -640t-280 -389.5t-364 -123.5v172q200 0 297 157l-396 824h209l309 -697q160 270 261 697h200zM880 1571q-67 -307 -359 -307q-291 0 -358 307l170 39q37 -205 188 -205q170 0 197 203z" />
    <glyph glyph-name="uni040F.c2sc" horiz-adv-x="1190" 
d="M1030 0h-348v-328h-174v328h-348v1143h186v-981h498v981h186v-1143z" />
    <glyph glyph-name="uni0410.c2sc" horiz-adv-x="1016" 
d="M821 0l-108 276h-406l-108 -276h-209l491 1137h86l459 -1137h-205zM518 831l-164 -409h312z" />
    <glyph glyph-name="uni0411.c2sc" horiz-adv-x="1036" 
d="M346 674q86 6 158 6q459 0 459 -328q0 -168 -117 -260t-326 -92h-360v1143h708v-162h-522v-307zM346 154q67 -9 139 -9q152 0 216.5 40.5t64.5 164.5q0 103 -62.5 145t-209.5 42q-42 0 -148 -9v-374z" />
    <glyph glyph-name="uni0412.c2sc" horiz-adv-x="1028" 
d="M143 0v1143q187 10 340 10q398 0 398 -285q0 -190 -224 -245q297 -41 297 -295q0 -157 -116.5 -242.5t-327.5 -85.5h-367zM330 686q52 -6 129 -6q235 0 235 182q0 80 -54 111t-163 31q-72 0 -147 -7v-311zM330 537v-383q76 -9 131 -9q153 0 226 46.5t73 152.5
q0 108 -72.5 151.5t-224.5 43.5z" />
    <glyph glyph-name="uni0413.c2sc" horiz-adv-x="897" 
d="M879 977h-533v-977h-186v1143h719v-166z" />
    <glyph glyph-name="uni0414.c2sc" horiz-adv-x="1182" 
d="M1137 -328h-172v328h-770v-328h-170v480h69q141 186 228.5 400.5t144.5 590.5h541v-991h129v-480zM827 152v839h-209q-69 -503 -313 -839h522z" />
    <glyph glyph-name="uni0415.c2sc" horiz-adv-x="967" 
d="M346 981v-317h402v-154h-402v-348h551v-162h-737v1143h745v-162h-559z" />
    <glyph glyph-name="uni0416.c2sc" horiz-adv-x="1468" 
d="M1419 -4q-12 -4 -55 -4q-104 0 -159 51.5t-77 173.5q-27 156 -96.5 234.5t-200.5 78.5v-530h-184v530q-131 0 -205.5 -73t-103.5 -240q-37 -225 -232 -225q-45 0 -57 4v160q16 -4 35 -4q58 0 82 120q42 242 285 328q-232 53 -273 283q-12 65 -27.5 87.5t-50.5 22.5h-24
q-8 0 -13 -2v154q28 4 58 4q195 0 233 -217q23 -134 93.5 -194t199.5 -60v465h184v-465q240 0 287 254q38 217 232 217q27 0 55 -4v-154q-17 5 -55.5 -0.5t-59.5 -107.5q-44 -213 -274 -279q141 -55 205.5 -132.5t85.5 -199.5q18 -120 77 -120q19 0 35 4v-160z" />
    <glyph glyph-name="uni0417.c2sc" horiz-adv-x="879" 
d="M553 616q252 -62 252 -282q0 -159 -114.5 -255.5t-299.5 -96.5q-235 0 -373 81l78 156q128 -84 295 -84q105 0 164 53t59 140q0 215 -278 215q-43 0 -105 -4v151l62 -2q166 -5 228.5 42t62.5 138q0 67 -54 106.5t-143 39.5q-121 0 -258 -72l-59 152q152 69 325 69
t272 -75t99 -207q0 -199 -213 -265z" />
    <glyph glyph-name="uni0418.c2sc" horiz-adv-x="1231" 
d="M160 -16v1159h178v-768l666 768h67v-1143h-180v762l-666 -778h-65z" />
    <glyph glyph-name="uni0419.c2sc" horiz-adv-x="1231" 
d="M160 -16v1159h178v-768l666 768h67v-1143h-180v762l-666 -778h-65zM973 1571q-67 -307 -359 -307q-291 0 -358 307l170 39q37 -205 188 -205q170 0 197 203z" />
    <glyph glyph-name="uni041A.c2sc" horiz-adv-x="1069" 
d="M1020 -4q-16 -4 -62 -4q-109 0 -166.5 53t-76.5 170q-30 168 -113.5 239.5t-255.5 71.5v-526h-186v1143h186v-463h14q301 0 349 254q36 215 233 215q33 0 57 -4v-154l-10 2q-19 4 -50.5 -5.5t-51.5 -104.5q-50 -220 -279 -279q245 -79 293 -332q14 -67 30.5 -93.5
t51.5 -26.5q19 0 37 4v-160z" />
    <glyph glyph-name="uni041B.c2sc" horiz-adv-x="1153" 
d="M993 0h-188v985h-219q-67 -431 -150 -646.5t-173 -282t-263 -66.5v166q95 0 159.5 58.5t139.5 302.5t125 626h569v-1143z" />
    <glyph glyph-name="uni041C.c2sc" horiz-adv-x="1421" 
d="M1194 0l-137 719l-324 -735h-41l-344 733l-121 -717h-198l233 1143h76l373 -799l354 799h76l252 -1143h-199z" />
    <glyph glyph-name="uni041D.c2sc" horiz-adv-x="1223" 
d="M877 0v510h-531v-510h-186v1143h186v-479h531v479h186v-1143h-186z" />
    <glyph glyph-name="uni041E.c2sc" horiz-adv-x="1174" 
d="M590 -18q-233 0 -370.5 157t-137.5 432q0 277 137 434.5t371 157.5q237 0 369.5 -154.5t132.5 -437.5q0 -282 -133 -435.5t-369 -153.5zM590 141q146 0 226.5 108.5t80.5 321.5q0 212 -81.5 321t-225.5 109q-311 0 -311 -430t311 -430z" />
    <glyph glyph-name="uni041F.c2sc" horiz-adv-x="1182" 
d="M1022 0h-186v977h-490v-977h-186v1143h862v-1143z" />
    <glyph glyph-name="uni0420.c2sc" horiz-adv-x="999" 
d="M346 0h-186v1137q224 14 305 14q226 0 349.5 -91t123.5 -253q0 -375 -469 -375q-27 0 -123 6v-438zM346 600q42 -10 121 -10q145 0 211.5 47t66.5 164q0 188 -276 188q-50 0 -123 -8v-381z" />
    <glyph glyph-name="uni0421.c2sc" horiz-adv-x="985" 
d="M862 942q-120 59 -252 59q-148 0 -239.5 -123t-91.5 -319q0 -186 93.5 -302t239.5 -116q145 0 267 99l88 -125q-142 -133 -373 -133q-234 0 -373 159t-139 426q0 257 148 426.5t376 169.5q181 0 312 -63z" />
    <glyph glyph-name="uni0422.c2sc" horiz-adv-x="991" 
d="M588 981v-981h-187v981h-385v162h959v-162h-387z" />
    <glyph glyph-name="uni0423.c2sc" horiz-adv-x="991" 
d="M991 1143q-100 -374 -236 -640t-280 -389.5t-364 -123.5v172q200 0 297 157l-396 824h209l309 -697q160 270 261 697h200z" />
    <glyph glyph-name="uni0424.c2sc" horiz-adv-x="1217" 
d="M700 1069q209 -18 333 -151t124 -332q0 -206 -125 -343.5t-332 -152.5v-119h-182v119q-209 15 -334 150.5t-125 332.5q0 202 124 340.5t335 155.5v115h182v-115zM698 225q129 13 203 111t74 246q0 144 -74.5 241.5t-202.5 108.5v-707zM520 932q-126 -12 -201 -110.5
t-75 -246.5q0 -145 75 -241.5t201 -108.5v707z" />
    <glyph glyph-name="uni0425.c2sc" horiz-adv-x="1020" 
d="M797 0l-291 469l-291 -469h-205l379 594l-350 549h203l272 -443l272 443h205l-366 -553l385 -590h-213z" />
    <glyph glyph-name="uni0426.c2sc" horiz-adv-x="1149" 
d="M1104 -328h-172v328h-772v1143h186v-983h438v983h187v-983h133v-488z" />
    <glyph glyph-name="uni0427.c2sc" horiz-adv-x="1075" 
d="M915 0h-186v451q-114 -27 -201 -27q-192 0 -298.5 99.5t-106.5 275.5v344h188v-326q0 -244 228 -244q91 0 190 27v543h186v-1143z" />
    <glyph glyph-name="uni0428.c2sc" horiz-adv-x="1589" 
d="M1430 0h-1270v1143h180v-989h365v989h180v-989h364v989h181v-1143z" />
    <glyph glyph-name="uni0429.c2sc" horiz-adv-x="1606" 
d="M1561 -328h-170v328h-1231v1143h180v-989h365v989h180v-989h364v989h181v-989h131v-482z" />
    <glyph glyph-name="uni042A.c2sc" horiz-adv-x="1241" 
d="M373 0v983h-357v160h543v-459q71 6 148 6q460 0 460 -328q0 -168 -118 -265t-324 -97h-352zM559 154q67 -9 129 -9q145 0 212 50t67 165q0 187 -271 187q-42 0 -137 -8v-385z" />
    <glyph glyph-name="uni042B.c2sc" horiz-adv-x="1386" 
d="M1227 0h-185v1143h185v-1143zM160 0v1143h186v-459q69 6 125 6q449 0 449 -328q0 -174 -109.5 -268t-323.5 -94h-327zM346 150q45 -5 105 -5q153 0 221.5 46.5t68.5 168.5q0 100 -64.5 143.5t-215.5 43.5q-56 0 -115 -8v-389z" />
    <glyph glyph-name="uni042C.c2sc" horiz-adv-x="1016" 
d="M160 0v1143h186v-459q70 6 137 6q459 0 459 -328q0 -169 -117.5 -265.5t-324.5 -96.5h-340zM346 154q66 -9 119 -9q149 0 214.5 44.5t65.5 170.5q0 102 -61.5 144.5t-210.5 42.5q-36 0 -127 -8v-385z" />
    <glyph glyph-name="uni042D.c2sc" horiz-adv-x="987" 
d="M63 1085q142 78 324 78q236 0 377 -159.5t141 -425.5q0 -268 -142.5 -432t-383.5 -164q-218 0 -361 106l97 141q120 -88 260 -88q151 0 242 100t100 289h-443v154h439q-18 150 -107 237t-215 87q-137 0 -252 -66z" />
    <glyph glyph-name="uni042E.c2sc" horiz-adv-x="1571" 
d="M508 510h-162v-510h-186v1143h186v-479h164q19 233 151.5 366t337.5 133q221 0 355.5 -160.5t134.5 -431.5q0 -267 -132 -428t-358 -161q-216 0 -346.5 137.5t-144.5 390.5zM999 141q293 0 293 430t-293 430q-299 0 -299 -430t299 -430z" />
    <glyph glyph-name="uni042F.c2sc" horiz-adv-x="1053" 
d="M893 0h-186v475h-58q-153 0 -223 -69t-96 -207q-22 -112 -72 -159.5t-160 -47.5q-37 0 -49 4v160q18 -4 27 -4q36 0 50.5 26t25.5 80q45 212 225 272q-254 67 -254 306q0 151 112 235t330 84q169 0 328 -14v-1141zM707 621v368q-71 10 -156 10q-238 0 -238 -178
q0 -103 67.5 -151.5t219.5 -48.5h107z" />
    <glyph glyph-name="uni0490.c2sc" horiz-adv-x="905" 
d="M868 981h-520v-981h-188v1143h549v248h159v-410z" />
    <glyph glyph-name="Agrave.c2sc" horiz-adv-x="1016" 
d="M821 0l-108 276h-406l-108 -276h-209l491 1137h86l459 -1137h-205zM518 831l-164 -409h312zM458 1285l-226 333h197l169 -333h-140z" />
    <glyph glyph-name="Aacute.c2sc" horiz-adv-x="1016" 
d="M821 0l-108 276h-406l-108 -276h-209l491 1137h86l459 -1137h-205zM518 831l-164 -409h312zM818 1618l-226 -333h-140l169 333h197z" />
    <glyph glyph-name="Acircumflex.c2sc" horiz-adv-x="1016" 
d="M821 0l-108 276h-406l-108 -276h-209l491 1137h86l459 -1137h-205zM518 831l-164 -409h312zM682 1285l-163 189l-178 -189h-172l298 338h107l305 -338h-197z" />
    <glyph glyph-name="Atilde.c2sc" horiz-adv-x="1016" 
d="M821 0l-108 276h-406l-108 -276h-209l491 1137h86l459 -1137h-205zM518 831l-164 -409h312zM840 1492q-53 -207 -192 -207q-63 0 -138.5 38.5t-106.5 38.5q-71 0 -108 -77h-91q14 84 64.5 145.5t119.5 61.5q82 0 151.5 -38.5t104.5 -38.5q81 0 108 77h88z" />
    <glyph glyph-name="Adieresis.c2sc" horiz-adv-x="1016" 
d="M821 0l-108 276h-406l-108 -276h-209l491 1137h86l459 -1137h-205zM518 831l-164 -409h312zM283 1513q47 0 79.5 -32.5t32.5 -79.5t-32.5 -80t-79.5 -33t-80 33t-33 80t33 79.5t80 32.5zM755 1513q47 0 80 -32.5t33 -79.5t-33 -80t-80 -33t-79.5 33t-32.5 80t32.5 79.5
t79.5 32.5z" />
    <glyph glyph-name="Aring.c2sc" horiz-adv-x="1016" 
d="M821 0l-108 276h-406l-108 -276h-209l491 1137h86l459 -1137h-205zM518 831l-164 -409h312zM520 1490q88 0 149.5 -61t61.5 -148t-62 -148.5t-149 -61.5q-88 0 -150 61.5t-62 148.5t62 148t150 61zM520 1181q42 0 71.5 29.5t29.5 70.5t-29.5 70t-71.5 29t-72 -29t-30 -70
t30 -70.5t72 -29.5z" />
    <glyph glyph-name="AE.c2sc" horiz-adv-x="1495" 
d="M686 287h-346l-139 -287h-207l586 1143h854v-162h-560v-317h402v-154h-402v-348h551v-162h-739v287zM686 987l-278 -555h278v555z" />
    <glyph glyph-name="Ccedilla.c2sc" horiz-adv-x="985" 
d="M862 942q-120 59 -252 59q-148 0 -239.5 -123t-91.5 -319q0 -186 93.5 -302t239.5 -116q145 0 267 99l88 -125q-142 -133 -373 -133q-234 0 -373 159t-139 426q0 257 148 426.5t376 169.5q181 0 312 -63zM421 -455l-24 99q78 0 130 27t52 75q0 74 -90 74v119
q99 0 154 -56t55 -137q0 -94 -73 -147.5t-204 -53.5z" />
    <glyph glyph-name="Egrave.c2sc" horiz-adv-x="967" 
d="M346 981v-317h402v-154h-402v-348h551v-162h-737v1143h745v-162h-559zM519 1285l-226 333h197l169 -333h-140z" />
    <glyph glyph-name="Eacute.c2sc" horiz-adv-x="967" 
d="M346 981v-317h402v-154h-402v-348h551v-162h-737v1143h745v-162h-559zM725 1618l-226 -333h-140l169 333h197z" />
    <glyph glyph-name="Ecircumflex.c2sc" horiz-adv-x="967" 
d="M346 981v-317h402v-154h-402v-348h551v-162h-737v1143h745v-162h-559zM682 1285l-163 189l-178 -189h-172l298 338h107l305 -338h-197z" />
    <glyph glyph-name="Edieresis.c2sc" horiz-adv-x="967" 
d="M346 981v-317h402v-154h-402v-348h551v-162h-737v1143h745v-162h-559zM283 1513q47 0 79.5 -32.5t32.5 -79.5t-32.5 -80t-79.5 -33t-80 33t-33 80t33 79.5t80 32.5zM755 1513q47 0 80 -32.5t33 -79.5t-33 -80t-80 -33t-79.5 33t-32.5 80t32.5 79.5t79.5 32.5z" />
    <glyph glyph-name="Igrave.c2sc" horiz-adv-x="506" 
d="M160 0v1143h186v-1143h-186zM232 1285l-226 333h197l169 -333h-140z" />
    <glyph glyph-name="Iacute.c2sc" horiz-adv-x="506" 
d="M160 0v1143h186v-1143h-186zM499 1618l-226 -333h-140l169 333h197z" />
    <glyph glyph-name="Icircumflex.c2sc" horiz-adv-x="506" 
d="M160 0v1143h186v-1143h-186zM411 1285l-163 189l-178 -189h-172l298 338h107l305 -338h-197z" />
    <glyph glyph-name="Idieresis.c2sc" horiz-adv-x="506" 
d="M160 0v1143h186v-1143h-186zM18 1513q47 0 79.5 -32.5t32.5 -79.5t-32.5 -80t-79.5 -33t-80 33t-33 80t33 79.5t80 32.5zM490 1513q47 0 80 -32.5t33 -79.5t-33 -80t-80 -33t-79.5 33t-32.5 80t32.5 79.5t79.5 32.5z" />
    <glyph glyph-name="Eth.c2sc" horiz-adv-x="1133" 
d="M160 0v514h-113v145h113v478q223 14 319 14q261 0 416.5 -146.5t155.5 -386.5q0 -288 -154 -453t-424 -165h-313zM346 659h246v-145h-246v-344q42 -8 137 -8q375 0 375 442q0 385 -387 385q-46 0 -125 -8v-322z" />
    <glyph glyph-name="Ntilde.c2sc" horiz-adv-x="1231" 
d="M1004 -16l-666 778v-762h-178v1143h65l666 -764v764h180v-1159h-67zM938 1492q-53 -207 -192 -207q-63 0 -138.5 38.5t-106.5 38.5q-71 0 -108 -77h-91q14 84 64.5 145.5t119.5 61.5q82 0 151.5 -38.5t104.5 -38.5q81 0 108 77h88z" />
    <glyph glyph-name="Ograve.c2sc" horiz-adv-x="1174" 
d="M590 -18q-233 0 -370.5 157t-137.5 432q0 277 137 434.5t371 157.5q237 0 369.5 -154.5t132.5 -437.5q0 -282 -133 -435.5t-369 -153.5zM590 141q146 0 226.5 108.5t80.5 321.5q0 212 -81.5 321t-225.5 109q-311 0 -311 -430t311 -430zM559 1285l-226 333h197l169 -333
h-140z" />
    <glyph glyph-name="Oacute.c2sc" horiz-adv-x="1174" 
d="M590 -18q-233 0 -370.5 157t-137.5 432q0 277 137 434.5t371 157.5q237 0 369.5 -154.5t132.5 -437.5q0 -282 -133 -435.5t-369 -153.5zM590 141q146 0 226.5 108.5t80.5 321.5q0 212 -81.5 321t-225.5 109q-311 0 -311 -430t311 -430zM846 1618l-226 -333h-140l169 333
h197z" />
    <glyph glyph-name="Ocircumflex.c2sc" horiz-adv-x="1174" 
d="M590 -18q-233 0 -370.5 157t-137.5 432q0 277 137 434.5t371 157.5q237 0 369.5 -154.5t132.5 -437.5q0 -282 -133 -435.5t-369 -153.5zM590 141q146 0 226.5 108.5t80.5 321.5q0 212 -81.5 321t-225.5 109q-311 0 -311 -430t311 -430zM735 1285l-163 189l-178 -189h-172
l298 338h107l305 -338h-197z" />
    <glyph glyph-name="Otilde.c2sc" horiz-adv-x="1174" 
d="M590 -18q-233 0 -370.5 157t-137.5 432q0 277 137 434.5t371 157.5q237 0 369.5 -154.5t132.5 -437.5q0 -282 -133 -435.5t-369 -153.5zM590 141q146 0 226.5 108.5t80.5 321.5q0 212 -81.5 321t-225.5 109q-311 0 -311 -430t311 -430zM901 1492q-53 -207 -192 -207
q-63 0 -138.5 38.5t-106.5 38.5q-71 0 -108 -77h-91q14 84 64.5 145.5t119.5 61.5q82 0 151.5 -38.5t104.5 -38.5q81 0 108 77h88z" />
    <glyph glyph-name="Odieresis.c2sc" horiz-adv-x="1174" 
d="M590 -18q-233 0 -370.5 157t-137.5 432q0 277 137 434.5t371 157.5q237 0 369.5 -154.5t132.5 -437.5q0 -282 -133 -435.5t-369 -153.5zM590 141q146 0 226.5 108.5t80.5 321.5q0 212 -81.5 321t-225.5 109q-311 0 -311 -430t311 -430zM343 1513q47 0 79.5 -32.5
t32.5 -79.5t-32.5 -80t-79.5 -33t-80 33t-33 80t33 79.5t80 32.5zM815 1513q47 0 80 -32.5t33 -79.5t-33 -80t-80 -33t-79.5 33t-32.5 80t32.5 79.5t79.5 32.5z" />
    <glyph glyph-name="Oslash.c2sc" horiz-adv-x="1174" 
d="M309 59l-55 -77h-199l140 188q-113 152 -113 401q0 277 137 434.5t371 157.5q160 0 276 -73l56 73h186l-129 -180q113 -152 113 -412q0 -282 -133 -435.5t-369 -153.5q-163 0 -281 77zM313 334l449 612q-70 55 -172 55q-311 0 -311 -430q0 -140 34 -237zM856 815
l-446 -618q71 -56 180 -56q146 0 226.5 108.5t80.5 321.5q0 144 -41 244z" />
    <glyph glyph-name="Ugrave.c2sc" horiz-adv-x="1161" 
d="M143 1143h187v-762q0 -240 248 -240q253 0 253 244v758h187v-766q0 -186 -115 -290.5t-323 -104.5q-212 0 -324.5 101.5t-112.5 291.5v768zM533 1285l-226 333h197l169 -333h-140z" />
    <glyph glyph-name="Uacute.c2sc" horiz-adv-x="1161" 
d="M143 1143h187v-762q0 -240 248 -240q253 0 253 244v758h187v-766q0 -186 -115 -290.5t-323 -104.5q-212 0 -324.5 101.5t-112.5 291.5v768zM822 1618l-226 -333h-140l169 333h197z" />
    <glyph glyph-name="Ucircumflex.c2sc" horiz-adv-x="1161" 
d="M143 1143h187v-762q0 -240 248 -240q253 0 253 244v758h187v-766q0 -186 -115 -290.5t-323 -104.5q-212 0 -324.5 101.5t-112.5 291.5v768zM737 1285l-163 189l-178 -189h-172l298 338h107l305 -338h-197z" />
    <glyph glyph-name="Udieresis.c2sc" horiz-adv-x="1161" 
d="M143 1143h187v-762q0 -240 248 -240q253 0 253 244v758h187v-766q0 -186 -115 -290.5t-323 -104.5q-212 0 -324.5 101.5t-112.5 291.5v768zM345 1513q47 0 79.5 -32.5t32.5 -79.5t-32.5 -80t-79.5 -33t-80 33t-33 80t33 79.5t80 32.5zM817 1513q47 0 80 -32.5t33 -79.5
t-33 -80t-80 -33t-79.5 33t-32.5 80t32.5 79.5t79.5 32.5z" />
    <glyph glyph-name="Yacute.c2sc" horiz-adv-x="969" 
d="M578 512v-512h-185v512l-393 631h209l276 -471l275 471h209zM739 1618l-226 -333h-140l169 333h197z" />
    <glyph glyph-name="Thorn.c2sc" horiz-adv-x="999" 
d="M160 1143h186v-156q165 0 232 -6t161.5 -46.5t146.5 -118.5t52 -181q0 -187 -125 -285t-364 -98q-7 0 -103 6v-258h-186v1143zM346 420q43 -10 100 -10q299 0 299 219q0 198 -296 198q-47 0 -103 -6v-401z" />
    </font>
</defs>
</svg>
